STARTFONT 2.1
COMMENT
COMMENT Converted from OpenType font "SeoulNamsanB.ttf" by "otf2bdf 3.0".
COMMENT
FONT -FreeType-SeoulNamsan-Medium-R-Normal--17-120-100-100-P-141-ISO10646-1
SIZE 12 100 100
FONTBOUNDINGBOX 17 18 -1 -4
STARTPROPERTIES 19
FOUNDRY "FreeType"
FAMILY_NAME "SeoulNamsan"
WEIGHT_NAME "Medium"
SLANT "R"
SETWIDTH_NAME "Normal"
ADD_STYLE_NAME ""
PIXEL_SIZE 17
POINT_SIZE 120
RESOLUTION_X 100
RESOLUTION_Y 100
SPACING "P"
AVERAGE_WIDTH 141
CHARSET_REGISTRY "ISO10646"
CHARSET_ENCODING "1"
FONT_ASCENT 13
FONT_DESCENT 3
COPYRIGHT "Copyright(c)2008. Seoul Metropolitan Government. All rights reserved."
_OTF_FONTFILE "SeoulNamsanB.ttf"
_OTF_PSNAME "SeoulNamsanB"
ENDPROPERTIES
CHARS 18535
STARTCHAR 0020
ENCODING 32
SWIDTH 360 0
DWIDTH 6 0
BBX 0 0 0 0
BITMAP
ENDCHAR
STARTCHAR 0021
ENCODING 33
SWIDTH 300 0
DWIDTH 5 0
BBX 2 13 1 -1
BITMAP
40
40
40
40
40
40
40
40
40
00
00
C0
C0
ENDCHAR
STARTCHAR 0022
ENCODING 34
SWIDTH 420 0
DWIDTH 7 0
BBX 4 4 1 9
BITMAP
D0
D0
D0
D0
ENDCHAR
STARTCHAR 0023
ENCODING 35
SWIDTH 660 0
DWIDTH 11 0
BBX 9 11 1 0
BITMAP
1B00
1B00
1200
1380
FF80
3600
FF00
2400
6C00
4C00
4800
ENDCHAR
STARTCHAR 0024
ENCODING 36
SWIDTH 540 0
DWIDTH 9 0
BBX 7 15 1 -2
BITMAP
10
18
7E
D6
D0
D0
70
1C
16
12
D2
D6
7C
10
10
ENDCHAR
STARTCHAR 0025
ENCODING 37
SWIDTH 840 0
DWIDTH 14 0
BBX 14 11 0 0
BITMAP
7880
4C80
4D80
C500
4D78
4F4C
7ACC
02CC
06CC
044C
0478
ENDCHAR
STARTCHAR 0026
ENCODING 38
SWIDTH 840 0
DWIDTH 14 0
BBX 11 12 1 -1
BITMAP
1E00
3300
3300
3700
1E00
1C00
7600
C360
C3C0
C180
C3C0
7E60
ENDCHAR
STARTCHAR 0027
ENCODING 39
SWIDTH 300 0
DWIDTH 5 0
BBX 2 4 1 9
BITMAP
C0
C0
C0
40
ENDCHAR
STARTCHAR 0028
ENCODING 40
SWIDTH 360 0
DWIDTH 6 0
BBX 3 15 2 -3
BITMAP
20
60
C0
C0
C0
80
80
80
80
80
C0
C0
C0
40
60
ENDCHAR
STARTCHAR 0029
ENCODING 41
SWIDTH 360 0
DWIDTH 6 0
BBX 3 15 1 -3
BITMAP
80
C0
40
60
60
60
60
60
60
60
60
60
60
40
C0
ENDCHAR
STARTCHAR 002A
ENCODING 42
SWIDTH 360 0
DWIDTH 6 0
BBX 6 5 0 7
BITMAP
68
30
FC
30
68
ENDCHAR
STARTCHAR 002B
ENCODING 43
SWIDTH 600 0
DWIDTH 10 0
BBX 8 8 1 2
BITMAP
18
18
18
FF
FF
18
18
18
ENDCHAR
STARTCHAR 002C
ENCODING 44
SWIDTH 300 0
DWIDTH 5 0
BBX 2 4 1 -2
BITMAP
C0
C0
C0
80
ENDCHAR
STARTCHAR 002D
ENCODING 45
SWIDTH 420 0
DWIDTH 7 0
BBX 5 2 1 5
BITMAP
F8
F8
ENDCHAR
STARTCHAR 002E
ENCODING 46
SWIDTH 300 0
DWIDTH 5 0
BBX 2 2 1 -1
BITMAP
C0
C0
ENDCHAR
STARTCHAR 002F
ENCODING 47
SWIDTH 360 0
DWIDTH 6 0
BBX 5 15 1 -2
BITMAP
18
10
10
30
30
20
20
60
60
40
40
C0
C0
80
80
ENDCHAR
STARTCHAR 0030
ENCODING 48
SWIDTH 480 0
DWIDTH 8 0
BBX 8 12 0 0
BITMAP
3C
66
62
43
43
C3
C3
43
43
42
66
3C
ENDCHAR
STARTCHAR 0031
ENCODING 49
SWIDTH 480 0
DWIDTH 8 0
BBX 3 12 2 0
BITMAP
60
E0
A0
20
20
20
20
20
20
20
20
20
ENDCHAR
STARTCHAR 0032
ENCODING 50
SWIDTH 480 0
DWIDTH 8 0
BBX 7 12 1 0
BITMAP
78
CC
86
06
04
0C
0C
18
30
60
C0
FE
ENDCHAR
STARTCHAR 0033
ENCODING 51
SWIDTH 480 0
DWIDTH 8 0
BBX 8 12 0 0
BITMAP
3C
66
43
03
06
1C
0E
03
03
C3
66
3C
ENDCHAR
STARTCHAR 0034
ENCODING 52
SWIDTH 480 0
DWIDTH 8 0
BBX 8 12 0 0
BITMAP
04
0C
1C
14
34
24
44
FF
FF
04
04
04
ENDCHAR
STARTCHAR 0035
ENCODING 53
SWIDTH 480 0
DWIDTH 8 0
BBX 7 12 1 0
BITMAP
FC
FC
C0
C0
C0
FC
C6
06
06
86
CC
78
ENDCHAR
STARTCHAR 0036
ENCODING 54
SWIDTH 480 0
DWIDTH 8 0
BBX 7 12 1 0
BITMAP
3C
66
C6
80
80
BC
C6
C6
86
C6
C6
7C
ENDCHAR
STARTCHAR 0037
ENCODING 55
SWIDTH 480 0
DWIDTH 8 0
BBX 7 12 1 0
BITMAP
FE
FE
04
0C
0C
08
18
10
30
30
20
60
ENDCHAR
STARTCHAR 0038
ENCODING 56
SWIDTH 480 0
DWIDTH 8 0
BBX 8 12 0 0
BITMAP
3C
66
43
43
62
3C
76
43
C3
43
63
3E
ENDCHAR
STARTCHAR 0039
ENCODING 57
SWIDTH 480 0
DWIDTH 8 0
BBX 8 12 0 0
BITMAP
3C
66
42
C3
C3
47
7F
13
03
42
66
3C
ENDCHAR
STARTCHAR 003A
ENCODING 58
SWIDTH 240 0
DWIDTH 4 0
BBX 2 9 1 1
BITMAP
C0
C0
00
00
00
00
00
C0
C0
ENDCHAR
STARTCHAR 003B
ENCODING 59
SWIDTH 240 0
DWIDTH 4 0
BBX 2 11 1 -1
BITMAP
C0
C0
00
00
00
00
00
C0
C0
C0
80
ENDCHAR
STARTCHAR 003C
ENCODING 60
SWIDTH 600 0
DWIDTH 10 0
BBX 7 9 2 0
BITMAP
02
0E
38
60
C0
C0
30
1C
06
ENDCHAR
STARTCHAR 003D
ENCODING 61
SWIDTH 600 0
DWIDTH 10 0
BBX 8 4 1 4
BITMAP
FF
00
00
FF
ENDCHAR
STARTCHAR 003E
ENCODING 62
SWIDTH 600 0
DWIDTH 10 0
BBX 7 9 1 0
BITMAP
80
C0
30
1C
06
0E
38
60
C0
ENDCHAR
STARTCHAR 003F
ENCODING 63
SWIDTH 420 0
DWIDTH 7 0
BBX 7 13 0 -1
BITMAP
7C
CE
06
06
04
0C
18
30
30
30
00
00
30
ENDCHAR
STARTCHAR 0040
ENCODING 64
SWIDTH 1020 0
DWIDTH 17 0
BBX 14 14 1 -2
BITMAP
07E0
1C18
3008
23F4
6674
4C64
CC64
C844
C8CC
49D8
6FF0
3018
1FF0
0100
ENDCHAR
STARTCHAR 0041
ENCODING 65
SWIDTH 600 0
DWIDTH 10 0
BBX 10 12 0 0
BITMAP
0C00
0E00
1E00
1A00
1300
3300
2100
3F80
6180
4080
C0C0
C0C0
ENDCHAR
STARTCHAR 0042
ENCODING 66
SWIDTH 600 0
DWIDTH 10 0
BBX 8 12 1 0
BITMAP
FC
C6
C3
C3
C2
FC
C7
C3
C1
C3
C7
FE
ENDCHAR
STARTCHAR 0043
ENCODING 67
SWIDTH 660 0
DWIDTH 11 0
BBX 9 12 1 0
BITMAP
3F00
7380
C180
C180
8000
8000
8000
8000
C000
C000
7080
3F80
ENDCHAR
STARTCHAR 0044
ENCODING 68
SWIDTH 660 0
DWIDTH 11 0
BBX 9 12 1 0
BITMAP
FC00
CF00
C180
C180
C080
C080
C080
C080
C180
C100
C700
FC00
ENDCHAR
STARTCHAR 0045
ENCODING 69
SWIDTH 540 0
DWIDTH 9 0
BBX 7 12 1 0
BITMAP
FE
C0
C0
C0
C0
FE
C0
C0
C0
C0
C0
FE
ENDCHAR
STARTCHAR 0046
ENCODING 70
SWIDTH 480 0
DWIDTH 8 0
BBX 7 12 1 0
BITMAP
FE
C0
C0
C0
C0
FE
C0
C0
C0
C0
C0
C0
ENDCHAR
STARTCHAR 0047
ENCODING 71
SWIDTH 660 0
DWIDTH 11 0
BBX 9 12 1 0
BITMAP
3F00
6380
C180
C180
8000
8000
8780
8180
C180
C180
7180
3F80
ENDCHAR
STARTCHAR 0048
ENCODING 72
SWIDTH 660 0
DWIDTH 11 0
BBX 9 12 1 0
BITMAP
C180
C180
C180
C180
C180
FF80
C180
C180
C180
C180
C180
C180
ENDCHAR
STARTCHAR 0049
ENCODING 73
SWIDTH 240 0
DWIDTH 4 0
BBX 2 12 1 0
BITMAP
C0
C0
C0
C0
C0
C0
C0
C0
C0
C0
C0
C0
ENDCHAR
STARTCHAR 004A
ENCODING 74
SWIDTH 360 0
DWIDTH 6 0
BBX 5 12 0 0
BITMAP
18
18
18
18
18
18
18
18
18
18
38
F0
ENDCHAR
STARTCHAR 004B
ENCODING 75
SWIDTH 600 0
DWIDTH 10 0
BBX 9 12 1 0
BITMAP
C300
C600
CC00
D800
F000
E000
F000
D800
CC00
C600
C300
C180
ENDCHAR
STARTCHAR 004C
ENCODING 76
SWIDTH 480 0
DWIDTH 8 0
BBX 7 12 1 0
BITMAP
C0
C0
C0
C0
C0
C0
C0
C0
C0
C0
C0
FE
ENDCHAR
STARTCHAR 004D
ENCODING 77
SWIDTH 840 0
DWIDTH 14 0
BBX 12 12 1 0
BITMAP
E070
E070
E070
F0F0
D0B0
D0B0
D9B0
C930
C930
CF30
C630
C630
ENDCHAR
STARTCHAR 004E
ENCODING 78
SWIDTH 660 0
DWIDTH 11 0
BBX 9 12 1 0
BITMAP
E180
E180
F180
D180
D980
C980
CD80
C580
C780
C380
C380
C180
ENDCHAR
STARTCHAR 004F
ENCODING 79
SWIDTH 720 0
DWIDTH 12 0
BBX 10 12 1 0
BITMAP
3F00
7380
C0C0
C0C0
8040
8040
8040
8040
C0C0
C0C0
6180
3F00
ENDCHAR
STARTCHAR 0050
ENCODING 80
SWIDTH 540 0
DWIDTH 9 0
BBX 8 12 1 0
BITMAP
FC
CE
C3
C3
C3
C6
DC
C0
C0
C0
C0
C0
ENDCHAR
STARTCHAR 0051
ENCODING 81
SWIDTH 720 0
DWIDTH 12 0
BBX 11 12 1 0
BITMAP
3F00
6180
C0C0
C0C0
8040
8040
8040
8040
C0C0
C0C0
6380
3FE0
ENDCHAR
STARTCHAR 0052
ENCODING 82
SWIDTH 600 0
DWIDTH 10 0
BBX 8 12 1 0
BITMAP
FC
CE
C3
C3
C3
CE
DC
C6
C2
C3
C3
C3
ENDCHAR
STARTCHAR 0053
ENCODING 83
SWIDTH 540 0
DWIDTH 9 0
BBX 7 12 1 0
BITMAP
7E
C6
80
C0
E0
78
1C
06
02
06
86
FC
ENDCHAR
STARTCHAR 0054
ENCODING 84
SWIDTH 540 0
DWIDTH 9 0
BBX 9 12 0 0
BITMAP
FF80
1800
1800
1800
1800
1800
1800
1800
1800
1800
1800
1800
ENDCHAR
STARTCHAR 0055
ENCODING 85
SWIDTH 660 0
DWIDTH 11 0
BBX 9 12 1 0
BITMAP
C180
C180
C180
C180
C180
C180
C180
C180
C180
C180
6300
3E00
ENDCHAR
STARTCHAR 0056
ENCODING 86
SWIDTH 600 0
DWIDTH 10 0
BBX 10 12 0 0
BITMAP
C0C0
C080
4180
6180
6100
2300
3300
3200
1600
1E00
1C00
0C00
ENDCHAR
STARTCHAR 0057
ENCODING 87
SWIDTH 900 0
DWIDTH 15 0
BBX 13 12 1 0
BITMAP
8608
8718
C518
C518
CD10
4D90
4890
68B0
78F0
78E0
3060
3060
ENDCHAR
STARTCHAR 0058
ENCODING 88
SWIDTH 540 0
DWIDTH 9 0
BBX 9 12 0 0
BITMAP
C180
6300
3300
3600
1C00
0C00
1C00
1600
3600
6300
6180
C180
ENDCHAR
STARTCHAR 0059
ENCODING 89
SWIDTH 540 0
DWIDTH 9 0
BBX 9 12 0 0
BITMAP
C180
4180
6300
3200
3600
1C00
0800
0800
0800
0800
0800
0800
ENDCHAR
STARTCHAR 005A
ENCODING 90
SWIDTH 540 0
DWIDTH 9 0
BBX 9 12 0 0
BITMAP
7F00
0300
0300
0600
0C00
0C00
1800
3000
3000
6000
4000
FF80
ENDCHAR
STARTCHAR 005B
ENCODING 91
SWIDTH 360 0
DWIDTH 6 0
BBX 3 16 2 -3
BITMAP
E0
80
80
80
80
80
80
80
80
80
80
80
80
80
E0
E0
ENDCHAR
STARTCHAR 005C
ENCODING 92
SWIDTH 1020 0
DWIDTH 17 0
BBX 15 12 1 0
BITMAP
6308
6308
6388
2298
2698
FFFE
34D0
3450
1450
1C70
1870
1860
ENDCHAR
STARTCHAR 005D
ENCODING 93
SWIDTH 360 0
DWIDTH 6 0
BBX 3 16 1 -3
BITMAP
E0
60
60
60
60
60
60
60
60
60
60
60
60
60
E0
E0
ENDCHAR
STARTCHAR 005E
ENCODING 94
SWIDTH 360 0
DWIDTH 6 0
BBX 4 3 1 10
BITMAP
60
60
D0
ENDCHAR
STARTCHAR 005F
ENCODING 95
SWIDTH 480 0
DWIDTH 8 0
BBX 8 1 0 -2
BITMAP
FF
ENDCHAR
STARTCHAR 0060
ENCODING 96
SWIDTH 300 0
DWIDTH 5 0
BBX 3 3 1 9
BITMAP
C0
40
60
ENDCHAR
STARTCHAR 0061
ENCODING 97
SWIDTH 540 0
DWIDTH 9 0
BBX 6 9 1 0
BITMAP
30
FC
C4
04
7C
C4
84
CC
F4
ENDCHAR
STARTCHAR 0062
ENCODING 98
SWIDTH 540 0
DWIDTH 9 0
BBX 8 12 1 0
BITMAP
C0
C0
C0
C0
FE
E2
C3
C3
C3
C3
66
3C
ENDCHAR
STARTCHAR 0063
ENCODING 99
SWIDTH 540 0
DWIDTH 9 0
BBX 7 9 1 0
BITMAP
18
7E
C6
80
80
80
C0
60
3E
ENDCHAR
STARTCHAR 0064
ENCODING 100
SWIDTH 540 0
DWIDTH 9 0
BBX 7 12 1 0
BITMAP
02
02
02
12
7A
C6
86
86
86
C6
C6
7A
ENDCHAR
STARTCHAR 0065
ENCODING 101
SWIDTH 540 0
DWIDTH 9 0
BBX 7 9 1 0
BITMAP
10
7C
C6
82
FE
80
C0
60
3E
ENDCHAR
STARTCHAR 0066
ENCODING 102
SWIDTH 360 0
DWIDTH 6 0
BBX 6 12 0 0
BITMAP
1C
30
20
20
FC
20
20
20
20
20
20
20
ENDCHAR
STARTCHAR 0067
ENCODING 103
SWIDTH 540 0
DWIDTH 9 0
BBX 7 12 1 -3
BITMAP
30
7A
C6
86
86
86
86
CA
7A
06
86
FC
ENDCHAR
STARTCHAR 0068
ENCODING 104
SWIDTH 540 0
DWIDTH 9 0
BBX 7 12 1 0
BITMAP
C0
C0
C0
C8
FE
E6
C2
C2
C2
C2
C2
C2
ENDCHAR
STARTCHAR 0069
ENCODING 105
SWIDTH 240 0
DWIDTH 4 0
BBX 2 12 1 0
BITMAP
C0
C0
00
00
C0
C0
C0
C0
C0
C0
C0
C0
ENDCHAR
STARTCHAR 006A
ENCODING 106
SWIDTH 240 0
DWIDTH 4 0
BBX 4 15 -1 -3
BITMAP
30
30
00
00
10
10
10
10
10
10
10
10
10
30
E0
ENDCHAR
STARTCHAR 006B
ENCODING 107
SWIDTH 480 0
DWIDTH 8 0
BBX 7 12 1 0
BITMAP
C0
C0
C0
C0
CE
D8
F0
E0
F0
D8
CC
C6
ENDCHAR
STARTCHAR 006C
ENCODING 108
SWIDTH 240 0
DWIDTH 4 0
BBX 2 12 1 0
BITMAP
C0
C0
C0
C0
C0
C0
C0
C0
C0
C0
C0
C0
ENDCHAR
STARTCHAR 006D
ENCODING 109
SWIDTH 840 0
DWIDTH 14 0
BBX 12 8 1 1
BITMAP
FDE0
E720
C630
C630
C630
C630
C630
C630
ENDCHAR
STARTCHAR 006E
ENCODING 110
SWIDTH 600 0
DWIDTH 10 0
BBX 7 9 1 0
BITMAP
08
FE
E6
C2
C2
C2
C2
C2
C2
ENDCHAR
STARTCHAR 006F
ENCODING 111
SWIDTH 540 0
DWIDTH 9 0
BBX 8 9 1 0
BITMAP
10
7E
C6
83
83
83
C3
C6
7C
ENDCHAR
STARTCHAR 0070
ENCODING 112
SWIDTH 540 0
DWIDTH 9 0
BBX 8 12 1 -3
BITMAP
08
FE
E6
C3
C3
C3
C2
E6
FC
C0
C0
C0
ENDCHAR
STARTCHAR 0071
ENCODING 113
SWIDTH 540 0
DWIDTH 9 0
BBX 7 12 1 -3
BITMAP
10
7E
C6
86
86
86
86
CE
7E
06
06
06
ENDCHAR
STARTCHAR 0072
ENCODING 114
SWIDTH 360 0
DWIDTH 6 0
BBX 5 8 1 1
BITMAP
F8
E0
C0
C0
C0
C0
C0
C0
ENDCHAR
STARTCHAR 0073
ENCODING 115
SWIDTH 420 0
DWIDTH 7 0
BBX 6 9 0 0
BITMAP
10
7C
40
60
78
0C
04
84
FC
ENDCHAR
STARTCHAR 0074
ENCODING 116
SWIDTH 360 0
DWIDTH 6 0
BBX 6 11 0 0
BITMAP
20
20
20
FC
20
20
20
20
20
20
3C
ENDCHAR
STARTCHAR 0075
ENCODING 117
SWIDTH 600 0
DWIDTH 10 0
BBX 7 8 1 0
BITMAP
C2
C2
C2
C2
C2
C6
CE
7A
ENDCHAR
STARTCHAR 0076
ENCODING 118
SWIDTH 480 0
DWIDTH 8 0
BBX 8 8 0 0
BITMAP
C3
43
62
26
34
1C
1C
18
ENDCHAR
STARTCHAR 0077
ENCODING 119
SWIDTH 720 0
DWIDTH 12 0
BBX 11 8 1 0
BITMAP
8C60
8C40
CE40
DAC0
5280
5380
7180
6180
ENDCHAR
STARTCHAR 0078
ENCODING 120
SWIDTH 480 0
DWIDTH 8 0
BBX 8 8 0 0
BITMAP
62
26
3C
18
1C
34
66
C3
ENDCHAR
STARTCHAR 0079
ENCODING 121
SWIDTH 480 0
DWIDTH 8 0
BBX 8 11 0 -3
BITMAP
C3
42
66
26
34
3C
18
18
18
10
30
ENDCHAR
STARTCHAR 007A
ENCODING 122
SWIDTH 480 0
DWIDTH 8 0
BBX 6 8 1 0
BITMAP
FC
08
18
30
60
40
C0
FC
ENDCHAR
STARTCHAR 007B
ENCODING 123
SWIDTH 480 0
DWIDTH 8 0
BBX 5 16 2 -3
BITMAP
18
30
60
60
20
20
20
C0
40
20
20
60
60
60
30
18
ENDCHAR
STARTCHAR 007C
ENCODING 124
SWIDTH 360 0
DWIDTH 6 0
BBX 2 16 2 -3
BITMAP
C0
C0
C0
C0
C0
C0
C0
C0
C0
C0
C0
C0
C0
C0
C0
C0
ENDCHAR
STARTCHAR 007D
ENCODING 125
SWIDTH 480 0
DWIDTH 8 0
BBX 4 16 1 -3
BITMAP
C0
60
60
60
60
60
20
10
30
60
60
60
60
60
60
80
ENDCHAR
STARTCHAR 007E
ENCODING 126
SWIDTH 600 0
DWIDTH 10 0
BBX 8 3 1 4
BITMAP
F1
99
8F
ENDCHAR
STARTCHAR 00A1
ENCODING 161
SWIDTH 960 0
DWIDTH 16 0
BBX 2 14 7 -2
BITMAP
C0
C0
00
00
80
80
80
80
80
80
80
80
80
80
ENDCHAR
STARTCHAR 00A4
ENCODING 164
SWIDTH 780 0
DWIDTH 13 0
BBX 9 9 2 1
BITMAP
8080
FF00
4300
4100
8100
8100
4100
6700
9D80
ENDCHAR
STARTCHAR 00A7
ENCODING 167
SWIDTH 360 0
DWIDTH 6 0
BBX 5 14 1 -2
BITMAP
70
90
80
C0
60
B0
98
C8
78
30
10
90
D0
20
ENDCHAR
STARTCHAR 00A8
ENCODING 168
SWIDTH 540 0
DWIDTH 9 0
BBX 7 2 1 11
BITMAP
C6
C6
ENDCHAR
STARTCHAR 00AA
ENCODING 170
SWIDTH 660 0
DWIDTH 11 0
BBX 7 9 2 3
BITMAP
3C
66
06
3E
66
46
7E
00
FE
ENDCHAR
STARTCHAR 00AD
ENCODING 173
SWIDTH 420 0
DWIDTH 7 0
BBX 5 2 1 4
BITMAP
F8
F8
ENDCHAR
STARTCHAR 00AE
ENCODING 174
SWIDTH 960 0
DWIDTH 16 0
BBX 14 14 1 -2
BITMAP
0FE0
3030
6FD8
4C4C
CC64
8C64
8FC4
8D84
8C44
CC44
4C68
2C78
1830
0FC0
ENDCHAR
STARTCHAR 00B0
ENCODING 176
SWIDTH 240 0
DWIDTH 4 0
BBX 4 3 0 10
BITMAP
F0
90
70
ENDCHAR
STARTCHAR 00B1
ENCODING 177
SWIDTH 660 0
DWIDTH 11 0
BBX 9 10 1 0
BITMAP
0800
0800
0800
FF80
0800
0800
0800
0000
FF80
FF80
ENDCHAR
STARTCHAR 00B2
ENCODING 178
SWIDTH 360 0
DWIDTH 6 0
BBX 4 7 1 5
BITMAP
70
D0
10
10
20
40
F0
ENDCHAR
STARTCHAR 00B3
ENCODING 179
SWIDTH 360 0
DWIDTH 6 0
BBX 4 7 1 5
BITMAP
70
90
10
30
10
90
70
ENDCHAR
STARTCHAR 00B4
ENCODING 180
SWIDTH 960 0
DWIDTH 16 0
BBX 2 3 7 9
BITMAP
C0
C0
80
ENDCHAR
STARTCHAR 00B6
ENCODING 182
SWIDTH 960 0
DWIDTH 16 0
BBX 6 14 4 -2
BITMAP
7C
F4
F4
F4
F4
74
14
14
14
14
14
14
14
14
ENDCHAR
STARTCHAR 00B7
ENCODING 183
SWIDTH 300 0
DWIDTH 5 0
BBX 2 2 1 4
BITMAP
C0
C0
ENDCHAR
STARTCHAR 00B8
ENCODING 184
SWIDTH 300 0
DWIDTH 5 0
BBX 5 3 0 -3
BITMAP
18
18
F0
ENDCHAR
STARTCHAR 00B9
ENCODING 185
SWIDTH 360 0
DWIDTH 6 0
BBX 2 7 2 5
BITMAP
C0
C0
40
40
40
40
40
ENDCHAR
STARTCHAR 00BA
ENCODING 186
SWIDTH 660 0
DWIDTH 11 0
BBX 7 9 2 3
BITMAP
3C
66
46
C6
46
66
3C
00
FE
ENDCHAR
STARTCHAR 00BC
ENCODING 188
SWIDTH 960 0
DWIDTH 16 0
BBX 12 14 1 -2
BITMAP
7010
7020
3060
30C0
3180
3300
3620
0420
0860
10E0
30A0
61F0
C020
0020
ENDCHAR
STARTCHAR 00BD
ENCODING 189
SWIDTH 960 0
DWIDTH 16 0
BBX 12 14 1 -2
BITMAP
3010
7020
3060
30C0
3180
3300
3640
04F0
0890
1030
3020
6060
C0F0
00F0
ENDCHAR
STARTCHAR 00BE
ENCODING 190
SWIDTH 960 0
DWIDTH 16 0
BBX 12 14 1 -2
BITMAP
7010
9020
1060
30C0
1180
9300
7620
0420
0860
10E0
30A0
61F0
C020
0020
ENDCHAR
STARTCHAR 00BF
ENCODING 191
SWIDTH 960 0
DWIDTH 16 0
BBX 6 14 4 -2
BITMAP
18
18
00
00
10
10
10
20
40
C0
80
80
FC
38
ENDCHAR
STARTCHAR 00C6
ENCODING 198
SWIDTH 840 0
DWIDTH 14 0
BBX 13 12 0 0
BITMAP
07F8
0F00
0D00
0900
1900
11F8
3100
3F00
2100
6100
4100
C1F8
ENDCHAR
STARTCHAR 00D0
ENCODING 208
SWIDTH 720 0
DWIDTH 12 0
BBX 11 12 0 0
BITMAP
3F00
3380
30C0
3060
3060
FE60
3060
3060
3060
30C0
3180
3F00
ENDCHAR
STARTCHAR 00D7
ENCODING 215
SWIDTH 660 0
DWIDTH 11 0
BBX 9 8 1 1
BITMAP
C180
6300
3600
1C00
1C00
3600
6300
C180
ENDCHAR
STARTCHAR 00D8
ENCODING 216
SWIDTH 780 0
DWIDTH 13 0
BBX 11 13 1 -1
BITMAP
1F40
31C0
60C0
C140
C360
C260
C460
C860
D840
70C0
6180
7F00
4000
ENDCHAR
STARTCHAR 00DE
ENCODING 222
SWIDTH 600 0
DWIDTH 10 0
BBX 8 12 1 0
BITMAP
C0
C0
C0
FC
C7
C3
C1
C3
C7
FC
C0
C0
ENDCHAR
STARTCHAR 00DF
ENCODING 223
SWIDTH 600 0
DWIDTH 10 0
BBX 8 12 1 0
BITMAP
3E
66
C3
C3
C2
DC
C6
C3
C1
C1
C3
DE
ENDCHAR
STARTCHAR 00E6
ENCODING 230
SWIDTH 780 0
DWIDTH 13 0
BBX 12 9 1 0
BITMAP
30C0
FFE0
C630
0430
3FF0
C400
8600
8E00
FBF0
ENDCHAR
STARTCHAR 00F0
ENCODING 240
SWIDTH 540 0
DWIDTH 9 0
BBX 9 12 0 0
BITMAP
3900
0E00
1E00
1300
3F00
6380
4180
4180
C180
4180
6300
3E00
ENDCHAR
STARTCHAR 00F7
ENCODING 247
SWIDTH 660 0
DWIDTH 11 0
BBX 9 10 1 0
BITMAP
0C00
1C00
0000
0000
FF80
FF80
0000
0000
1C00
0800
ENDCHAR
STARTCHAR 00F8
ENCODING 248
SWIDTH 600 0
DWIDTH 10 0
BBX 8 10 1 -1
BITMAP
18
7F
C6
C7
8B
9B
F3
E6
7C
40
ENDCHAR
STARTCHAR 00FE
ENCODING 254
SWIDTH 600 0
DWIDTH 10 0
BBX 8 16 1 -4
BITMAP
C0
C0
C0
C8
FE
E3
C3
C3
C3
C3
E3
FE
C0
C0
C0
C0
ENDCHAR
STARTCHAR 0111
ENCODING 273
SWIDTH 600 0
DWIDTH 10 0
BBX 9 12 1 0
BITMAP
0200
0200
7F80
0200
7A00
C600
8600
8600
8600
8600
C600
7A00
ENDCHAR
STARTCHAR 0126
ENCODING 294
SWIDTH 720 0
DWIDTH 12 0
BBX 12 12 0 0
BITMAP
3040
3040
3040
FFF0
3040
3FC0
3040
3040
3040
3040
3040
3040
ENDCHAR
STARTCHAR 0127
ENCODING 295
SWIDTH 600 0
DWIDTH 10 0
BBX 9 12 0 0
BITMAP
2000
2000
FE00
2000
2F00
3180
3180
2180
2180
2180
2180
2180
ENDCHAR
STARTCHAR 0131
ENCODING 305
SWIDTH 240 0
DWIDTH 4 0
BBX 2 8 1 0
BITMAP
C0
C0
C0
C0
C0
C0
C0
C0
ENDCHAR
STARTCHAR 0132
ENCODING 306
SWIDTH 660 0
DWIDTH 11 0
BBX 8 12 2 0
BITMAP
83
83
83
83
83
83
83
83
83
83
83
9E
ENDCHAR
STARTCHAR 0133
ENCODING 307
SWIDTH 480 0
DWIDTH 8 0
BBX 6 16 1 -4
BITMAP
CC
CC
00
00
C8
C8
C8
C8
C8
C8
C8
C8
08
08
38
20
ENDCHAR
STARTCHAR 0138
ENCODING 312
SWIDTH 480 0
DWIDTH 8 0
BBX 7 8 1 0
BITMAP
8C
98
B0
E0
E0
B0
98
8E
ENDCHAR
STARTCHAR 013F
ENCODING 319
SWIDTH 480 0
DWIDTH 8 0
BBX 7 12 1 0
BITMAP
C0
C0
C0
C0
C0
CC
CC
C0
C0
C0
C0
FE
ENDCHAR
STARTCHAR 0140
ENCODING 320
SWIDTH 420 0
DWIDTH 7 0
BBX 5 12 1 0
BITMAP
C0
C0
C0
C0
C0
D8
C0
C0
C0
C0
C0
C0
ENDCHAR
STARTCHAR 0141
ENCODING 321
SWIDTH 540 0
DWIDTH 9 0
BBX 9 12 0 0
BITMAP
2000
2000
2000
2C00
3800
6000
E000
A000
2000
2000
2000
3F80
ENDCHAR
STARTCHAR 0142
ENCODING 322
SWIDTH 480 0
DWIDTH 8 0
BBX 8 12 0 0
BITMAP
18
18
1B
1E
1C
18
38
78
D8
18
18
18
ENDCHAR
STARTCHAR 0149
ENCODING 329
SWIDTH 720 0
DWIDTH 12 0
BBX 10 13 1 0
BITMAP
C000
C000
C000
8000
0100
17C0
14C0
1840
1840
1040
1040
1040
1040
ENDCHAR
STARTCHAR 014A
ENCODING 330
SWIDTH 660 0
DWIDTH 11 0
BBX 9 15 1 -3
BITMAP
C180
E180
E180
D180
D180
C980
C980
C580
C580
C380
C380
C180
0180
0180
0F00
ENDCHAR
STARTCHAR 014B
ENCODING 331
SWIDTH 540 0
DWIDTH 9 0
BBX 7 13 1 -4
BITMAP
18
BE
C6
C2
C2
82
82
82
82
02
02
1C
18
ENDCHAR
STARTCHAR 0152
ENCODING 338
SWIDTH 900 0
DWIDTH 15 0
BBX 14 12 1 0
BITMAP
3FFC
6380
4180
C180
8180
81F8
8180
8180
C180
C180
6180
3FFC
ENDCHAR
STARTCHAR 0153
ENCODING 339
SWIDTH 840 0
DWIDTH 14 0
BBX 14 9 0 0
BITMAP
1860
3FF8
6308
430C
C3FC
C300
4300
6380
3EF8
ENDCHAR
STARTCHAR 0166
ENCODING 358
SWIDTH 540 0
DWIDTH 9 0
BBX 9 12 0 0
BITMAP
FF80
0800
0800
0800
0800
7F00
0800
0800
0800
0800
0800
0800
ENDCHAR
STARTCHAR 0167
ENCODING 359
SWIDTH 360 0
DWIDTH 6 0
BBX 6 11 0 0
BITMAP
20
20
20
FC
20
20
FC
20
20
20
3C
ENDCHAR
STARTCHAR 02BC
ENCODING 700
SWIDTH 300 0
DWIDTH 5 0
BBX 2 4 2 9
BITMAP
C0
C0
C0
80
ENDCHAR
STARTCHAR 02C7
ENCODING 711
SWIDTH 960 0
DWIDTH 16 0
BBX 5 3 6 10
BITMAP
08
F8
20
ENDCHAR
STARTCHAR 02D0
ENCODING 720
SWIDTH 240 0
DWIDTH 4 0
BBX 2 8 1 1
BITMAP
C0
40
00
00
00
00
C0
C0
ENDCHAR
STARTCHAR 02D8
ENCODING 728
SWIDTH 960 0
DWIDTH 16 0
BBX 6 3 5 10
BITMAP
84
7C
30
ENDCHAR
STARTCHAR 02D9
ENCODING 729
SWIDTH 960 0
DWIDTH 16 0
BBX 2 2 7 10
BITMAP
C0
C0
ENDCHAR
STARTCHAR 02DA
ENCODING 730
SWIDTH 960 0
DWIDTH 16 0
BBX 3 3 7 10
BITMAP
E0
A0
C0
ENDCHAR
STARTCHAR 02DB
ENCODING 731
SWIDTH 300 0
DWIDTH 5 0
BBX 4 3 1 -3
BITMAP
80
80
F0
ENDCHAR
STARTCHAR 02DD
ENCODING 733
SWIDTH 960 0
DWIDTH 16 0
BBX 4 3 7 9
BITMAP
F0
B0
A0
ENDCHAR
STARTCHAR 0391
ENCODING 913
SWIDTH 600 0
DWIDTH 10 0
BBX 10 12 0 0
BITMAP
0C00
0C00
1E00
1200
1300
3300
2100
3F80
6180
4080
40C0
C0C0
ENDCHAR
STARTCHAR 0392
ENCODING 914
SWIDTH 600 0
DWIDTH 10 0
BBX 8 12 1 0
BITMAP
FC
C6
C3
C3
C2
FC
C6
C3
C1
C1
C3
FE
ENDCHAR
STARTCHAR 0393
ENCODING 915
SWIDTH 480 0
DWIDTH 8 0
BBX 7 12 1 0
BITMAP
FE
C0
C0
C0
C0
C0
C0
C0
C0
C0
C0
C0
ENDCHAR
STARTCHAR 0394
ENCODING 916
SWIDTH 600 0
DWIDTH 10 0
BBX 10 12 0 0
BITMAP
0C00
0C00
1E00
1200
1300
3300
2100
2180
6180
4080
40C0
FFC0
ENDCHAR
STARTCHAR 0395
ENCODING 917
SWIDTH 540 0
DWIDTH 9 0
BBX 7 12 1 0
BITMAP
FE
C0
C0
C0
C0
FE
C0
C0
C0
C0
C0
FE
ENDCHAR
STARTCHAR 0396
ENCODING 918
SWIDTH 540 0
DWIDTH 9 0
BBX 9 12 0 0
BITMAP
7F00
0100
0300
0600
0400
0C00
1800
1000
3000
6000
4000
FF80
ENDCHAR
STARTCHAR 0397
ENCODING 919
SWIDTH 660 0
DWIDTH 11 0
BBX 9 12 1 0
BITMAP
C180
C180
C180
C180
C180
FF80
C180
C180
C180
C180
C180
C180
ENDCHAR
STARTCHAR 0398
ENCODING 920
SWIDTH 720 0
DWIDTH 12 0
BBX 10 12 1 0
BITMAP
3E00
6380
C080
C0C0
80C0
9E40
9E40
80C0
C0C0
C080
6180
3F00
ENDCHAR
STARTCHAR 0399
ENCODING 921
SWIDTH 300 0
DWIDTH 5 0
BBX 1 12 2 0
BITMAP
80
80
80
80
80
80
80
80
80
80
80
80
ENDCHAR
STARTCHAR 039A
ENCODING 922
SWIDTH 600 0
DWIDTH 10 0
BBX 8 12 1 0
BITMAP
C3
C6
CC
C8
D0
E0
F0
D8
CC
C6
C3
C3
ENDCHAR
STARTCHAR 039B
ENCODING 923
SWIDTH 600 0
DWIDTH 10 0
BBX 10 12 0 0
BITMAP
0C00
0C00
1E00
1200
1300
3300
2100
2180
6180
4080
40C0
C0C0
ENDCHAR
STARTCHAR 039C
ENCODING 924
SWIDTH 840 0
DWIDTH 14 0
BBX 12 12 1 0
BITMAP
E070
E070
E070
F0F0
D0B0
D0B0
D9B0
C930
C930
CF30
C630
C630
ENDCHAR
STARTCHAR 039D
ENCODING 925
SWIDTH 660 0
DWIDTH 11 0
BBX 9 12 1 0
BITMAP
C180
E180
E180
D180
D980
C980
CD80
C580
C780
C380
C380
C180
ENDCHAR
STARTCHAR 039E
ENCODING 926
SWIDTH 540 0
DWIDTH 9 0
BBX 8 12 1 0
BITMAP
FE
00
00
00
00
FE
00
00
00
00
00
FF
ENDCHAR
STARTCHAR 039F
ENCODING 927
SWIDTH 720 0
DWIDTH 12 0
BBX 10 12 1 0
BITMAP
1F00
7180
40C0
C0C0
8040
8040
8040
8040
C040
C0C0
6180
3F00
ENDCHAR
STARTCHAR 03A0
ENCODING 928
SWIDTH 660 0
DWIDTH 11 0
BBX 9 12 1 0
BITMAP
FF80
C180
C180
C180
C180
C180
C180
C180
C180
C180
C180
C180
ENDCHAR
STARTCHAR 03A1
ENCODING 929
SWIDTH 540 0
DWIDTH 9 0
BBX 8 12 1 0
BITMAP
FC
C6
C3
C3
C3
C6
FC
C0
C0
C0
C0
C0
ENDCHAR
STARTCHAR 03A3
ENCODING 931
SWIDTH 480 0
DWIDTH 8 0
BBX 7 12 0 0
BITMAP
FE
40
60
30
18
0C
0C
18
30
60
40
FE
ENDCHAR
STARTCHAR 03A4
ENCODING 932
SWIDTH 540 0
DWIDTH 9 0
BBX 9 12 0 0
BITMAP
FF80
1800
1800
1800
1800
1800
1800
1800
1800
1800
1800
1800
ENDCHAR
STARTCHAR 03A5
ENCODING 933
SWIDTH 540 0
DWIDTH 9 0
BBX 9 12 0 0
BITMAP
C180
4100
6300
2600
3600
1C00
0800
0800
0800
0800
0800
0800
ENDCHAR
STARTCHAR 03A6
ENCODING 934
SWIDTH 780 0
DWIDTH 13 0
BBX 11 12 1 0
BITMAP
0C00
0C00
3F80
6CC0
CC40
8C60
8C60
CC60
CCC0
7F80
0E00
0C00
ENDCHAR
STARTCHAR 03A7
ENCODING 935
SWIDTH 540 0
DWIDTH 9 0
BBX 9 12 0 0
BITMAP
C180
6300
2300
3600
1C00
0C00
1C00
1600
3600
6300
6100
C180
ENDCHAR
STARTCHAR 03A8
ENCODING 936
SWIDTH 660 0
DWIDTH 11 0
BBX 9 12 1 0
BITMAP
C880
C880
C880
C880
C880
C980
4980
7B00
3E00
0800
0800
0800
ENDCHAR
STARTCHAR 03A9
ENCODING 937
SWIDTH 660 0
DWIDTH 11 0
BBX 9 12 1 0
BITMAP
3E00
6300
4180
C080
C080
C080
C080
C180
6300
3600
3600
F780
ENDCHAR
STARTCHAR 03B1
ENCODING 945
SWIDTH 540 0
DWIDTH 9 0
BBX 8 8 1 0
BITMAP
7A
CE
86
86
84
84
CE
7F
ENDCHAR
STARTCHAR 03B2
ENCODING 946
SWIDTH 600 0
DWIDTH 10 0
BBX 9 15 1 -3
BITMAP
3C00
6600
4300
C300
C200
DC00
C700
C100
C180
C180
E300
DE00
C000
C000
C000
ENDCHAR
STARTCHAR 03B3
ENCODING 947
SWIDTH 480 0
DWIDTH 8 0
BBX 8 11 0 -3
BITMAP
C3
42
66
26
24
3C
18
18
18
18
18
ENDCHAR
STARTCHAR 03B4
ENCODING 948
SWIDTH 540 0
DWIDTH 9 0
BBX 8 12 0 0
BITMAP
3F
30
18
0C
3E
63
41
C1
C1
C1
63
3E
ENDCHAR
STARTCHAR 03B5
ENCODING 949
SWIDTH 480 0
DWIDTH 8 0
BBX 6 8 1 0
BITMAP
78
84
80
70
C0
80
84
7C
ENDCHAR
STARTCHAR 03B6
ENCODING 950
SWIDTH 420 0
DWIDTH 7 0
BBX 6 15 1 -3
BITMAP
FC
18
30
60
C0
C0
80
80
80
80
C0
78
0C
0C
38
ENDCHAR
STARTCHAR 03B7
ENCODING 951
SWIDTH 540 0
DWIDTH 9 0
BBX 7 11 1 -2
BITMAP
BC
A6
C2
C2
82
82
82
82
02
02
02
ENDCHAR
STARTCHAR 03B8
ENCODING 952
SWIDTH 540 0
DWIDTH 9 0
BBX 8 12 0 0
BITMAP
1C
22
63
41
41
FF
FF
41
41
63
62
3E
ENDCHAR
STARTCHAR 03B9
ENCODING 953
SWIDTH 300 0
DWIDTH 5 0
BBX 4 8 1 0
BITMAP
C0
C0
C0
C0
C0
C0
C0
70
ENDCHAR
STARTCHAR 03BA
ENCODING 954
SWIDTH 480 0
DWIDTH 8 0
BBX 7 8 1 0
BITMAP
8C
98
B0
E0
E0
B0
98
8E
ENDCHAR
STARTCHAR 03BB
ENCODING 955
SWIDTH 480 0
DWIDTH 8 0
BBX 7 12 1 0
BITMAP
20
20
30
10
30
38
28
6C
4C
C4
C6
82
ENDCHAR
STARTCHAR 03BC
ENCODING 956
SWIDTH 540 0
DWIDTH 9 0
BBX 7 11 1 -3
BITMAP
C2
C2
C2
C2
C2
C6
C6
FA
C0
C0
C0
ENDCHAR
STARTCHAR 03BD
ENCODING 957
SWIDTH 480 0
DWIDTH 8 0
BBX 8 8 0 0
BITMAP
C3
42
62
26
34
3C
18
18
ENDCHAR
STARTCHAR 03BE
ENCODING 958
SWIDTH 420 0
DWIDTH 7 0
BBX 6 15 1 -3
BITMAP
3C
60
60
3C
60
C0
80
80
80
80
C0
78
0C
0C
38
ENDCHAR
STARTCHAR 03BF
ENCODING 959
SWIDTH 540 0
DWIDTH 9 0
BBX 8 8 1 0
BITMAP
7C
C6
83
83
83
83
C6
7C
ENDCHAR
STARTCHAR 03C0
ENCODING 960
SWIDTH 540 0
DWIDTH 9 0
BBX 9 8 0 0
BITMAP
FF80
2200
2200
2200
2200
2200
2200
2200
ENDCHAR
STARTCHAR 03C1
ENCODING 961
SWIDTH 540 0
DWIDTH 9 0
BBX 7 12 1 -3
BITMAP
10
7C
46
C2
C2
C2
C2
E6
BC
80
80
80
ENDCHAR
STARTCHAR 03C3
ENCODING 963
SWIDTH 600 0
DWIDTH 10 0
BBX 9 8 1 0
BITMAP
7F80
C600
8300
8300
8300
8200
C600
7C00
ENDCHAR
STARTCHAR 03C4
ENCODING 964
SWIDTH 420 0
DWIDTH 7 0
BBX 7 8 0 0
BITMAP
FE
10
10
10
10
10
10
10
ENDCHAR
STARTCHAR 03C5
ENCODING 965
SWIDTH 540 0
DWIDTH 9 0
BBX 7 8 1 1
BITMAP
C6
C6
C2
C2
C2
C2
C6
7C
ENDCHAR
STARTCHAR 03C6
ENCODING 966
SWIDTH 600 0
DWIDTH 10 0
BBX 8 11 1 -3
BITMAP
6E
DB
93
93
93
93
D6
7C
10
10
10
ENDCHAR
STARTCHAR 03C7
ENCODING 967
SWIDTH 540 0
DWIDTH 9 0
BBX 9 11 0 -3
BITMAP
6180
6300
3600
1400
1C00
1C00
1C00
3600
2300
6100
C180
ENDCHAR
STARTCHAR 03C8
ENCODING 968
SWIDTH 660 0
DWIDTH 11 0
BBX 9 11 1 -3
BITMAP
C880
C880
C880
C880
C980
C980
6B00
3E00
0800
0800
0800
ENDCHAR
STARTCHAR 03C9
ENCODING 969
SWIDTH 780 0
DWIDTH 13 0
BBX 11 8 1 0
BITMAP
40C0
C040
8460
8420
8420
8420
CE60
7FC0
ENDCHAR
STARTCHAR 0401
ENCODING 1025
SWIDTH 540 0
DWIDTH 9 0
BBX 7 14 1 0
BITMAP
66
00
FE
C0
C0
C0
C0
FE
C0
C0
C0
C0
C0
FE
ENDCHAR
STARTCHAR 0410
ENCODING 1040
SWIDTH 600 0
DWIDTH 10 0
BBX 10 12 0 0
BITMAP
0C00
0C00
1E00
1200
1300
3300
2100
3F80
6180
4080
40C0
C0C0
ENDCHAR
STARTCHAR 0411
ENCODING 1041
SWIDTH 600 0
DWIDTH 10 0
BBX 8 12 1 0
BITMAP
FE
C0
C0
C0
C0
FC
C7
C3
C1
C1
C3
FE
ENDCHAR
STARTCHAR 0412
ENCODING 1042
SWIDTH 600 0
DWIDTH 10 0
BBX 8 12 1 0
BITMAP
FC
C6
C3
C3
C2
FC
C6
C3
C1
C1
C3
FE
ENDCHAR
STARTCHAR 0413
ENCODING 1043
SWIDTH 480 0
DWIDTH 8 0
BBX 7 12 1 0
BITMAP
FE
C0
C0
C0
C0
C0
C0
C0
C0
C0
C0
C0
ENDCHAR
STARTCHAR 0414
ENCODING 1044
SWIDTH 660 0
DWIDTH 11 0
BBX 11 14 0 -2
BITMAP
1FC0
10C0
10C0
10C0
10C0
10C0
10C0
30C0
30C0
30C0
20C0
FFE0
C060
C060
ENDCHAR
STARTCHAR 0415
ENCODING 1045
SWIDTH 540 0
DWIDTH 9 0
BBX 7 12 1 0
BITMAP
FE
C0
C0
C0
C0
FE
C0
C0
C0
C0
C0
FE
ENDCHAR
STARTCHAR 0416
ENCODING 1046
SWIDTH 840 0
DWIDTH 14 0
BBX 14 12 0 0
BITMAP
6318
2330
3320
1B60
0FC0
0780
0FC0
1B40
1360
3330
6318
C30C
ENDCHAR
STARTCHAR 0417
ENCODING 1047
SWIDTH 540 0
DWIDTH 9 0
BBX 7 12 1 0
BITMAP
7C
C6
82
02
06
3C
0E
02
02
02
C6
7C
ENDCHAR
STARTCHAR 0418
ENCODING 1048
SWIDTH 660 0
DWIDTH 11 0
BBX 9 12 1 0
BITMAP
C180
C380
C380
C780
C580
CD80
C980
D980
D180
F180
E180
E180
ENDCHAR
STARTCHAR 0419
ENCODING 1049
SWIDTH 720 0
DWIDTH 12 0
BBX 9 14 1 0
BITMAP
3300
1C00
C180
C380
C380
C780
C580
CD80
C980
D980
D180
F180
E180
E180
ENDCHAR
STARTCHAR 041A
ENCODING 1050
SWIDTH 600 0
DWIDTH 10 0
BBX 8 12 1 0
BITMAP
C3
C6
CC
C8
D0
E0
F0
D8
CC
C6
C3
C3
ENDCHAR
STARTCHAR 041B
ENCODING 1051
SWIDTH 720 0
DWIDTH 12 0
BBX 10 12 0 0
BITMAP
1FC0
1040
1040
1040
1040
1040
1040
1040
1040
1040
1040
F040
ENDCHAR
STARTCHAR 041C
ENCODING 1052
SWIDTH 840 0
DWIDTH 14 0
BBX 12 12 1 0
BITMAP
E070
E070
E070
F0F0
D0B0
D0B0
D9B0
C930
C930
CF30
C630
C630
ENDCHAR
STARTCHAR 041D
ENCODING 1053
SWIDTH 660 0
DWIDTH 11 0
BBX 9 12 1 0
BITMAP
C180
C180
C180
C180
C180
FF80
C180
C180
C180
C180
C180
C180
ENDCHAR
STARTCHAR 041E
ENCODING 1054
SWIDTH 720 0
DWIDTH 12 0
BBX 10 12 1 0
BITMAP
1F00
7180
40C0
C0C0
8040
8040
8040
8040
C040
C0C0
6180
3F00
ENDCHAR
STARTCHAR 041F
ENCODING 1055
SWIDTH 660 0
DWIDTH 11 0
BBX 9 12 1 0
BITMAP
FF80
C180
C180
C180
C180
C180
C180
C180
C180
C180
C180
C180
ENDCHAR
STARTCHAR 0420
ENCODING 1056
SWIDTH 540 0
DWIDTH 9 0
BBX 8 12 1 0
BITMAP
FC
C6
C3
C3
C3
C6
FC
C0
C0
C0
C0
C0
ENDCHAR
STARTCHAR 0421
ENCODING 1057
SWIDTH 660 0
DWIDTH 11 0
BBX 9 12 1 0
BITMAP
3E00
7180
C180
C080
8000
8000
8000
8000
C000
4000
6080
3F80
ENDCHAR
STARTCHAR 0422
ENCODING 1058
SWIDTH 540 0
DWIDTH 9 0
BBX 9 12 0 0
BITMAP
FF80
1800
1800
1800
1800
1800
1800
1800
1800
1800
1800
1800
ENDCHAR
STARTCHAR 0423
ENCODING 1059
SWIDTH 540 0
DWIDTH 9 0
BBX 9 12 0 0
BITMAP
C180
4100
6300
6200
3600
3600
1C00
1C00
0800
1800
1000
3000
ENDCHAR
STARTCHAR 0424
ENCODING 1060
SWIDTH 780 0
DWIDTH 13 0
BBX 11 12 1 0
BITMAP
0C00
0C00
3F80
6CC0
CC40
8C60
8C60
CC60
CCC0
7F80
0E00
0C00
ENDCHAR
STARTCHAR 0425
ENCODING 1061
SWIDTH 540 0
DWIDTH 9 0
BBX 9 12 0 0
BITMAP
C180
6300
2300
3600
1C00
0C00
1C00
1600
3600
6300
6100
C180
ENDCHAR
STARTCHAR 0426
ENCODING 1062
SWIDTH 660 0
DWIDTH 11 0
BBX 10 14 1 -2
BITMAP
C180
C180
C180
C180
C180
C180
C180
C180
C180
C180
C180
FFC0
00C0
00C0
ENDCHAR
STARTCHAR 0427
ENCODING 1063
SWIDTH 660 0
DWIDTH 11 0
BBX 8 12 1 0
BITMAP
C1
C1
C1
C1
C1
C1
C3
7D
39
01
01
01
ENDCHAR
STARTCHAR 0428
ENCODING 1064
SWIDTH 840 0
DWIDTH 14 0
BBX 12 12 1 0
BITMAP
C630
C630
C630
C630
C630
C630
C630
C630
C630
C630
C630
FFF0
ENDCHAR
STARTCHAR 0429
ENCODING 1065
SWIDTH 840 0
DWIDTH 14 0
BBX 13 14 1 -2
BITMAP
C630
C630
C630
C630
C630
C630
C630
C630
C630
C630
C630
FFF8
0018
0018
ENDCHAR
STARTCHAR 042A
ENCODING 1066
SWIDTH 720 0
DWIDTH 12 0
BBX 12 12 0 0
BITMAP
F800
0800
0800
0800
0800
0FC0
0860
0830
0830
0830
0860
0FC0
ENDCHAR
STARTCHAR 042B
ENCODING 1067
SWIDTH 840 0
DWIDTH 14 0
BBX 11 12 1 0
BITMAP
C020
C020
C020
C020
C020
FE20
C320
C320
C120
C120
C720
FE20
ENDCHAR
STARTCHAR 042C
ENCODING 1068
SWIDTH 600 0
DWIDTH 10 0
BBX 8 12 1 0
BITMAP
C0
C0
C0
C0
C0
FC
C7
C1
C1
C1
C7
FE
ENDCHAR
STARTCHAR 042D
ENCODING 1069
SWIDTH 660 0
DWIDTH 11 0
BBX 10 12 0 0
BITMAP
3E00
6300
4180
C0C0
00C0
1FC0
1FC0
00C0
00C0
0180
4300
7E00
ENDCHAR
STARTCHAR 042E
ENCODING 1070
SWIDTH 900 0
DWIDTH 15 0
BBX 12 12 2 0
BITMAP
87C0
8C60
9830
9030
9010
F010
B010
9010
9030
9830
8C60
87C0
ENDCHAR
STARTCHAR 042F
ENCODING 1071
SWIDTH 600 0
DWIDTH 10 0
BBX 7 12 1 0
BITMAP
3E
E2
C2
82
C2
E2
3A
62
C2
C2
C2
82
ENDCHAR
STARTCHAR 0430
ENCODING 1072
SWIDTH 540 0
DWIDTH 9 0
BBX 6 8 1 1
BITMAP
7C
C4
04
7C
C4
84
8C
FC
ENDCHAR
STARTCHAR 0431
ENCODING 1073
SWIDTH 540 0
DWIDTH 9 0
BBX 8 12 1 0
BITMAP
06
06
3C
60
FC
C6
82
83
83
82
C6
7C
ENDCHAR
STARTCHAR 0432
ENCODING 1074
SWIDTH 540 0
DWIDTH 9 0
BBX 7 8 1 0
BITMAP
FC
C4
C4
F8
C4
C6
C6
FC
ENDCHAR
STARTCHAR 0433
ENCODING 1075
SWIDTH 420 0
DWIDTH 7 0
BBX 6 8 1 0
BITMAP
FC
80
80
80
80
80
80
80
ENDCHAR
STARTCHAR 0434
ENCODING 1076
SWIDTH 540 0
DWIDTH 9 0
BBX 9 9 0 -1
BITMAP
3E00
3200
3200
3200
2200
2200
2200
FF80
C180
ENDCHAR
STARTCHAR 0435
ENCODING 1077
SWIDTH 540 0
DWIDTH 9 0
BBX 7 8 1 1
BITMAP
7C
C6
82
FE
80
C0
E0
7E
ENDCHAR
STARTCHAR 0436
ENCODING 1078
SWIDTH 600 0
DWIDTH 10 0
BBX 10 8 0 0
BITMAP
64C0
2580
3700
1E00
1F00
3580
6580
C4C0
ENDCHAR
STARTCHAR 0437
ENCODING 1079
SWIDTH 480 0
DWIDTH 8 0
BBX 7 8 0 0
BITMAP
7C
46
06
1C
0C
06
C6
7C
ENDCHAR
STARTCHAR 0438
ENCODING 1080
SWIDTH 480 0
DWIDTH 8 0
BBX 6 8 1 0
BITMAP
8C
8C
9C
94
B4
A4
C4
C4
ENDCHAR
STARTCHAR 0439
ENCODING 1081
SWIDTH 480 0
DWIDTH 8 0
BBX 6 11 1 0
BITMAP
44
7C
00
8C
8C
9C
94
B4
A4
C4
C4
ENDCHAR
STARTCHAR 043A
ENCODING 1082
SWIDTH 480 0
DWIDTH 8 0
BBX 6 8 1 0
BITMAP
8C
98
B0
C0
E0
B0
98
8C
ENDCHAR
STARTCHAR 043B
ENCODING 1083
SWIDTH 540 0
DWIDTH 9 0
BBX 8 8 0 0
BITMAP
3F
31
31
31
31
31
31
E1
ENDCHAR
STARTCHAR 043C
ENCODING 1084
SWIDTH 600 0
DWIDTH 10 0
BBX 9 8 1 0
BITMAP
C380
E380
A780
A580
B580
9D80
9980
9980
ENDCHAR
STARTCHAR 043D
ENCODING 1085
SWIDTH 480 0
DWIDTH 8 0
BBX 6 8 1 0
BITMAP
84
84
84
FC
84
84
84
84
ENDCHAR
STARTCHAR 043E
ENCODING 1086
SWIDTH 540 0
DWIDTH 9 0
BBX 8 8 1 0
BITMAP
7C
C6
83
83
83
83
C6
7C
ENDCHAR
STARTCHAR 043F
ENCODING 1087
SWIDTH 480 0
DWIDTH 8 0
BBX 6 8 1 0
BITMAP
FC
84
84
84
84
84
84
84
ENDCHAR
STARTCHAR 0440
ENCODING 1088
SWIDTH 540 0
DWIDTH 9 0
BBX 7 12 1 -3
BITMAP
10
FC
C6
C2
C2
C2
C2
E6
FC
C0
C0
C0
ENDCHAR
STARTCHAR 0441
ENCODING 1089
SWIDTH 540 0
DWIDTH 9 0
BBX 7 8 1 1
BITMAP
7E
C6
80
80
80
C0
E0
7E
ENDCHAR
STARTCHAR 0442
ENCODING 1090
SWIDTH 420 0
DWIDTH 7 0
BBX 7 8 0 0
BITMAP
FE
10
10
10
10
10
10
10
ENDCHAR
STARTCHAR 0443
ENCODING 1091
SWIDTH 480 0
DWIDTH 8 0
BBX 7 11 0 -3
BITMAP
C2
42
66
64
24
3C
18
18
18
10
30
ENDCHAR
STARTCHAR 0444
ENCODING 1092
SWIDTH 840 0
DWIDTH 14 0
BBX 12 16 1 -4
BITMAP
0600
0600
0600
0600
7FE0
C630
8610
8610
8610
8610
CF30
7FE0
0600
0600
0600
0600
ENDCHAR
STARTCHAR 0445
ENCODING 1093
SWIDTH 480 0
DWIDTH 8 0
BBX 8 8 0 0
BITMAP
66
24
3C
18
18
34
66
C3
ENDCHAR
STARTCHAR 0446
ENCODING 1094
SWIDTH 540 0
DWIDTH 9 0
BBX 8 9 1 -1
BITMAP
84
84
84
84
84
84
84
FF
03
ENDCHAR
STARTCHAR 0447
ENCODING 1095
SWIDTH 540 0
DWIDTH 9 0
BBX 7 8 1 0
BITMAP
86
86
86
C6
7E
36
06
06
ENDCHAR
STARTCHAR 0448
ENCODING 1096
SWIDTH 600 0
DWIDTH 10 0
BBX 9 8 1 0
BITMAP
8980
8980
8980
8980
8980
8980
8980
FF80
ENDCHAR
STARTCHAR 0449
ENCODING 1097
SWIDTH 660 0
DWIDTH 11 0
BBX 10 9 1 -1
BITMAP
8980
8980
8980
8980
8980
8980
8980
FFC0
00C0
ENDCHAR
STARTCHAR 044A
ENCODING 1098
SWIDTH 600 0
DWIDTH 10 0
BBX 9 8 0 0
BITMAP
F000
3000
3000
3F00
3180
3080
3180
3F00
ENDCHAR
STARTCHAR 044B
ENCODING 1099
SWIDTH 660 0
DWIDTH 11 0
BBX 9 8 1 0
BITMAP
8180
8180
8180
F980
8580
8780
8780
FD80
ENDCHAR
STARTCHAR 044C
ENCODING 1100
SWIDTH 480 0
DWIDTH 8 0
BBX 7 8 1 0
BITMAP
C0
C0
C0
F8
C6
C6
C6
FC
ENDCHAR
STARTCHAR 044D
ENCODING 1101
SWIDTH 540 0
DWIDTH 9 0
BBX 8 8 0 1
BITMAP
7E
C2
03
3F
03
03
06
7C
ENDCHAR
STARTCHAR 044E
ENCODING 1102
SWIDTH 720 0
DWIDTH 12 0
BBX 10 8 1 0
BITMAP
8F80
9880
90C0
F0C0
B0C0
90C0
9980
8F00
ENDCHAR
STARTCHAR 044F
ENCODING 1103
SWIDTH 480 0
DWIDTH 8 0
BBX 6 8 1 0
BITMAP
7C
84
84
FC
7C
C4
84
84
ENDCHAR
STARTCHAR 0451
ENCODING 1105
SWIDTH 540 0
DWIDTH 9 0
BBX 7 11 1 0
BITMAP
6C
6C
00
7C
C6
82
FE
80
C0
E0
7E
ENDCHAR
STARTCHAR 2015
ENCODING 8213
SWIDTH 960 0
DWIDTH 16 0
BBX 15 2 0 4
BITMAP
FFFE
FFFE
ENDCHAR
STARTCHAR 2018
ENCODING 8216
SWIDTH 240 0
DWIDTH 4 0
BBX 2 4 1 9
BITMAP
C0
80
C0
C0
ENDCHAR
STARTCHAR 2019
ENCODING 8217
SWIDTH 240 0
DWIDTH 4 0
BBX 2 4 1 9
BITMAP
C0
C0
40
80
ENDCHAR
STARTCHAR 201B
ENCODING 8219
SWIDTH 240 0
DWIDTH 4 0
BBX 2 4 1 9
BITMAP
C0
C0
80
C0
ENDCHAR
STARTCHAR 201C
ENCODING 8220
SWIDTH 420 0
DWIDTH 7 0
BBX 5 4 1 9
BITMAP
58
D0
D8
D8
ENDCHAR
STARTCHAR 201D
ENCODING 8221
SWIDTH 420 0
DWIDTH 7 0
BBX 5 4 1 9
BITMAP
D8
D8
58
10
ENDCHAR
STARTCHAR 201F
ENCODING 8223
SWIDTH 420 0
DWIDTH 7 0
BBX 5 4 1 9
BITMAP
F8
F8
90
D8
ENDCHAR
STARTCHAR 2020
ENCODING 8224
SWIDTH 960 0
DWIDTH 16 0
BBX 7 15 4 -2
BITMAP
10
10
10
10
FE
10
18
10
10
10
10
10
10
10
10
ENDCHAR
STARTCHAR 2021
ENCODING 8225
SWIDTH 960 0
DWIDTH 16 0
BBX 7 15 4 -2
BITMAP
10
10
10
56
FE
10
FE
10
10
10
10
10
10
10
10
ENDCHAR
STARTCHAR 2022
ENCODING 8226
SWIDTH 960 0
DWIDTH 16 0
BBX 4 4 6 3
BITMAP
E0
F0
F0
60
ENDCHAR
STARTCHAR 2025
ENCODING 8229
SWIDTH 600 0
DWIDTH 10 0
BBX 7 2 1 4
BITMAP
C6
C6
ENDCHAR
STARTCHAR 2026
ENCODING 8230
SWIDTH 840 0
DWIDTH 14 0
BBX 12 2 1 4
BITMAP
C630
C630
ENDCHAR
STARTCHAR 2030
ENCODING 8240
SWIDTH 960 0
DWIDTH 16 0
BBX 15 11 0 0
BITMAP
7100
5200
DA00
DA00
DDCE
D57A
5772
2B72
0B72
095A
11CE
ENDCHAR
STARTCHAR 2032
ENCODING 8242
SWIDTH 240 0
DWIDTH 4 0
BBX 4 4 0 8
BITMAP
30
60
40
C0
ENDCHAR
STARTCHAR 2033
ENCODING 8243
SWIDTH 420 0
DWIDTH 7 0
BBX 5 4 1 8
BITMAP
78
D0
B0
A0
ENDCHAR
STARTCHAR 2034
ENCODING 8244
SWIDTH 480 0
DWIDTH 8 0
BBX 6 4 1 8
BITMAP
5C
A8
D0
40
ENDCHAR
STARTCHAR 2039
ENCODING 8249
SWIDTH 960 0
DWIDTH 16 0
BBX 12 14 3 -1
BITMAP
0020
00C0
0100
0600
0800
3000
C000
4000
3000
0800
0600
0100
00C0
0030
ENDCHAR
STARTCHAR 203A
ENCODING 8250
SWIDTH 960 0
DWIDTH 16 0
BBX 11 14 1 -1
BITMAP
8000
6000
1800
0400
0300
0080
0060
0060
0080
0300
0400
1800
6000
8000
ENDCHAR
STARTCHAR 203B
ENCODING 8251
SWIDTH 960 0
DWIDTH 16 0
BBX 11 10 2 0
BITMAP
C660
66C0
3180
1B00
6E60
6E40
1B00
3180
66C0
4460
ENDCHAR
STARTCHAR 203C
ENCODING 8252
SWIDTH 960 0
DWIDTH 16 0
BBX 6 14 5 -2
BITMAP
8C
8C
8C
8C
8C
8C
8C
8C
88
88
00
00
8C
8C
ENDCHAR
STARTCHAR 2042
ENCODING 8258
SWIDTH 960 0
DWIDTH 16 0
BBX 13 13 1 -1
BITMAP
0200
0280
0780
0700
0A80
0200
0000
0000
5050
3020
F8F8
3050
0050
ENDCHAR
STARTCHAR 2074
ENCODING 8308
SWIDTH 420 0
DWIDTH 7 0
BBX 5 7 1 5
BITMAP
30
30
70
F0
F8
30
30
ENDCHAR
STARTCHAR 207A
ENCODING 8314
SWIDTH 480 0
DWIDTH 8 0
BBX 5 6 1 6
BITMAP
20
20
F8
F8
20
20
ENDCHAR
STARTCHAR 207B
ENCODING 8315
SWIDTH 480 0
DWIDTH 8 0
BBX 5 2 1 8
BITMAP
F8
F8
ENDCHAR
STARTCHAR 207C
ENCODING 8316
SWIDTH 480 0
DWIDTH 8 0
BBX 4 3 2 7
BITMAP
F0
F0
F0
ENDCHAR
STARTCHAR 207D
ENCODING 8317
SWIDTH 180 0
DWIDTH 3 0
BBX 2 8 1 5
BITMAP
40
C0
80
80
80
80
C0
40
ENDCHAR
STARTCHAR 207E
ENCODING 8318
SWIDTH 180 0
DWIDTH 3 0
BBX 2 8 0 5
BITMAP
80
40
40
40
40
40
40
80
ENDCHAR
STARTCHAR 207F
ENCODING 8319
SWIDTH 420 0
DWIDTH 7 0
BBX 5 7 1 5
BITMAP
F0
C8
88
88
88
88
88
ENDCHAR
STARTCHAR 2081
ENCODING 8321
SWIDTH 360 0
DWIDTH 6 0
BBX 2 7 2 -2
BITMAP
C0
C0
40
40
40
40
40
ENDCHAR
STARTCHAR 2082
ENCODING 8322
SWIDTH 360 0
DWIDTH 6 0
BBX 4 7 1 -2
BITMAP
70
90
10
30
20
40
F0
ENDCHAR
STARTCHAR 2083
ENCODING 8323
SWIDTH 360 0
DWIDTH 6 0
BBX 4 7 1 -2
BITMAP
F0
10
30
30
10
D0
60
ENDCHAR
STARTCHAR 2084
ENCODING 8324
SWIDTH 420 0
DWIDTH 7 0
BBX 5 7 1 -2
BITMAP
30
70
70
B0
F8
30
30
ENDCHAR
STARTCHAR 20A9
ENCODING 8361
SWIDTH 960 0
DWIDTH 16 0
BBX 16 11 0 0
BITMAP
218C
2188
2388
1288
FFFF
1248
1258
1450
0C30
0C30
0C30
ENDCHAR
STARTCHAR 20AC
ENCODING 8364
SWIDTH 960 0
DWIDTH 16 0
BBX 11 12 2 0
BITMAP
0780
1CC0
1060
3000
FF80
2000
2000
FF80
3000
1000
1C20
07C0
ENDCHAR
STARTCHAR 2103
ENCODING 8451
SWIDTH 840 0
DWIDTH 14 0
BBX 14 13 0 0
BITMAP
6000
91F0
9318
660C
0400
0C00
0C00
0C00
0C00
0400
0600
0308
01F8
ENDCHAR
STARTCHAR 2109
ENCODING 8457
SWIDTH 960 0
DWIDTH 16 0
BBX 12 13 1 -1
BITMAP
7000
97F0
F600
6600
0600
0600
07F0
0600
0600
0600
0600
0600
0600
ENDCHAR
STARTCHAR 2113
ENCODING 8467
SWIDTH 960 0
DWIDTH 16 0
BBX 7 13 4 -1
BITMAP
18
2C
64
64
44
44
44
4C
48
78
30
F6
1C
ENDCHAR
STARTCHAR 2116
ENCODING 8470
SWIDTH 960 0
DWIDTH 16 0
BBX 14 12 1 0
BITMAP
C600
C600
E600
A600
A678
B6CC
9684
9E84
8ECC
8E78
8E00
86FC
ENDCHAR
STARTCHAR 2121
ENCODING 8481
SWIDTH 960 0
DWIDTH 16 0
BBX 15 12 0 0
BITMAP
FF06
1806
1806
1806
19F6
1B16
1A16
1BF6
1A06
1A06
1B06
19F6
ENDCHAR
STARTCHAR 2122
ENCODING 8482
SWIDTH 960 0
DWIDTH 16 0
BBX 13 7 1 5
BITMAP
FF18
1318
13B8
12A8
12A8
1248
1248
ENDCHAR
STARTCHAR 2126
ENCODING 8486
SWIDTH 960 0
DWIDTH 16 0
BBX 9 12 3 0
BITMAP
1C00
7F00
4180
8080
8080
8080
8080
C080
4100
3600
1400
7780
ENDCHAR
STARTCHAR 212B
ENCODING 8491
SWIDTH 600 0
DWIDTH 10 0
BBX 10 13 0 1
BITMAP
1E00
1200
1E00
1E00
1200
1300
3300
2100
3F80
6180
4080
40C0
C0C0
ENDCHAR
STARTCHAR 2153
ENCODING 8531
SWIDTH 960 0
DWIDTH 16 0
BBX 12 14 1 -2
BITMAP
3010
7020
3060
30C0
3180
3300
3640
04F0
0810
1070
3030
6010
C0B0
0060
ENDCHAR
STARTCHAR 2154
ENCODING 8532
SWIDTH 960 0
DWIDTH 16 0
BBX 12 14 1 -2
BITMAP
F010
9020
1060
30C0
6180
C300
F640
04F0
0810
1070
3030
6010
C0B0
0060
ENDCHAR
STARTCHAR 215B
ENCODING 8539
SWIDTH 960 0
DWIDTH 16 0
BBX 12 14 1 -2
BITMAP
3010
7020
3060
30C0
3180
3300
3640
04F0
0890
10F0
30F0
6090
C0B0
0060
ENDCHAR
STARTCHAR 215C
ENCODING 8540
SWIDTH 960 0
DWIDTH 16 0
BBX 12 14 1 -2
BITMAP
7010
9020
1060
30C0
1180
9300
7640
04F0
0890
10F0
30F0
6090
C0B0
0060
ENDCHAR
STARTCHAR 215D
ENCODING 8541
SWIDTH 960 0
DWIDTH 16 0
BBX 12 14 1 -2
BITMAP
F010
C020
E060
F0C0
1980
9300
7640
04F0
0890
10F0
30F0
6090
C0B0
0060
ENDCHAR
STARTCHAR 215E
ENCODING 8542
SWIDTH 960 0
DWIDTH 16 0
BBX 12 14 1 -2
BITMAP
F810
1020
1060
20C0
2180
6300
4640
04F0
0890
10F0
30F0
6090
C0B0
0060
ENDCHAR
STARTCHAR 2160
ENCODING 8544
SWIDTH 960 0
DWIDTH 16 0
BBX 1 12 7 0
BITMAP
80
80
80
80
80
80
80
80
80
80
80
80
ENDCHAR
STARTCHAR 2161
ENCODING 8545
SWIDTH 960 0
DWIDTH 16 0
BBX 6 12 5 0
BITMAP
8C
8C
8C
8C
8C
8C
8C
8C
8C
8C
8C
8C
ENDCHAR
STARTCHAR 2162
ENCODING 8546
SWIDTH 960 0
DWIDTH 16 0
BBX 7 12 4 0
BITMAP
92
92
92
92
92
92
92
92
92
92
92
92
ENDCHAR
STARTCHAR 2163
ENCODING 8547
SWIDTH 960 0
DWIDTH 16 0
BBX 10 12 3 0
BITMAP
A040
A0C0
B080
B080
9180
9180
9900
8900
8B00
8E00
8600
8600
ENDCHAR
STARTCHAR 2164
ENCODING 8548
SWIDTH 960 0
DWIDTH 16 0
BBX 10 12 3 0
BITMAP
80C0
8080
C080
4180
6100
6300
2300
3200
1600
1400
1C00
0C00
ENDCHAR
STARTCHAR 2165
ENCODING 8549
SWIDTH 960 0
DWIDTH 16 0
BBX 11 12 2 0
BITMAP
C1E0
C160
4160
4360
6260
2260
2660
3460
3460
1460
1C60
1860
ENDCHAR
STARTCHAR 2166
ENCODING 8550
SWIDTH 960 0
DWIDTH 16 0
BBX 12 12 1 0
BITMAP
C150
4350
4350
6250
6250
2650
2450
3450
1450
1C50
1850
1850
ENDCHAR
STARTCHAR 2167
ENCODING 8551
SWIDTH 960 0
DWIDTH 16 0
BBX 13 12 1 0
BITMAP
83A8
C7A8
C7A8
45A8
45A8
4DA8
6DA8
29A8
29A8
29A8
39A8
31A8
ENDCHAR
STARTCHAR 2168
ENCODING 8552
SWIDTH 960 0
DWIDTH 16 0
BBX 11 12 2 0
BITMAP
F060
D840
C8C0
CD80
C700
C300
C700
C580
CC80
C8C0
D840
F060
ENDCHAR
STARTCHAR 2169
ENCODING 8553
SWIDTH 960 0
DWIDTH 16 0
BBX 9 12 3 0
BITMAP
C180
6100
2300
3600
1C00
0C00
1C00
1600
3600
6300
4100
C180
ENDCHAR
STARTCHAR 2170
ENCODING 8560
SWIDTH 960 0
DWIDTH 16 0
BBX 1 12 7 0
BITMAP
80
80
00
80
80
80
80
80
80
80
80
80
ENDCHAR
STARTCHAR 2171
ENCODING 8561
SWIDTH 960 0
DWIDTH 16 0
BBX 6 12 5 0
BITMAP
8C
8C
00
8C
8C
8C
8C
8C
8C
8C
8C
8C
ENDCHAR
STARTCHAR 2172
ENCODING 8562
SWIDTH 960 0
DWIDTH 16 0
BBX 8 12 4 0
BITMAP
93
93
00
92
92
92
92
92
92
92
92
92
ENDCHAR
STARTCHAR 2173
ENCODING 8563
SWIDTH 960 0
DWIDTH 16 0
BBX 10 12 3 0
BITMAP
8000
8000
0000
A040
B0C0
9080
9180
9980
8900
8F00
8600
8600
ENDCHAR
STARTCHAR 2174
ENCODING 8564
SWIDTH 960 0
DWIDTH 16 0
BBX 9 9 3 0
BITMAP
C180
4100
6100
2300
3200
3600
1400
1C00
0C00
ENDCHAR
STARTCHAR 2175
ENCODING 8565
SWIDTH 960 0
DWIDTH 16 0
BBX 11 12 2 0
BITMAP
0060
0060
0000
C1E0
C160
4360
6260
2660
3660
3460
1C60
1860
ENDCHAR
STARTCHAR 2176
ENCODING 8566
SWIDTH 960 0
DWIDTH 16 0
BBX 12 12 1 0
BITMAP
0050
0050
0000
C150
4350
6250
6250
2650
3450
1C50
1C50
1850
ENDCHAR
STARTCHAR 2177
ENCODING 8567
SWIDTH 960 0
DWIDTH 16 0
BBX 13 12 1 0
BITMAP
01A8
01A8
0000
87A8
87A8
C5A8
45A8
4DA8
69A8
29A8
39A8
31A8
ENDCHAR
STARTCHAR 2178
ENCODING 8568
SWIDTH 960 0
DWIDTH 16 0
BBX 10 12 3 0
BITMAP
C000
C000
0000
F0C0
D180
C900
CE00
C600
CE00
CB00
D980
F0C0
ENDCHAR
STARTCHAR 2179
ENCODING 8569
SWIDTH 960 0
DWIDTH 16 0
BBX 7 9 4 0
BITMAP
82
46
6C
38
18
38
6C
46
C2
ENDCHAR
STARTCHAR 2190
ENCODING 8592
SWIDTH 960 0
DWIDTH 16 0
BBX 16 4 0 3
BITMAP
2000
FFFF
6000
2000
ENDCHAR
STARTCHAR 2191
ENCODING 8593
SWIDTH 960 0
DWIDTH 16 0
BBX 5 16 5 -3
BITMAP
20
70
78
A0
20
20
20
20
20
20
20
20
20
20
20
20
ENDCHAR
STARTCHAR 2192
ENCODING 8594
SWIDTH 960 0
DWIDTH 16 0
BBX 15 4 0 3
BITMAP
000C
FFFE
0006
0008
ENDCHAR
STARTCHAR 2193
ENCODING 8595
SWIDTH 960 0
DWIDTH 16 0
BBX 5 16 5 -3
BITMAP
20
20
20
20
20
20
20
20
20
20
20
20
A8
70
30
20
ENDCHAR
STARTCHAR 2194
ENCODING 8596
SWIDTH 960 0
DWIDTH 16 0
BBX 15 4 0 3
BITMAP
200C
FFFE
6006
2008
ENDCHAR
STARTCHAR 2195
ENCODING 8597
SWIDTH 960 0
DWIDTH 16 0
BBX 5 16 5 -3
BITMAP
20
30
70
28
20
20
20
20
20
20
20
20
A8
70
30
20
ENDCHAR
STARTCHAR 2196
ENCODING 8598
SWIDTH 960 0
DWIDTH 16 0
BBX 15 16 0 -3
BITMAP
8000
F000
6000
5000
0800
0400
0200
0100
0080
0040
0060
0030
0018
000C
0006
0002
ENDCHAR
STARTCHAR 2197
ENCODING 8599
SWIDTH 960 0
DWIDTH 16 0
BBX 15 14 0 -2
BITMAP
001E
000E
001A
0030
0060
00C0
0180
0300
0600
0C00
1800
3000
6000
C000
ENDCHAR
STARTCHAR 2198
ENCODING 8600
SWIDTH 960 0
DWIDTH 16 0
BBX 14 14 1 -1
BITMAP
8000
4000
2000
1000
0800
0400
0200
0100
0080
0040
0024
0014
001C
003C
ENDCHAR
STARTCHAR 2199
ENCODING 8601
SWIDTH 960 0
DWIDTH 16 0
BBX 15 15 0 -2
BITMAP
0002
0006
000C
0018
0030
0060
00C0
0180
0300
0600
0C00
9800
7000
E000
F800
ENDCHAR
STARTCHAR 21B0
ENCODING 8624
SWIDTH 960 0
DWIDTH 16 0
BBX 13 12 0 -1
BITMAP
4000
FFF8
4008
0008
0008
0008
0008
0008
0008
0008
0008
0008
ENDCHAR
STARTCHAR 21B1
ENCODING 8625
SWIDTH 960 0
DWIDTH 16 0
BBX 12 12 3 -2
BITMAP
0020
0020
FFF0
8020
8000
8000
8000
8000
8000
8000
8000
8000
ENDCHAR
STARTCHAR 21B2
ENCODING 8626
SWIDTH 960 0
DWIDTH 16 0
BBX 13 12 0 0
BITMAP
0008
0008
0008
0008
0008
0008
0008
0008
0008
4008
FFF8
4000
ENDCHAR
STARTCHAR 21B3
ENCODING 8627
SWIDTH 960 0
DWIDTH 16 0
BBX 12 12 3 0
BITMAP
8000
8000
8000
8000
8000
8000
8000
8000
8000
8020
FFF0
0020
ENDCHAR
STARTCHAR 21B4
ENCODING 8628
SWIDTH 960 0
DWIDTH 16 0
BBX 13 13 0 -2
BITMAP
FFF0
0010
0010
0010
0010
0010
0010
0010
0010
0010
0010
0078
0030
ENDCHAR
STARTCHAR 21BC
ENCODING 8636
SWIDTH 960 0
DWIDTH 16 0
BBX 13 3 1 5
BITMAP
1000
6000
FFF8
ENDCHAR
STARTCHAR 21C0
ENCODING 8640
SWIDTH 960 0
DWIDTH 16 0
BBX 14 3 1 5
BITMAP
0060
0030
FFFC
ENDCHAR
STARTCHAR 21C4
ENCODING 8644
SWIDTH 960 0
DWIDTH 16 0
BBX 15 10 0 0
BITMAP
0020
0018
FFFE
0010
0000
0000
3800
FFFE
1800
0400
ENDCHAR
STARTCHAR 21C5
ENCODING 8645
SWIDTH 960 0
DWIDTH 16 0
BBX 9 15 3 -3
BITMAP
0100
2100
6100
7100
B100
2100
2100
2100
2100
2100
2500
2380
2300
2300
2100
ENDCHAR
STARTCHAR 21CD
ENCODING 8653
SWIDTH 960 0
DWIDTH 16 0
BBX 15 9 0 0
BITMAP
0040
1040
2080
7FFE
8080
8080
7FFE
2100
1100
ENDCHAR
STARTCHAR 21CF
ENCODING 8655
SWIDTH 960 0
DWIDTH 16 0
BBX 14 9 1 1
BITMAP
0220
0410
FFE8
0404
0404
FBF8
0810
0820
0800
ENDCHAR
STARTCHAR 21D0
ENCODING 8656
SWIDTH 960 0
DWIDTH 16 0
BBX 15 8 0 1
BITMAP
1000
2000
7FFE
8000
8000
7FFE
2000
1000
ENDCHAR
STARTCHAR 21D1
ENCODING 8657
SWIDTH 960 0
DWIDTH 16 0
BBX 13 14 1 -1
BITMAP
0880
18C0
28A0
4890
8888
8888
0880
0880
0880
0880
0880
0880
0880
0080
ENDCHAR
STARTCHAR 21D2
ENCODING 8658
SWIDTH 960 0
DWIDTH 16 0
BBX 15 8 0 1
BITMAP
0010
0018
FFFC
0006
0006
FFFC
0018
0030
ENDCHAR
STARTCHAR 21D3
ENCODING 8659
SWIDTH 960 0
DWIDTH 16 0
BBX 14 15 1 -3
BITMAP
0080
0880
0880
0880
0880
0880
0880
0880
0884
8888
4890
48A0
28A0
18C0
0880
ENDCHAR
STARTCHAR 21D4
ENCODING 8660
SWIDTH 960 0
DWIDTH 16 0
BBX 15 9 0 0
BITMAP
0800
1810
3008
7FFC
C006
C006
7FFC
3018
1830
ENDCHAR
STARTCHAR 21E0
ENCODING 8672
SWIDTH 960 0
DWIDTH 16 0
BBX 14 6 1 3
BITMAP
2000
6000
ECCC
ECCC
6000
2000
ENDCHAR
STARTCHAR 21E1
ENCODING 8673
SWIDTH 960 0
DWIDTH 16 0
BBX 6 14 5 -2
BITMAP
30
78
FC
00
30
30
00
00
30
30
00
00
30
30
ENDCHAR
STARTCHAR 21E2
ENCODING 8674
SWIDTH 960 0
DWIDTH 16 0
BBX 14 6 1 3
BITMAP
0010
0018
C99C
C998
0010
0010
ENDCHAR
STARTCHAR 21E3
ENCODING 8675
SWIDTH 960 0
DWIDTH 16 0
BBX 6 14 5 -2
BITMAP
30
30
00
20
30
00
00
30
30
00
00
FC
70
20
ENDCHAR
STARTCHAR 21E6
ENCODING 8678
SWIDTH 960 0
DWIDTH 16 0
BBX 14 12 1 -1
BITMAP
0400
0C00
1400
27FC
4004
8004
8004
4004
27FC
1400
0C00
0400
ENDCHAR
STARTCHAR 21E7
ENCODING 8679
SWIDTH 960 0
DWIDTH 16 0
BBX 12 14 2 -2
BITMAP
0600
0900
1080
2040
4020
F0F0
1080
1080
1080
1080
1080
1080
1080
1F80
ENDCHAR
STARTCHAR 21E8
ENCODING 8680
SWIDTH 960 0
DWIDTH 16 0
BBX 14 11 1 -1
BITMAP
0080
0140
0120
FF10
8008
8004
8008
8010
FF20
0140
0180
ENDCHAR
STARTCHAR 21E9
ENCODING 8681
SWIDTH 960 0
DWIDTH 16 0
BBX 11 14 2 -2
BITMAP
1F80
1080
1080
1080
1080
1080
1080
1080
E060
4040
2080
1100
0A00
0400
ENDCHAR
STARTCHAR 2200
ENCODING 8704
SWIDTH 600 0
DWIDTH 10 0
BBX 10 12 0 0
BITMAP
80C0
C080
4180
4180
7F00
2300
2300
3200
1600
1600
1C00
0C00
ENDCHAR
STARTCHAR 2202
ENCODING 8706
SWIDTH 420 0
DWIDTH 7 0
BBX 5 7 1 1
BITMAP
78
88
38
C8
98
F0
40
ENDCHAR
STARTCHAR 2203
ENCODING 8707
SWIDTH 540 0
DWIDTH 9 0
BBX 6 12 1 0
BITMAP
FC
04
04
04
04
04
FC
04
04
04
04
FC
ENDCHAR
STARTCHAR 2206
ENCODING 8710
SWIDTH 960 0
DWIDTH 16 0
BBX 11 11 2 0
BITMAP
0600
0A00
0A00
1300
1100
2180
2080
20C0
4040
4060
FFE0
ENDCHAR
STARTCHAR 2207
ENCODING 8711
SWIDTH 960 0
DWIDTH 16 0
BBX 11 10 2 0
BITMAP
FFE0
4020
4040
2080
2080
1100
0900
0A00
0400
0400
ENDCHAR
STARTCHAR 2208
ENCODING 8712
SWIDTH 960 0
DWIDTH 16 0
BBX 11 10 2 0
BITMAP
1FE0
7FE0
C000
8000
FFE0
FFE0
8000
C000
7FE0
1FE0
ENDCHAR
STARTCHAR 2209
ENCODING 8713
SWIDTH 960 0
DWIDTH 16 0
BBX 10 11 3 0
BITMAP
0200
0200
3D80
4400
8400
FFC0
8800
8800
4800
3FC0
1000
ENDCHAR
STARTCHAR 220B
ENCODING 8715
SWIDTH 960 0
DWIDTH 16 0
BBX 11 10 2 0
BITMAP
FF00
FFC0
0060
0020
FFE0
FFE0
0020
0060
FFC0
FF00
ENDCHAR
STARTCHAR 220C
ENCODING 8716
SWIDTH 960 0
DWIDTH 16 0
BBX 10 10 3 1
BITMAP
0400
FF00
0880
0840
FFC0
0840
1080
1100
FE00
1000
ENDCHAR
STARTCHAR 220F
ENCODING 8719
SWIDTH 660 0
DWIDTH 11 0
BBX 9 12 1 0
BITMAP
FF80
C180
C180
C180
C180
C180
C180
C180
C180
C180
C180
C180
ENDCHAR
STARTCHAR 2211
ENCODING 8721
SWIDTH 480 0
DWIDTH 8 0
BBX 7 12 0 0
BITMAP
FE
40
60
30
18
0C
0C
18
30
60
40
FE
ENDCHAR
STARTCHAR 2213
ENCODING 8723
SWIDTH 960 0
DWIDTH 16 0
BBX 10 11 3 0
BITMAP
FFC0
0000
0800
0800
0800
0800
FFC0
0800
0800
0800
0800
ENDCHAR
STARTCHAR 221A
ENCODING 8730
SWIDTH 960 0
DWIDTH 16 0
BBX 14 15 2 -3
BITMAP
007C
0040
00C0
0080
0080
0100
0100
4100
4200
E200
2400
3400
1400
1800
0800
ENDCHAR
STARTCHAR 221D
ENCODING 8733
SWIDTH 960 0
DWIDTH 16 0
BBX 11 7 2 2
BITMAP
30C0
7DE0
C700
8200
8600
CF20
79E0
ENDCHAR
STARTCHAR 221E
ENCODING 8734
SWIDTH 960 0
DWIDTH 16 0
BBX 11 6 2 2
BITMAP
79C0
CE20
8620
8620
4B60
3180
ENDCHAR
STARTCHAR 221F
ENCODING 8735
SWIDTH 960 0
DWIDTH 16 0
BBX 9 9 3 1
BITMAP
8000
8000
8000
8000
8000
8000
8000
8000
FF80
ENDCHAR
STARTCHAR 2220
ENCODING 8736
SWIDTH 960 0
DWIDTH 16 0
BBX 11 10 2 0
BITMAP
0040
0080
0100
0200
0400
0800
1000
2000
4000
FFE0
ENDCHAR
STARTCHAR 2222
ENCODING 8738
SWIDTH 960 0
DWIDTH 16 0
BBX 9 10 3 0
BITMAP
0400
0280
0700
1900
E100
6100
1900
0700
0280
0400
ENDCHAR
STARTCHAR 2225
ENCODING 8741
SWIDTH 960 0
DWIDTH 16 0
BBX 5 14 5 -2
BITMAP
C8
C8
C8
C8
C8
C8
C8
C8
C8
C8
C8
C8
C8
C8
ENDCHAR
STARTCHAR 2226
ENCODING 8742
SWIDTH 960 0
DWIDTH 16 0
BBX 10 11 3 0
BITMAP
1200
1200
1240
1380
1600
1A00
3200
D200
1200
1200
1200
ENDCHAR
STARTCHAR 2227
ENCODING 8743
SWIDTH 960 0
DWIDTH 16 0
BBX 11 10 2 0
BITMAP
0400
0E00
0A00
1900
1100
3080
2080
60C0
4040
C060
ENDCHAR
STARTCHAR 2228
ENCODING 8744
SWIDTH 960 0
DWIDTH 16 0
BBX 10 11 3 0
BITMAP
8000
80C0
C080
4180
6100
2300
3200
1600
1C00
0C00
0800
ENDCHAR
STARTCHAR 2229
ENCODING 8745
SWIDTH 960 0
DWIDTH 16 0
BBX 9 12 3 -1
BITMAP
3E00
6300
4180
C080
8080
8080
8080
8080
8080
8080
8080
8080
ENDCHAR
STARTCHAR 222A
ENCODING 8746
SWIDTH 960 0
DWIDTH 16 0
BBX 9 12 3 -1
BITMAP
8080
8080
8080
8080
8080
8080
8080
8080
C080
4180
7700
1C00
ENDCHAR
STARTCHAR 222B
ENCODING 8747
SWIDTH 960 0
DWIDTH 16 0
BBX 6 13 4 -1
BITMAP
04
0C
10
10
10
10
10
10
10
10
30
20
E0
ENDCHAR
STARTCHAR 222C
ENCODING 8748
SWIDTH 960 0
DWIDTH 16 0
BBX 11 13 2 -1
BITMAP
0440
0CE0
1080
1180
1180
1100
1100
1100
1100
3100
3100
2700
E600
ENDCHAR
STARTCHAR 222E
ENCODING 8750
SWIDTH 960 0
DWIDTH 16 0
BBX 7 13 4 -2
BITMAP
06
0A
08
38
5C
5A
5A
56
3C
30
30
E0
40
ENDCHAR
STARTCHAR 2234
ENCODING 8756
SWIDTH 960 0
DWIDTH 16 0
BBX 10 8 3 1
BITMAP
1C00
0800
0000
0000
0000
0000
C080
C1C0
ENDCHAR
STARTCHAR 2235
ENCODING 8757
SWIDTH 960 0
DWIDTH 16 0
BBX 11 9 2 1
BITMAP
4040
E0E0
4040
0000
0000
0000
0000
0600
0E00
ENDCHAR
STARTCHAR 223C
ENCODING 8764
SWIDTH 960 0
DWIDTH 16 0
BBX 12 5 2 3
BITMAP
3000
FC30
8620
83E0
0180
ENDCHAR
STARTCHAR 223D
ENCODING 8765
SWIDTH 960 0
DWIDTH 16 0
BBX 13 7 1 2
BITMAP
1860
79F0
C118
C208
C608
6498
38F0
ENDCHAR
STARTCHAR 2243
ENCODING 8771
SWIDTH 960 0
DWIDTH 16 0
BBX 10 6 3 2
BITMAP
2000
DC40
0380
0000
0000
FFC0
ENDCHAR
STARTCHAR 2245
ENCODING 8773
SWIDTH 960 0
DWIDTH 16 0
BBX 10 8 3 0
BITMAP
7000
8EC0
0100
0000
0000
FFC0
0000
FFC0
ENDCHAR
STARTCHAR 2248
ENCODING 8776
SWIDTH 960 0
DWIDTH 16 0
BBX 10 7 3 1
BITMAP
7000
8CC0
0300
0000
0000
F840
0780
ENDCHAR
STARTCHAR 2250
ENCODING 8784
SWIDTH 960 0
DWIDTH 16 0
BBX 11 8 2 1
BITMAP
0400
0600
0000
0000
FFE0
0000
0000
FFE0
ENDCHAR
STARTCHAR 2251
ENCODING 8785
SWIDTH 960 0
DWIDTH 16 0
BBX 12 10 2 0
BITMAP
0600
0600
0000
FFF0
0000
0000
FFF0
0000
0600
0600
ENDCHAR
STARTCHAR 2252
ENCODING 8786
SWIDTH 960 0
DWIDTH 16 0
BBX 12 10 2 0
BITMAP
6000
2000
0000
FFF0
0000
0000
FFF0
0000
00C0
00C0
ENDCHAR
STARTCHAR 2253
ENCODING 8787
SWIDTH 960 0
DWIDTH 16 0
BBX 12 10 2 0
BITMAP
00C0
00C0
0000
FFF0
0000
0000
FFF0
0000
3000
2000
ENDCHAR
STARTCHAR 225A
ENCODING 8794
SWIDTH 960 0
DWIDTH 16 0
BBX 9 10 3 0
BITMAP
4100
2100
2200
1200
1400
0C00
0800
0000
FF80
FF80
ENDCHAR
STARTCHAR 2260
ENCODING 8800
SWIDTH 960 0
DWIDTH 16 0
BBX 10 10 3 0
BITMAP
0600
0400
0400
FFC0
0800
0800
FFC0
1000
3000
3000
ENDCHAR
STARTCHAR 2261
ENCODING 8801
SWIDTH 960 0
DWIDTH 16 0
BBX 12 6 2 2
BITMAP
FFF0
0000
FFF0
0000
0000
FFF0
ENDCHAR
STARTCHAR 2262
ENCODING 8802
SWIDTH 960 0
DWIDTH 16 0
BBX 11 9 2 0
BITMAP
0100
0100
FFE0
0200
0400
7FE0
0800
FFE0
1000
ENDCHAR
STARTCHAR 2264
ENCODING 8804
SWIDTH 960 0
DWIDTH 16 0
BBX 11 11 2 0
BITMAP
00E0
03C0
0E00
7800
E000
3C00
0700
01E0
0060
FFE0
FFE0
ENDCHAR
STARTCHAR 2265
ENCODING 8805
SWIDTH 960 0
DWIDTH 16 0
BBX 12 11 2 0
BITMAP
6000
3800
0F00
01C0
00E0
0380
1E00
7000
4000
FFF0
FFF0
ENDCHAR
STARTCHAR 2266
ENCODING 8806
SWIDTH 960 0
DWIDTH 16 0
BBX 10 11 3 0
BITMAP
00C0
0700
1800
E000
C000
3800
0700
0080
FFC0
0000
FFC0
ENDCHAR
STARTCHAR 2267
ENCODING 8807
SWIDTH 960 0
DWIDTH 16 0
BBX 10 11 3 0
BITMAP
C000
3000
0E00
0180
01C0
0E00
7000
8000
FFC0
0000
FFC0
ENDCHAR
STARTCHAR 226A
ENCODING 8810
SWIDTH 960 0
DWIDTH 16 0
BBX 12 11 2 0
BITMAP
0100
0360
0CC0
1B00
6600
D800
CC00
3600
1980
04C0
0330
ENDCHAR
STARTCHAR 226B
ENCODING 8811
SWIDTH 960 0
DWIDTH 16 0
BBX 12 11 1 0
BITMAP
0800
6C00
3300
0D80
0660
01B0
0330
0640
1980
3300
CC00
ENDCHAR
STARTCHAR 226E
ENCODING 8814
SWIDTH 960 0
DWIDTH 16 0
BBX 9 11 3 0
BITMAP
0200
0280
0300
0C00
3400
C400
4800
3800
0C00
1300
1080
ENDCHAR
STARTCHAR 226F
ENCODING 8815
SWIDTH 960 0
DWIDTH 16 0
BBX 9 10 4 1
BITMAP
8800
6800
1800
1600
1180
1100
2600
3800
6000
A000
ENDCHAR
STARTCHAR 2270
ENCODING 8816
SWIDTH 960 0
DWIDTH 16 0
BBX 10 13 3 -2
BITMAP
0200
02C0
0700
1C00
E400
6800
1800
0F00
08C0
FFC0
1000
FFC0
1000
ENDCHAR
STARTCHAR 2271
ENCODING 8817
SWIDTH 960 0
DWIDTH 16 0
BBX 10 13 3 -2
BITMAP
0200
C200
3400
0E00
05C0
0980
0E00
3800
C800
FFC0
1000
FFC0
1000
ENDCHAR
STARTCHAR 2272
ENCODING 8818
SWIDTH 960 0
DWIDTH 16 0
BBX 10 11 3 0
BITMAP
00C0
0300
1C00
6000
C000
3800
0700
00C0
0000
7040
8F80
ENDCHAR
STARTCHAR 2273
ENCODING 8819
SWIDTH 960 0
DWIDTH 16 0
BBX 10 11 3 0
BITMAP
8000
7000
0C00
0380
0180
0E00
7000
8000
0000
7040
8F80
ENDCHAR
STARTCHAR 2276
ENCODING 8822
SWIDTH 960 0
DWIDTH 16 0
BBX 10 10 3 0
BITMAP
00C0
0F00
7000
3000
CE00
39C0
0780
0100
1E00
E000
ENDCHAR
STARTCHAR 2277
ENCODING 8823
SWIDTH 960 0
DWIDTH 16 0
BBX 10 10 3 0
BITMAP
C000
3C00
0380
0300
1CC0
E700
7800
2000
1E00
01C0
ENDCHAR
STARTCHAR 2279
ENCODING 8825
SWIDTH 960 0
DWIDTH 16 0
BBX 10 12 3 -1
BITMAP
0200
C400
3C00
0780
0700
18C0
EF00
7800
3000
1E00
11C0
1000
ENDCHAR
STARTCHAR 227A
ENCODING 8826
SWIDTH 960 0
DWIDTH 16 0
BBX 8 8 4 2
BITMAP
01
06
18
E0
60
18
06
01
ENDCHAR
STARTCHAR 227B
ENCODING 8827
SWIDTH 960 0
DWIDTH 16 0
BBX 9 8 3 0
BITMAP
8000
6000
1800
0600
0180
0600
1800
6000
ENDCHAR
STARTCHAR 2280
ENCODING 8832
SWIDTH 960 0
DWIDTH 16 0
BBX 9 9 4 1
BITMAP
1000
1100
1600
1800
F000
7000
0800
1600
1180
ENDCHAR
STARTCHAR 2281
ENCODING 8833
SWIDTH 960 0
DWIDTH 16 0
BBX 9 9 3 1
BITMAP
0800
C800
2800
1C00
0B80
0B00
1C00
2800
C800
ENDCHAR
STARTCHAR 2282
ENCODING 8834
SWIDTH 960 0
DWIDTH 16 0
BBX 12 10 2 0
BITMAP
0FE0
3FE0
4000
C000
8000
8000
C000
4000
7FF0
1FF0
ENDCHAR
STARTCHAR 2283
ENCODING 8835
SWIDTH 960 0
DWIDTH 16 0
BBX 11 10 2 0
BITMAP
FF00
FFC0
0060
0020
0020
0020
0020
0060
FFC0
FF00
ENDCHAR
STARTCHAR 2284
ENCODING 8836
SWIDTH 960 0
DWIDTH 16 0
BBX 10 10 3 1
BITMAP
0200
3F80
4400
8400
8400
8400
8800
4800
3FC0
0800
ENDCHAR
STARTCHAR 2285
ENCODING 8837
SWIDTH 960 0
DWIDTH 16 0
BBX 10 11 3 0
BITMAP
0400
0800
FE00
0980
0880
1040
1040
1080
2100
FE00
2000
ENDCHAR
STARTCHAR 2286
ENCODING 8838
SWIDTH 960 0
DWIDTH 16 0
BBX 12 11 2 0
BITMAP
1FF0
7000
C000
8000
8000
C000
4000
7FF0
0000
0000
FFF0
ENDCHAR
STARTCHAR 2287
ENCODING 8839
SWIDTH 960 0
DWIDTH 16 0
BBX 12 11 2 0
BITMAP
FF80
00C0
0020
0030
0030
0030
0060
FFC0
0000
0000
FFF0
ENDCHAR
STARTCHAR 228A
ENCODING 8842
SWIDTH 960 0
DWIDTH 16 0
BBX 10 12 3 -2
BITMAP
1FC0
6000
8000
8000
8000
8000
6000
1F80
FFC0
0800
FFC0
0800
ENDCHAR
STARTCHAR 228B
ENCODING 8843
SWIDTH 960 0
DWIDTH 16 0
BBX 10 12 3 -2
BITMAP
FE00
0180
0080
0040
0040
0080
0100
FE00
FFC0
0800
FFC0
0800
ENDCHAR
STARTCHAR 2295
ENCODING 8853
SWIDTH 960 0
DWIDTH 16 0
BBX 14 14 1 -2
BITMAP
0F80
1260
6210
4208
8208
8208
8204
BFF4
8208
8208
4208
2210
1060
0F80
ENDCHAR
STARTCHAR 2296
ENCODING 8854
SWIDTH 960 0
DWIDTH 16 0
BBX 14 14 1 -2
BITMAP
0F80
1060
6010
4008
8008
8004
8004
BFF4
8004
8008
4008
2010
1060
0F80
ENDCHAR
STARTCHAR 2297
ENCODING 8855
SWIDTH 960 0
DWIDTH 16 0
BBX 14 14 1 -2
BITMAP
0F80
3060
4010
9048
8888
8508
8204
8504
8888
9048
4028
4010
3060
0F80
ENDCHAR
STARTCHAR 2299
ENCODING 8857
SWIDTH 960 0
DWIDTH 16 0
BBX 13 12 1 0
BITMAP
1FC0
2020
4010
4308
8788
8F88
8F88
8788
4010
6010
3020
0FC0
ENDCHAR
STARTCHAR 22A3
ENCODING 8867
SWIDTH 960 0
DWIDTH 16 0
BBX 8 10 4 0
BITMAP
01
01
01
01
01
FF
01
01
01
01
ENDCHAR
STARTCHAR 22A4
ENCODING 8868
SWIDTH 960 0
DWIDTH 16 0
BBX 9 8 3 1
BITMAP
FF80
0800
0800
0800
0800
0800
0800
0800
ENDCHAR
STARTCHAR 22A5
ENCODING 8869
SWIDTH 960 0
DWIDTH 16 0
BBX 11 10 2 0
BITMAP
0400
0400
0400
0400
0400
0400
0400
0400
0400
FFE0
ENDCHAR
STARTCHAR 22BB
ENCODING 8891
SWIDTH 960 0
DWIDTH 16 0
BBX 11 10 2 0
BITMAP
4040
2080
2080
1100
1100
0A00
0A00
0400
0000
FFE0
ENDCHAR
STARTCHAR 22BC
ENCODING 8892
SWIDTH 960 0
DWIDTH 16 0
BBX 11 10 2 0
BITMAP
FFE0
0000
0400
0A00
0A00
1100
1100
2080
2080
4040
ENDCHAR
STARTCHAR 22CE
ENCODING 8910
SWIDTH 960 0
DWIDTH 16 0
BBX 8 9 4 1
BITMAP
10
10
18
28
28
44
44
82
81
ENDCHAR
STARTCHAR 22CF
ENCODING 8911
SWIDTH 960 0
DWIDTH 16 0
BBX 9 9 3 0
BITMAP
8080
4100
2100
2200
1200
1400
1400
0C00
0800
ENDCHAR
STARTCHAR 22DA
ENCODING 8922
SWIDTH 960 0
DWIDTH 16 0
BBX 10 12 3 -1
BITMAP
01C0
1E00
6000
1E00
01C0
0000
FFC0
C000
3C00
03C0
0F00
F000
ENDCHAR
STARTCHAR 22DB
ENCODING 8923
SWIDTH 960 0
DWIDTH 16 0
BBX 10 12 3 -1
BITMAP
E000
1E00
0180
1E00
E000
0000
FFC0
00C0
0F00
F000
3C00
03C0
ENDCHAR
STARTCHAR 2306
ENCODING 8966
SWIDTH 960 0
DWIDTH 16 0
BBX 9 10 3 0
BITMAP
FF80
0000
FF80
0800
0C00
1400
1200
2200
2100
4100
ENDCHAR
STARTCHAR 2312
ENCODING 8978
SWIDTH 960 0
DWIDTH 16 0
BBX 11 5 2 5
BITMAP
1F80
60C0
4060
8020
8020
ENDCHAR
STARTCHAR 2314
ENCODING 8980
SWIDTH 960 0
DWIDTH 16 0
BBX 9 10 3 -1
BITMAP
3E00
C180
8080
8080
4100
4100
2200
1400
1400
0800
ENDCHAR
STARTCHAR 2460
ENCODING 9312
SWIDTH 960 0
DWIDTH 16 0
BBX 15 15 0 -2
BITMAP
0380
0C70
3018
238C
4384
4182
8182
8182
8182
8182
4182
4184
218C
1018
0FE0
ENDCHAR
STARTCHAR 2461
ENCODING 9313
SWIDTH 960 0
DWIDTH 16 0
BBX 15 15 0 -2
BITMAP
0380
0C70
3018
23CC
4644
4062
8062
8042
80C2
8182
4302
47E4
27EC
1018
0FE0
ENDCHAR
STARTCHAR 2462
ENCODING 9314
SWIDTH 960 0
DWIDTH 16 0
BBX 15 15 0 -2
BITMAP
0380
0C70
3018
23CC
4644
4062
8042
81C2
8062
8062
4462
4644
238C
1018
0FE0
ENDCHAR
STARTCHAR 2463
ENCODING 9315
SWIDTH 960 0
DWIDTH 16 0
BBX 15 15 0 -2
BITMAP
0380
0C70
3018
218C
4184
4382
8282
8482
8C82
8FE2
4082
4084
208C
1018
0FE0
ENDCHAR
STARTCHAR 2464
ENCODING 9316
SWIDTH 960 0
DWIDTH 16 0
BBX 15 15 0 -2
BITMAP
0380
0C70
3018
27CC
4604
4602
8602
87C2
8062
8062
4462
46C4
238C
1018
0FE0
ENDCHAR
STARTCHAR 2465
ENCODING 9317
SWIDTH 960 0
DWIDTH 16 0
BBX 15 15 0 -2
BITMAP
0380
0C70
3018
23CC
4644
4402
8402
87C2
8462
8462
4462
46C4
238C
1018
0FE0
ENDCHAR
STARTCHAR 2466
ENCODING 9318
SWIDTH 960 0
DWIDTH 16 0
BBX 15 15 0 -2
BITMAP
0380
0C70
3018
27EC
4064
4042
80C2
8082
8182
8182
4102
4304
220C
1018
0FE0
ENDCHAR
STARTCHAR 2467
ENCODING 9319
SWIDTH 960 0
DWIDTH 16 0
BBX 15 15 0 -2
BITMAP
0380
0C70
3018
23CC
4444
4462
8642
83C2
8642
8462
4462
4644
238C
1018
0FE0
ENDCHAR
STARTCHAR 2468
ENCODING 9320
SWIDTH 960 0
DWIDTH 16 0
BBX 15 15 0 -2
BITMAP
0380
0C70
3018
23CC
4644
4462
8462
8662
83E2
8062
4662
46C4
238C
1018
0FE0
ENDCHAR
STARTCHAR 2469
ENCODING 9321
SWIDTH 960 0
DWIDTH 16 0
BBX 15 15 0 -2
BITMAP
0380
0C70
3018
2CFC
5D94
4D12
8D1A
8D1A
8D1A
8D1A
4D12
4CF4
2C6C
1018
0FE0
ENDCHAR
STARTCHAR 246A
ENCODING 9322
SWIDTH 960 0
DWIDTH 16 0
BBX 15 15 0 -2
BITMAP
0380
0C70
3018
2E6C
4EE4
4662
8662
8662
8662
8662
4662
4664
266C
1018
0FE0
ENDCHAR
STARTCHAR 246B
ENCODING 9323
SWIDTH 960 0
DWIDTH 16 0
BBX 15 15 0 -2
BITMAP
0380
0C70
3018
2CFC
5D14
4C12
8C12
8C32
8C22
8C62
4CC2
4DFC
2DFC
1018
0FE0
ENDCHAR
STARTCHAR 246C
ENCODING 9324
SWIDTH 960 0
DWIDTH 16 0
BBX 15 15 0 -2
BITMAP
0380
0C70
3018
2DFC
5D14
4C12
8C12
8C62
8C12
8C1A
4D1A
4DB4
2CEC
1018
0FE0
ENDCHAR
STARTCHAR 246D
ENCODING 9325
SWIDTH 960 0
DWIDTH 16 0
BBX 15 15 0 -2
BITMAP
0380
0C70
3018
2C2C
5C64
4CE2
8CA2
8DA2
8D22
8FFA
4C22
4C24
2C2C
1018
0FE0
ENDCHAR
STARTCHAR 246E
ENCODING 9326
SWIDTH 960 0
DWIDTH 16 0
BBX 15 15 0 -2
BITMAP
0380
0C70
3018
2DFC
5D04
4D02
8D02
8DF2
8C12
8C1A
4F12
4DB4
2CEC
1018
0FE0
ENDCHAR
STARTCHAR 246F
ENCODING 9327
SWIDTH 960 0
DWIDTH 16 0
BBX 16 16 0 -3
BITMAP
03C0
0E70
3018
6CF4
5D96
CD02
CD02
8FF3
8F13
CD1A
4D1A
4DF6
2C0C
1818
0FF0
0100
ENDCHAR
STARTCHAR 2470
ENCODING 9328
SWIDTH 960 0
DWIDTH 16 0
BBX 16 16 0 -3
BITMAP
03C0
0E70
3018
65F4
5DF6
CC32
CC22
8C63
8C43
CC42
4C82
4C86
2D8C
1818
0FF0
0100
ENDCHAR
STARTCHAR 2471
ENCODING 9329
SWIDTH 960 0
DWIDTH 16 0
BBX 16 16 0 -3
BITMAP
03C0
0E70
3018
6CE4
5D16
CD12
CD12
8CE3
8D13
CF1A
4D1A
4DB6
204C
1818
0FF0
0100
ENDCHAR
STARTCHAR 2472
ENCODING 9330
SWIDTH 960 0
DWIDTH 16 0
BBX 16 16 0 -3
BITMAP
03C0
0E70
3018
6CE4
5D16
CF12
CD12
8D3B
8CDB
CC12
4D12
4DE6
200C
1818
0FF0
0100
ENDCHAR
STARTCHAR 2473
ENCODING 9331
SWIDTH 960 0
DWIDTH 16 0
BBX 16 16 0 -3
BITMAP
03C0
0E70
3018
6E74
534E
C18A
C18A
828B
868B
C48A
48CA
5F5E
203C
1818
0FF0
0100
ENDCHAR
STARTCHAR 2474
ENCODING 9332
SWIDTH 960 0
DWIDTH 16 0
BBX 15 14 0 -2
BITMAP
0008
6004
4386
4382
C182
C182
C182
C182
C182
C182
4182
4186
6004
0008
ENDCHAR
STARTCHAR 2475
ENCODING 9333
SWIDTH 960 0
DWIDTH 16 0
BBX 15 14 0 -2
BITMAP
0008
6004
43C6
4442
C042
C042
C0C2
C082
C102
C202
47E2
47E6
6004
0008
ENDCHAR
STARTCHAR 2476
ENCODING 9334
SWIDTH 960 0
DWIDTH 16 0
BBX 15 14 0 -2
BITMAP
0008
6004
47C6
4442
C042
C042
C182
C042
C062
C462
46C2
4386
6004
0008
ENDCHAR
STARTCHAR 2477
ENCODING 9335
SWIDTH 960 0
DWIDTH 16 0
BBX 15 14 0 -2
BITMAP
0008
6004
4086
4182
C382
C282
C482
C482
CFE2
C082
4082
4086
6004
0008
ENDCHAR
STARTCHAR 2478
ENCODING 9336
SWIDTH 960 0
DWIDTH 16 0
BBX 15 14 0 -2
BITMAP
0008
6004
47C6
4402
C402
C402
C7C2
C062
C062
C462
46C2
4386
6004
0008
ENDCHAR
STARTCHAR 2479
ENCODING 9337
SWIDTH 960 0
DWIDTH 16 0
BBX 15 14 0 -2
BITMAP
0008
6004
43C6
4662
C402
C402
C7C2
C462
C462
C462
42C2
4186
6004
0008
ENDCHAR
STARTCHAR 247A
ENCODING 9338
SWIDTH 960 0
DWIDTH 16 0
BBX 15 14 0 -2
BITMAP
0008
6004
47E6
4062
C042
C0C2
C082
C082
C182
C102
4302
4206
6004
0008
ENDCHAR
STARTCHAR 247B
ENCODING 9339
SWIDTH 960 0
DWIDTH 16 0
BBX 15 14 0 -2
BITMAP
0008
6004
47C6
4442
C442
C442
C382
C442
C462
C462
46C2
4386
6004
0008
ENDCHAR
STARTCHAR 247C
ENCODING 9340
SWIDTH 960 0
DWIDTH 16 0
BBX 15 14 0 -2
BITMAP
0008
6004
43C6
4442
C462
C462
C662
C3A2
C062
C042
46C2
4386
6004
0008
ENDCHAR
STARTCHAR 247D
ENCODING 9341
SWIDTH 960 0
DWIDTH 16 0
BBX 15 14 0 -2
BITMAP
0008
6004
4466
5CB2
C592
C512
C512
C512
C592
C492
44F2
4006
6004
0008
ENDCHAR
STARTCHAR 247E
ENCODING 9342
SWIDTH 960 0
DWIDTH 16 0
BBX 15 14 0 -2
BITMAP
0008
6004
4666
4EE2
C662
C662
C662
C662
C662
C662
4662
4006
6004
0008
ENDCHAR
STARTCHAR 247F
ENCODING 9343
SWIDTH 960 0
DWIDTH 16 0
BBX 15 14 0 -2
BITMAP
0008
6004
4CE6
5D12
C412
C412
C432
C462
C4C2
C582
45F2
4006
6004
0008
ENDCHAR
STARTCHAR 2480
ENCODING 9344
SWIDTH 960 0
DWIDTH 16 0
BBX 15 14 0 -2
BITMAP
0008
6004
4CE6
5D12
C412
C412
C472
C412
C41A
C512
45F2
4006
6004
0008
ENDCHAR
STARTCHAR 2481
ENCODING 9345
SWIDTH 960 0
DWIDTH 16 0
BBX 15 14 0 -2
BITMAP
0008
6004
4C26
5C62
C4E2
C4A2
C522
C722
C7FA
C422
4422
4006
6004
0008
ENDCHAR
STARTCHAR 2482
ENCODING 9346
SWIDTH 960 0
DWIDTH 16 0
BBX 15 14 0 -2
BITMAP
0008
6004
4DF6
5D02
C502
C502
C5F2
C412
C412
C512
45F2
4006
6004
0008
ENDCHAR
STARTCHAR 2483
ENCODING 9347
SWIDTH 960 0
DWIDTH 16 0
BBX 15 14 0 -2
BITMAP
0008
6004
4CE6
5D92
C502
C502
C7F2
C712
C51A
C512
45F2
4006
6004
0008
ENDCHAR
STARTCHAR 2484
ENCODING 9348
SWIDTH 960 0
DWIDTH 16 0
BBX 15 14 0 -2
BITMAP
0008
6004
45F6
5DF2
C432
C422
C462
C442
C4C2
C482
4482
4586
6004
0008
ENDCHAR
STARTCHAR 2485
ENCODING 9349
SWIDTH 960 0
DWIDTH 16 0
BBX 15 14 0 -2
BITMAP
0008
6004
4CE6
5D12
C512
C512
C4E2
C512
C71A
C512
45F2
4006
6004
0008
ENDCHAR
STARTCHAR 2486
ENCODING 9350
SWIDTH 960 0
DWIDTH 16 0
BBX 15 14 0 -2
BITMAP
0008
6004
4CE6
5D12
C712
C512
C532
C4D2
C412
C512
45E2
4006
6004
0008
ENDCHAR
STARTCHAR 2487
ENCODING 9351
SWIDTH 960 0
DWIDTH 16 0
BBX 15 14 0 -2
BITMAP
0008
6004
4E76
525A
D38A
C38A
C28A
C68A
C48A
C8CA
5F72
4026
6004
0008
ENDCHAR
STARTCHAR 249C
ENCODING 9372
SWIDTH 960 0
DWIDTH 16 0
BBX 15 14 0 -2
BITMAP
0008
6004
4006
43C2
C662
C062
C3E2
C662
C462
C7E2
4302
4006
6004
0008
ENDCHAR
STARTCHAR 249D
ENCODING 9373
SWIDTH 960 0
DWIDTH 16 0
BBX 15 14 0 -2
BITMAP
0008
6004
4406
4402
C402
C7E2
C662
C422
C422
C422
4662
43C6
6004
0008
ENDCHAR
STARTCHAR 249E
ENCODING 9374
SWIDTH 960 0
DWIDTH 16 0
BBX 15 14 0 -2
BITMAP
0008
6004
4006
43C2
C662
CC62
CC02
CC02
C402
C762
41C2
4006
6004
0008
ENDCHAR
STARTCHAR 249F
ENCODING 9375
SWIDTH 960 0
DWIDTH 16 0
BBX 15 14 0 -2
BITMAP
0008
6004
4046
4042
C042
C7C2
CCC2
CC42
C842
CC42
4CC2
47C6
6004
0008
ENDCHAR
STARTCHAR 24A0
ENCODING 9376
SWIDTH 960 0
DWIDTH 16 0
BBX 15 14 0 -2
BITMAP
0008
6004
4006
4382
C6C2
CC62
CFE2
CC02
C402
C762
41C2
4006
6004
0008
ENDCHAR
STARTCHAR 24A1
ENCODING 9377
SWIDTH 960 0
DWIDTH 16 0
BBX 15 14 0 -2
BITMAP
0008
6004
41C6
4302
C302
C7C2
C302
C302
C302
C302
4302
4306
6004
0008
ENDCHAR
STARTCHAR 24A2
ENCODING 9378
SWIDTH 960 0
DWIDTH 16 0
BBX 15 14 0 -2
BITMAP
0008
6004
43E6
4662
C462
CC62
C462
C662
C3E2
C062
4462
47C6
6004
0008
ENDCHAR
STARTCHAR 24A3
ENCODING 9379
SWIDTH 960 0
DWIDTH 16 0
BBX 15 14 0 -2
BITMAP
0008
6004
4406
4402
C402
C5E2
C622
C622
C422
C422
4422
4426
6004
0008
ENDCHAR
STARTCHAR 24A4
ENCODING 9380
SWIDTH 960 0
DWIDTH 16 0
BBX 15 14 0 -2
BITMAP
0008
6004
4186
4002
C002
C182
C182
C182
C182
C182
4182
4186
6004
0008
ENDCHAR
STARTCHAR 24A5
ENCODING 9381
SWIDTH 960 0
DWIDTH 16 0
BBX 15 14 0 -2
BITMAP
0008
6184
4186
4002
C082
C082
C082
C082
C082
C082
4182
4386
6204
0008
ENDCHAR
STARTCHAR 24A6
ENCODING 9382
SWIDTH 960 0
DWIDTH 16 0
BBX 15 14 0 -2
BITMAP
0008
6004
4606
4602
C602
C662
C782
C702
C702
C782
46C2
4666
6004
0008
ENDCHAR
STARTCHAR 24A7
ENCODING 9383
SWIDTH 960 0
DWIDTH 16 0
BBX 15 14 0 -2
BITMAP
0008
6004
4106
4102
C102
C102
C102
C102
C102
C102
4102
4106
6004
0008
ENDCHAR
STARTCHAR 24A8
ENCODING 9384
SWIDTH 960 0
DWIDTH 16 0
BBX 15 14 0 -2
BITMAP
0008
6004
4006
5772
DDDA
D99A
D19A
D19A
D19A
D19A
4002
4006
6004
0008
ENDCHAR
STARTCHAR 24A9
ENCODING 9385
SWIDTH 960 0
DWIDTH 16 0
BBX 15 14 0 -2
BITMAP
0008
6004
4006
45C2
C762
C662
C422
C422
C422
C422
4002
4006
6004
0008
ENDCHAR
STARTCHAR 24AA
ENCODING 9386
SWIDTH 960 0
DWIDTH 16 0
BBX 15 14 0 -2
BITMAP
0008
6004
4006
43C2
C662
CC22
CC22
CC22
C462
C7C2
4182
4006
6004
0008
ENDCHAR
STARTCHAR 24AB
ENCODING 9387
SWIDTH 960 0
DWIDTH 16 0
BBX 15 14 0 -2
BITMAP
0008
6004
45C6
4662
C622
C422
C622
C622
C7C2
C402
4402
4406
6004
0008
ENDCHAR
STARTCHAR 24AC
ENCODING 9388
SWIDTH 960 0
DWIDTH 16 0
BBX 15 14 0 -2
BITMAP
0008
6004
47C6
4CC2
CC42
C842
C842
CCC2
C7C2
C042
4042
4046
6004
0008
ENDCHAR
STARTCHAR 24AD
ENCODING 9389
SWIDTH 960 0
DWIDTH 16 0
BBX 15 14 0 -2
BITMAP
0008
6004
4006
4042
C3C2
C302
C202
C202
C202
C202
4202
4006
6004
0008
ENDCHAR
STARTCHAR 24AE
ENCODING 9390
SWIDTH 960 0
DWIDTH 16 0
BBX 15 14 0 -2
BITMAP
0008
6004
4006
43C2
C642
C602
C382
C0C2
C042
C7C2
4382
4006
6004
0008
ENDCHAR
STARTCHAR 24AF
ENCODING 9391
SWIDTH 960 0
DWIDTH 16 0
BBX 15 14 0 -2
BITMAP
0008
6004
4106
4302
C7C2
C302
C302
C302
C302
C302
43C2
40C6
6004
0008
ENDCHAR
STARTCHAR 24B0
ENCODING 9392
SWIDTH 960 0
DWIDTH 16 0
BBX 15 14 0 -2
BITMAP
0008
6004
4006
4422
C422
C422
C422
C462
C462
C7E2
4302
4006
6004
0008
ENDCHAR
STARTCHAR 24B1
ENCODING 9393
SWIDTH 960 0
DWIDTH 16 0
BBX 15 14 0 -2
BITMAP
0008
6004
4006
4C22
CC62
C442
C642
C2C2
C382
C182
4102
4006
6004
0008
ENDCHAR
STARTCHAR 24B2
ENCODING 9394
SWIDTH 960 0
DWIDTH 16 0
BBX 15 14 0 -2
BITMAP
0008
6004
4006
511A
D992
D992
CB92
CAF2
CE62
CE62
4462
4006
6004
0008
ENDCHAR
STARTCHAR 24B3
ENCODING 9395
SWIDTH 960 0
DWIDTH 16 0
BBX 15 14 0 -2
BITMAP
0008
6004
4006
4462
C6C2
C382
C182
C382
C2C2
C462
4002
4006
6004
0008
ENDCHAR
STARTCHAR 24B4
ENCODING 9396
SWIDTH 960 0
DWIDTH 16 0
BBX 15 14 0 -2
BITMAP
0008
6004
4C26
4462
C642
C242
C3C2
C382
C182
C182
4102
4306
6004
0008
ENDCHAR
STARTCHAR 24B5
ENCODING 9397
SWIDTH 960 0
DWIDTH 16 0
BBX 15 14 0 -2
BITMAP
0008
6004
4006
47E2
C042
C0C2
C182
C302
C602
C7E2
4002
4006
6004
0008
ENDCHAR
STARTCHAR 24B6
ENCODING 9398
SWIDTH 960 0
DWIDTH 16 0
BBX 15 15 0 -2
BITMAP
0380
0C70
3198
218C
4384
42C2
8242
8642
87E2
87E2
4C22
4834
281C
1018
0FE0
ENDCHAR
STARTCHAR 24B7
ENCODING 9399
SWIDTH 960 0
DWIDTH 16 0
BBX 15 15 0 -2
BITMAP
0380
0C70
3018
27CC
4464
4422
8462
87C2
8462
8432
4432
4424
27CC
1018
0FE0
ENDCHAR
STARTCHAR 24B8
ENCODING 9400
SWIDTH 960 0
DWIDTH 16 0
BBX 15 15 0 -2
BITMAP
0380
0C70
3118
27CC
4C24
5822
9802
9802
9802
9802
4802
4C24
23EC
1018
0FE0
ENDCHAR
STARTCHAR 24B9
ENCODING 9401
SWIDTH 960 0
DWIDTH 16 0
BBX 15 15 0 -2
BITMAP
0380
0C70
3018
27CC
4424
4412
8412
8412
8412
8412
4432
4464
27CC
1018
0FE0
ENDCHAR
STARTCHAR 24BA
ENCODING 9402
SWIDTH 960 0
DWIDTH 16 0
BBX 15 15 0 -2
BITMAP
0380
0C70
3018
27CC
4404
4402
8402
87C2
8402
8402
4402
4404
27EC
1018
0FE0
ENDCHAR
STARTCHAR 24BB
ENCODING 9403
SWIDTH 960 0
DWIDTH 16 0
BBX 15 15 0 -2
BITMAP
0380
0C70
3018
27EC
4604
4602
8602
87E2
8602
8602
4602
4604
260C
1018
0FE0
ENDCHAR
STARTCHAR 24BC
ENCODING 9404
SWIDTH 960 0
DWIDTH 16 0
BBX 15 15 0 -2
BITMAP
0380
0C70
3018
27CC
4C64
4822
9802
9802
99E2
9822
4822
4C24
27EC
1018
0FE0
ENDCHAR
STARTCHAR 24BD
ENCODING 9405
SWIDTH 960 0
DWIDTH 16 0
BBX 15 15 0 -2
BITMAP
0380
0C70
3018
2C2C
4C24
4C22
8C22
8FE2
8C22
8C22
4C22
4C24
2C2C
1018
0FE0
ENDCHAR
STARTCHAR 24BE
ENCODING 9406
SWIDTH 960 0
DWIDTH 16 0
BBX 15 15 0 -2
BITMAP
0380
0C70
3018
218C
4184
4182
8182
8182
8182
8182
4182
4184
218C
1018
0FE0
ENDCHAR
STARTCHAR 24BF
ENCODING 9407
SWIDTH 960 0
DWIDTH 16 0
BBX 15 15 0 -2
BITMAP
0380
0C70
3018
208C
4084
4082
8082
8082
8082
8082
4082
4084
278C
1018
0FE0
ENDCHAR
STARTCHAR 24C0
ENCODING 9408
SWIDTH 960 0
DWIDTH 16 0
BBX 15 15 0 -2
BITMAP
0380
0C70
3018
2C6C
4CC4
4D82
8F02
8E02
8F02
8D82
4C82
4C44
2C6C
1018
0FE0
ENDCHAR
STARTCHAR 24C1
ENCODING 9409
SWIDTH 960 0
DWIDTH 16 0
BBX 15 15 0 -2
BITMAP
0380
0C70
3018
240C
4404
4402
8402
8402
8402
8402
4402
4404
27EC
1018
0FE0
ENDCHAR
STARTCHAR 24C2
ENCODING 9410
SWIDTH 960 0
DWIDTH 16 0
BBX 15 15 0 -2
BITMAP
0380
0C70
3018
383C
5834
5C32
9472
9452
9252
9292
5392
5194
311C
1018
0FE0
ENDCHAR
STARTCHAR 24C3
ENCODING 9411
SWIDTH 960 0
DWIDTH 16 0
BBX 15 15 0 -2
BITMAP
0380
0C70
3018
2C2C
4E24
4A22
8B22
8922
89A2
88A2
48E2
4864
286C
1018
0FE0
ENDCHAR
STARTCHAR 24C4
ENCODING 9412
SWIDTH 960 0
DWIDTH 16 0
BBX 15 15 0 -2
BITMAP
0380
0C70
3018
27CC
4C24
5832
9812
9012
9012
9812
4832
4C24
27CC
1018
0FE0
ENDCHAR
STARTCHAR 24C5
ENCODING 9413
SWIDTH 960 0
DWIDTH 16 0
BBX 15 15 0 -2
BITMAP
0380
0C70
3018
27CC
4464
4432
8432
8462
85C2
8402
4402
4404
240C
1018
0FE0
ENDCHAR
STARTCHAR 24C6
ENCODING 9414
SWIDTH 960 0
DWIDTH 16 0
BBX 15 15 0 -2
BITMAP
0380
0C70
3318
2FCC
5864
5022
9032
9032
9032
9022
5822
4CC4
23FC
1018
0FE0
ENDCHAR
STARTCHAR 24C7
ENCODING 9415
SWIDTH 960 0
DWIDTH 16 0
BBX 15 15 0 -2
BITMAP
0380
0C70
3018
27CC
4464
4422
8422
85E2
85C2
8462
4422
4424
242C
1018
0FE0
ENDCHAR
STARTCHAR 24C8
ENCODING 9416
SWIDTH 960 0
DWIDTH 16 0
BBX 15 15 0 -2
BITMAP
0380
0C70
3018
27CC
4404
4402
8602
8382
80C2
8062
4022
4064
27CC
1018
0FE0
ENDCHAR
STARTCHAR 24C9
ENCODING 9417
SWIDTH 960 0
DWIDTH 16 0
BBX 15 15 0 -2
BITMAP
0380
0C70
3018
2FEC
4104
4102
8102
8102
8102
8102
4102
4104
210C
1118
0FE0
ENDCHAR
STARTCHAR 24CA
ENCODING 9418
SWIDTH 960 0
DWIDTH 16 0
BBX 15 15 0 -2
BITMAP
0380
0C70
3018
282C
4824
4822
8822
8822
8822
8822
4822
4C64
27CC
1118
0FE0
ENDCHAR
STARTCHAR 24CB
ENCODING 9419
SWIDTH 960 0
DWIDTH 16 0
BBX 15 15 0 -2
BITMAP
0380
0C70
3018
383C
4824
4822
8C62
8442
8442
86C2
4282
4384
238C
1118
0FE0
ENDCHAR
STARTCHAR 24CC
ENCODING 9420
SWIDTH 960 0
DWIDTH 16 0
BBX 15 15 0 -2
BITMAP
0380
0C70
3018
200C
5114
5392
9292
9292
9AB2
8AF2
4C62
4C64
2C6C
1018
0FE0
ENDCHAR
STARTCHAR 24CD
ENCODING 9421
SWIDTH 960 0
DWIDTH 16 0
BBX 15 15 0 -2
BITMAP
0380
0C70
3018
2C2C
4644
42C2
8382
8182
8182
82C2
4642
4464
283C
1018
0FE0
ENDCHAR
STARTCHAR 24CE
ENCODING 9422
SWIDTH 960 0
DWIDTH 16 0
BBX 15 15 0 -2
BITMAP
0380
0C70
3018
283C
4C24
4662
82C2
8382
8182
8102
4102
4104
210C
1118
0FE0
ENDCHAR
STARTCHAR 24CF
ENCODING 9423
SWIDTH 960 0
DWIDTH 16 0
BBX 15 15 0 -2
BITMAP
0380
0C70
3018
2FEC
4064
40C2
8082
8182
8302
8202
4602
4C04
2FEC
1018
0FE0
ENDCHAR
STARTCHAR 24D0
ENCODING 9424
SWIDTH 960 0
DWIDTH 16 0
BBX 15 15 0 -2
BITMAP
0380
0C70
3018
200C
43C4
4642
8062
83E2
8662
8462
47E2
4304
200C
1018
0FE0
ENDCHAR
STARTCHAR 24D1
ENCODING 9425
SWIDTH 960 0
DWIDTH 16 0
BBX 15 15 0 -2
BITMAP
0380
0C70
3018
240C
4404
4402
87E2
8662
8422
8422
4422
4664
23CC
1018
0FE0
ENDCHAR
STARTCHAR 24D2
ENCODING 9426
SWIDTH 960 0
DWIDTH 16 0
BBX 15 15 0 -2
BITMAP
0380
0C70
3018
200C
43C4
4662
8C62
8C02
8C02
8402
4762
41C4
200C
1018
0FE0
ENDCHAR
STARTCHAR 24D3
ENCODING 9427
SWIDTH 960 0
DWIDTH 16 0
BBX 15 15 0 -2
BITMAP
0380
0C70
3018
204C
4044
4042
87C2
8CC2
8C42
8842
4C42
4CC4
27CC
1018
0FE0
ENDCHAR
STARTCHAR 24D4
ENCODING 9428
SWIDTH 960 0
DWIDTH 16 0
BBX 15 15 0 -2
BITMAP
0380
0C70
3018
200C
4384
46C2
8C62
8FE2
8C02
8402
4762
41C4
200C
1018
0FE0
ENDCHAR
STARTCHAR 24D5
ENCODING 9429
SWIDTH 960 0
DWIDTH 16 0
BBX 15 15 0 -2
BITMAP
0380
0C70
3018
21CC
4304
4302
87C2
8302
8302
8302
4302
4304
230C
1018
0FE0
ENDCHAR
STARTCHAR 24D6
ENCODING 9430
SWIDTH 960 0
DWIDTH 16 0
BBX 15 15 0 -2
BITMAP
0380
0C70
3018
23EC
4664
4462
8C62
8462
8662
83E2
4062
4464
27CC
1018
0FE0
ENDCHAR
STARTCHAR 24D7
ENCODING 9431
SWIDTH 960 0
DWIDTH 16 0
BBX 15 15 0 -2
BITMAP
0380
0C70
3018
240C
4404
4402
85E2
8622
8622
8422
4422
4424
242C
1018
0FE0
ENDCHAR
STARTCHAR 24D8
ENCODING 9432
SWIDTH 960 0
DWIDTH 16 0
BBX 15 15 0 -2
BITMAP
0380
0C70
3018
218C
4004
4002
8182
8182
8182
8182
4182
4184
218C
1018
0FE0
ENDCHAR
STARTCHAR 24D9
ENCODING 9433
SWIDTH 960 0
DWIDTH 16 0
BBX 15 15 0 -2
BITMAP
0380
0C70
3198
218C
4004
4082
8082
8082
8082
8082
4082
4184
238C
1218
0FE0
ENDCHAR
STARTCHAR 24DA
ENCODING 9434
SWIDTH 960 0
DWIDTH 16 0
BBX 15 15 0 -2
BITMAP
0380
0C70
3018
260C
4604
4602
8662
8782
8702
8702
4782
46C4
266C
1018
0FE0
ENDCHAR
STARTCHAR 24DB
ENCODING 9435
SWIDTH 960 0
DWIDTH 16 0
BBX 15 15 0 -2
BITMAP
0380
0C70
3018
210C
4104
4102
8102
8102
8102
8102
4102
4104
210C
1018
0FE0
ENDCHAR
STARTCHAR 24DC
ENCODING 9436
SWIDTH 960 0
DWIDTH 16 0
BBX 15 15 0 -2
BITMAP
0380
0C70
3018
200C
5774
5DDA
999A
919A
919A
919A
519A
4004
200C
1018
0FE0
ENDCHAR
STARTCHAR 24DD
ENCODING 9437
SWIDTH 960 0
DWIDTH 16 0
BBX 15 15 0 -2
BITMAP
0380
0C70
3018
200C
45C4
4762
8662
8422
8422
8422
4422
4004
200C
1018
0FE0
ENDCHAR
STARTCHAR 24DE
ENCODING 9438
SWIDTH 960 0
DWIDTH 16 0
BBX 15 15 0 -2
BITMAP
0380
0C70
3018
200C
43C4
4662
8C22
8C22
8C22
8462
47C2
4184
200C
1018
0FE0
ENDCHAR
STARTCHAR 24DF
ENCODING 9439
SWIDTH 960 0
DWIDTH 16 0
BBX 15 15 0 -2
BITMAP
0380
0C70
3018
25CC
4664
4622
8422
8622
8622
87C2
4402
4404
240C
1018
0FE0
ENDCHAR
STARTCHAR 24E0
ENCODING 9440
SWIDTH 960 0
DWIDTH 16 0
BBX 15 15 0 -2
BITMAP
0380
0C70
3018
27CC
4CC4
4C42
8842
8842
8CC2
87C2
4042
4044
204C
1018
0FE0
ENDCHAR
STARTCHAR 24E1
ENCODING 9441
SWIDTH 960 0
DWIDTH 16 0
BBX 15 15 0 -2
BITMAP
0380
0C70
3018
200C
4044
43C2
8302
8202
8202
8202
4202
4204
200C
1018
0FE0
ENDCHAR
STARTCHAR 24E2
ENCODING 9442
SWIDTH 960 0
DWIDTH 16 0
BBX 15 15 0 -2
BITMAP
0380
0C70
3018
200C
43C4
4642
8602
8382
80C2
8042
47C2
4384
200C
1018
0FE0
ENDCHAR
STARTCHAR 24E3
ENCODING 9443
SWIDTH 960 0
DWIDTH 16 0
BBX 15 15 0 -2
BITMAP
0380
0C70
3018
210C
4304
47C2
8302
8302
8302
8302
4302
43C4
20CC
1018
0FE0
ENDCHAR
STARTCHAR 24E4
ENCODING 9444
SWIDTH 960 0
DWIDTH 16 0
BBX 15 15 0 -2
BITMAP
0380
0C70
3018
200C
4424
4422
8422
8422
8462
8462
47E2
4304
200C
1018
0FE0
ENDCHAR
STARTCHAR 24E5
ENCODING 9445
SWIDTH 960 0
DWIDTH 16 0
BBX 15 15 0 -2
BITMAP
0380
0C70
3018
200C
4C24
4C62
8442
8642
82C2
8382
4182
4104
200C
1018
0FE0
ENDCHAR
STARTCHAR 24E6
ENCODING 9446
SWIDTH 960 0
DWIDTH 16 0
BBX 15 15 0 -2
BITMAP
0380
0C70
3018
200C
511C
5992
9992
8B92
8AF2
8E62
4E62
4464
200C
1018
0FE0
ENDCHAR
STARTCHAR 24E7
ENCODING 9447
SWIDTH 960 0
DWIDTH 16 0
BBX 15 15 0 -2
BITMAP
0380
0C70
3018
200C
4464
46C2
8382
8182
8382
82C2
4462
4004
200C
1018
0FE0
ENDCHAR
STARTCHAR 24E8
ENCODING 9448
SWIDTH 960 0
DWIDTH 16 0
BBX 15 15 0 -2
BITMAP
0380
0C70
3018
2C2C
4464
4642
8242
83C2
8382
8182
4182
4104
230C
1018
0FE0
ENDCHAR
STARTCHAR 24E9
ENCODING 9449
SWIDTH 960 0
DWIDTH 16 0
BBX 15 15 0 -2
BITMAP
0380
0C70
3018
200C
47E4
4042
80C2
8182
8302
8602
47E2
4004
200C
1018
0FE0
ENDCHAR
STARTCHAR 2500
ENCODING 9472
SWIDTH 960 0
DWIDTH 16 0
BBX 16 1 0 5
BITMAP
FFFF
ENDCHAR
STARTCHAR 2501
ENCODING 9473
SWIDTH 960 0
DWIDTH 16 0
BBX 16 1 0 5
BITMAP
FFFF
ENDCHAR
STARTCHAR 2502
ENCODING 9474
SWIDTH 960 0
DWIDTH 16 0
BBX 1 17 7 -3
BITMAP
80
80
80
80
80
80
80
80
80
80
80
80
80
80
80
80
80
ENDCHAR
STARTCHAR 2503
ENCODING 9475
SWIDTH 960 0
DWIDTH 16 0
BBX 2 17 7 -3
BITMAP
C0
C0
C0
C0
C0
C0
C0
C0
C0
C0
C0
C0
C0
C0
C0
C0
C0
ENDCHAR
STARTCHAR 250C
ENCODING 9484
SWIDTH 960 0
DWIDTH 16 0
BBX 9 9 7 -3
BITMAP
FF80
8000
8000
8000
8000
8000
8000
8000
8000
ENDCHAR
STARTCHAR 250D
ENCODING 9485
SWIDTH 960 0
DWIDTH 16 0
BBX 9 9 7 -3
BITMAP
FF80
8000
8000
8000
8000
8000
8000
8000
8000
ENDCHAR
STARTCHAR 250E
ENCODING 9486
SWIDTH 960 0
DWIDTH 16 0
BBX 9 9 7 -3
BITMAP
FF80
C000
C000
C000
C000
C000
C000
C000
C000
ENDCHAR
STARTCHAR 250F
ENCODING 9487
SWIDTH 960 0
DWIDTH 16 0
BBX 9 9 7 -3
BITMAP
FF80
C000
C000
C000
C000
C000
C000
C000
C000
ENDCHAR
STARTCHAR 2510
ENCODING 9488
SWIDTH 960 0
DWIDTH 16 0
BBX 8 9 0 -3
BITMAP
FF
01
01
01
01
01
01
01
01
ENDCHAR
STARTCHAR 2511
ENCODING 9489
SWIDTH 960 0
DWIDTH 16 0
BBX 8 9 0 -3
BITMAP
FF
FF
01
01
01
01
01
01
01
ENDCHAR
STARTCHAR 2512
ENCODING 9490
SWIDTH 960 0
DWIDTH 16 0
BBX 9 9 0 -3
BITMAP
FF80
0180
0180
0180
0180
0180
0180
0180
0180
ENDCHAR
STARTCHAR 2513
ENCODING 9491
SWIDTH 960 0
DWIDTH 16 0
BBX 9 9 0 -3
BITMAP
FF80
FF80
0180
0180
0180
0180
0180
0180
0180
ENDCHAR
STARTCHAR 2514
ENCODING 9492
SWIDTH 960 0
DWIDTH 16 0
BBX 9 9 7 5
BITMAP
8000
8000
8000
8000
8000
8000
8000
8000
FF80
ENDCHAR
STARTCHAR 2515
ENCODING 9493
SWIDTH 960 0
DWIDTH 16 0
BBX 9 9 7 5
BITMAP
8000
8000
8000
8000
8000
8000
8000
8000
FF80
ENDCHAR
STARTCHAR 2516
ENCODING 9494
SWIDTH 960 0
DWIDTH 16 0
BBX 9 9 7 5
BITMAP
C000
C000
C000
C000
C000
C000
C000
C000
FF80
ENDCHAR
STARTCHAR 2517
ENCODING 9495
SWIDTH 960 0
DWIDTH 16 0
BBX 9 9 7 5
BITMAP
C000
C000
C000
C000
C000
C000
C000
C000
FF80
ENDCHAR
STARTCHAR 2518
ENCODING 9496
SWIDTH 960 0
DWIDTH 16 0
BBX 8 9 0 5
BITMAP
01
01
01
01
01
01
01
01
FF
ENDCHAR
STARTCHAR 2519
ENCODING 9497
SWIDTH 960 0
DWIDTH 16 0
BBX 8 9 0 5
BITMAP
01
01
01
01
01
01
01
01
FF
ENDCHAR
STARTCHAR 251A
ENCODING 9498
SWIDTH 960 0
DWIDTH 16 0
BBX 9 9 0 5
BITMAP
0180
0180
0180
0180
0180
0180
0180
0180
FF80
ENDCHAR
STARTCHAR 251B
ENCODING 9499
SWIDTH 960 0
DWIDTH 16 0
BBX 9 9 0 5
BITMAP
0180
0180
0180
0180
0180
0180
0180
0180
FF80
ENDCHAR
STARTCHAR 251C
ENCODING 9500
SWIDTH 960 0
DWIDTH 16 0
BBX 9 17 7 -3
BITMAP
8000
8000
8000
8000
8000
8000
8000
8000
FF80
8000
8000
8000
8000
8000
8000
8000
8000
ENDCHAR
STARTCHAR 251D
ENCODING 9501
SWIDTH 960 0
DWIDTH 16 0
BBX 9 17 7 -3
BITMAP
8000
8000
8000
8000
8000
8000
8000
8000
FF80
8000
8000
8000
8000
8000
8000
8000
8000
ENDCHAR
STARTCHAR 251E
ENCODING 9502
SWIDTH 960 0
DWIDTH 16 0
BBX 9 17 7 -3
BITMAP
C000
C000
C000
C000
C000
C000
C000
C000
FF80
8000
8000
8000
8000
8000
8000
8000
8000
ENDCHAR
STARTCHAR 251F
ENCODING 9503
SWIDTH 960 0
DWIDTH 16 0
BBX 9 17 7 -3
BITMAP
8000
8000
8000
8000
8000
8000
8000
8000
FF80
C000
C000
C000
C000
C000
C000
C000
C000
ENDCHAR
STARTCHAR 2520
ENCODING 9504
SWIDTH 960 0
DWIDTH 16 0
BBX 9 17 7 -3
BITMAP
C000
C000
C000
C000
C000
C000
C000
C000
FF80
C000
C000
C000
C000
C000
C000
C000
C000
ENDCHAR
STARTCHAR 2521
ENCODING 9505
SWIDTH 960 0
DWIDTH 16 0
BBX 9 17 7 -3
BITMAP
C000
C000
C000
C000
C000
C000
C000
C000
FF80
8000
8000
8000
8000
8000
8000
8000
8000
ENDCHAR
STARTCHAR 2522
ENCODING 9506
SWIDTH 960 0
DWIDTH 16 0
BBX 9 17 7 -3
BITMAP
8000
8000
8000
8000
8000
8000
8000
8000
FF80
C000
C000
C000
C000
C000
C000
C000
C000
ENDCHAR
STARTCHAR 2523
ENCODING 9507
SWIDTH 960 0
DWIDTH 16 0
BBX 9 17 7 -3
BITMAP
C000
C000
C000
C000
C000
C000
C000
C000
FF80
C000
C000
C000
C000
C000
C000
C000
C000
ENDCHAR
STARTCHAR 2524
ENCODING 9508
SWIDTH 960 0
DWIDTH 16 0
BBX 8 17 0 -3
BITMAP
01
01
01
01
01
01
01
01
FF
01
01
01
01
01
01
01
01
ENDCHAR
STARTCHAR 2525
ENCODING 9509
SWIDTH 960 0
DWIDTH 16 0
BBX 8 17 0 -3
BITMAP
01
01
01
01
01
01
01
01
FF
FF
01
01
01
01
01
01
01
ENDCHAR
STARTCHAR 2526
ENCODING 9510
SWIDTH 960 0
DWIDTH 16 0
BBX 9 17 0 -3
BITMAP
0180
0180
0180
0180
0180
0180
0180
0180
FF80
0100
0100
0100
0100
0100
0100
0100
0100
ENDCHAR
STARTCHAR 2527
ENCODING 9511
SWIDTH 960 0
DWIDTH 16 0
BBX 9 17 0 -3
BITMAP
0100
0100
0100
0100
0100
0100
0100
0100
FF00
0180
0180
0180
0180
0180
0180
0180
0180
ENDCHAR
STARTCHAR 2528
ENCODING 9512
SWIDTH 960 0
DWIDTH 16 0
BBX 9 17 0 -3
BITMAP
0180
0180
0180
0180
0180
0180
0180
0180
FF80
0180
0180
0180
0180
0180
0180
0180
0180
ENDCHAR
STARTCHAR 2529
ENCODING 9513
SWIDTH 960 0
DWIDTH 16 0
BBX 9 17 0 -3
BITMAP
0180
0180
0180
0180
0180
0180
0180
0180
FF80
FF00
0100
0100
0100
0100
0100
0100
0100
ENDCHAR
STARTCHAR 252A
ENCODING 9514
SWIDTH 960 0
DWIDTH 16 0
BBX 9 17 0 -3
BITMAP
0100
0100
0100
0100
0100
0100
0100
0100
FF00
FF80
0180
0180
0180
0180
0180
0180
0180
ENDCHAR
STARTCHAR 252B
ENCODING 9515
SWIDTH 960 0
DWIDTH 16 0
BBX 9 17 0 -3
BITMAP
0180
0180
0180
0180
0180
0180
0180
0180
FF80
FF80
0180
0180
0180
0180
0180
0180
0180
ENDCHAR
STARTCHAR 252C
ENCODING 9516
SWIDTH 960 0
DWIDTH 16 0
BBX 16 9 0 -3
BITMAP
FFFF
0100
0100
0100
0100
0100
0100
0100
0100
ENDCHAR
STARTCHAR 252D
ENCODING 9517
SWIDTH 960 0
DWIDTH 16 0
BBX 16 9 0 -3
BITMAP
FFFF
FF00
0100
0100
0100
0100
0100
0100
0100
ENDCHAR
STARTCHAR 252E
ENCODING 9518
SWIDTH 960 0
DWIDTH 16 0
BBX 16 9 0 -3
BITMAP
FEFF
0100
0100
0100
0100
0100
0100
0100
0100
ENDCHAR
STARTCHAR 252F
ENCODING 9519
SWIDTH 960 0
DWIDTH 16 0
BBX 16 9 0 -3
BITMAP
FFFF
FF00
0100
0100
0100
0100
0100
0100
0100
ENDCHAR
STARTCHAR 2530
ENCODING 9520
SWIDTH 960 0
DWIDTH 16 0
BBX 16 9 0 -3
BITMAP
FFFF
0180
0180
0180
0180
0180
0180
0180
0180
ENDCHAR
STARTCHAR 2531
ENCODING 9521
SWIDTH 960 0
DWIDTH 16 0
BBX 16 9 0 -3
BITMAP
FFFF
FF80
0180
0180
0180
0180
0180
0180
0180
ENDCHAR
STARTCHAR 2532
ENCODING 9522
SWIDTH 960 0
DWIDTH 16 0
BBX 16 9 0 -3
BITMAP
FEFF
0180
0180
0180
0180
0180
0180
0180
0180
ENDCHAR
STARTCHAR 2533
ENCODING 9523
SWIDTH 960 0
DWIDTH 16 0
BBX 16 9 0 -3
BITMAP
FFFF
FF80
0180
0180
0180
0180
0180
0180
0180
ENDCHAR
STARTCHAR 2534
ENCODING 9524
SWIDTH 960 0
DWIDTH 16 0
BBX 16 9 0 5
BITMAP
0100
0100
0100
0100
0100
0100
0100
0100
FFFF
ENDCHAR
STARTCHAR 2535
ENCODING 9525
SWIDTH 960 0
DWIDTH 16 0
BBX 16 9 0 5
BITMAP
0100
0100
0100
0100
0100
0100
0100
0100
FFFF
ENDCHAR
STARTCHAR 2536
ENCODING 9526
SWIDTH 960 0
DWIDTH 16 0
BBX 16 9 0 5
BITMAP
0100
0100
0100
0100
0100
0100
0100
0100
FFFF
ENDCHAR
STARTCHAR 2537
ENCODING 9527
SWIDTH 960 0
DWIDTH 16 0
BBX 16 9 0 5
BITMAP
0100
0100
0100
0100
0100
0100
0100
0100
FFFF
ENDCHAR
STARTCHAR 2538
ENCODING 9528
SWIDTH 960 0
DWIDTH 16 0
BBX 16 9 0 5
BITMAP
0180
0180
0180
0180
0180
0180
0180
0180
FFFF
ENDCHAR
STARTCHAR 2539
ENCODING 9529
SWIDTH 960 0
DWIDTH 16 0
BBX 16 9 0 5
BITMAP
0180
0180
0180
0180
0180
0180
0180
0180
FFFF
ENDCHAR
STARTCHAR 253A
ENCODING 9530
SWIDTH 960 0
DWIDTH 16 0
BBX 16 9 0 5
BITMAP
0180
0180
0180
0180
0180
0180
0180
0180
FFFF
ENDCHAR
STARTCHAR 253B
ENCODING 9531
SWIDTH 960 0
DWIDTH 16 0
BBX 16 9 0 5
BITMAP
0180
0180
0180
0180
0180
0180
0180
0180
FFFF
ENDCHAR
STARTCHAR 253C
ENCODING 9532
SWIDTH 960 0
DWIDTH 16 0
BBX 16 17 0 -3
BITMAP
0100
0100
0100
0100
0100
0100
0100
0100
FFFF
0100
0100
0100
0100
0100
0100
0100
0100
ENDCHAR
STARTCHAR 253D
ENCODING 9533
SWIDTH 960 0
DWIDTH 16 0
BBX 16 17 0 -3
BITMAP
0100
0100
0100
0100
0100
0100
0100
0100
FFFF
FF00
0100
0100
0100
0100
0100
0100
0100
ENDCHAR
STARTCHAR 253E
ENCODING 9534
SWIDTH 960 0
DWIDTH 16 0
BBX 16 17 0 -3
BITMAP
0100
0100
0100
0100
0100
0100
0100
0100
FFFF
0100
0100
0100
0100
0100
0100
0100
0100
ENDCHAR
STARTCHAR 253F
ENCODING 9535
SWIDTH 960 0
DWIDTH 16 0
BBX 16 17 0 -3
BITMAP
0100
0100
0100
0100
0100
0100
0100
0100
FFFF
FF00
0100
0100
0100
0100
0100
0100
0100
ENDCHAR
STARTCHAR 2540
ENCODING 9536
SWIDTH 960 0
DWIDTH 16 0
BBX 16 17 0 -3
BITMAP
0180
0180
0180
0180
0180
0180
0180
0180
FFFF
0100
0100
0100
0100
0100
0100
0100
0100
ENDCHAR
STARTCHAR 2541
ENCODING 9537
SWIDTH 960 0
DWIDTH 16 0
BBX 16 17 0 -3
BITMAP
0100
0100
0100
0100
0100
0100
0100
0100
FFFF
0180
0180
0180
0180
0180
0180
0180
0180
ENDCHAR
STARTCHAR 2542
ENCODING 9538
SWIDTH 960 0
DWIDTH 16 0
BBX 16 17 0 -3
BITMAP
0180
0180
0180
0180
0180
0180
0180
0180
FFFF
0180
0180
0180
0180
0180
0180
0180
0180
ENDCHAR
STARTCHAR 2543
ENCODING 9539
SWIDTH 960 0
DWIDTH 16 0
BBX 16 17 0 -3
BITMAP
0180
0180
0180
0180
0180
0180
0180
0180
FFFF
FF00
0100
0100
0100
0100
0100
0100
0100
ENDCHAR
STARTCHAR 2544
ENCODING 9540
SWIDTH 960 0
DWIDTH 16 0
BBX 16 17 0 -3
BITMAP
0180
0180
0180
0180
0180
0180
0180
0180
FFFF
0100
0100
0100
0100
0100
0100
0100
0100
ENDCHAR
STARTCHAR 2545
ENCODING 9541
SWIDTH 960 0
DWIDTH 16 0
BBX 16 17 0 -3
BITMAP
0100
0100
0100
0100
0100
0100
0100
0100
FFFF
FF80
0180
0180
0180
0180
0180
0180
0180
ENDCHAR
STARTCHAR 2546
ENCODING 9542
SWIDTH 960 0
DWIDTH 16 0
BBX 16 17 0 -3
BITMAP
0100
0100
0100
0100
0100
0100
0100
0100
FFFF
0180
0180
0180
0180
0180
0180
0180
0180
ENDCHAR
STARTCHAR 2547
ENCODING 9543
SWIDTH 960 0
DWIDTH 16 0
BBX 16 17 0 -3
BITMAP
0180
0180
0180
0180
0180
0180
0180
0180
FFFF
FF00
0100
0100
0100
0100
0100
0100
0100
ENDCHAR
STARTCHAR 2548
ENCODING 9544
SWIDTH 960 0
DWIDTH 16 0
BBX 16 17 0 -3
BITMAP
0100
0100
0100
0100
0100
0100
0100
0100
FFFF
FF80
0180
0180
0180
0180
0180
0180
0180
ENDCHAR
STARTCHAR 2549
ENCODING 9545
SWIDTH 960 0
DWIDTH 16 0
BBX 16 17 0 -3
BITMAP
0180
0180
0180
0180
0180
0180
0180
0180
FFFF
FF80
0180
0180
0180
0180
0180
0180
0180
ENDCHAR
STARTCHAR 254A
ENCODING 9546
SWIDTH 960 0
DWIDTH 16 0
BBX 16 17 0 -3
BITMAP
0180
0180
0180
0180
0180
0180
0180
0180
FFFF
0180
0180
0180
0180
0180
0180
0180
0180
ENDCHAR
STARTCHAR 254B
ENCODING 9547
SWIDTH 960 0
DWIDTH 16 0
BBX 16 17 0 -3
BITMAP
0180
0180
0180
0180
0180
0180
0180
0180
FFFF
FF80
0180
0180
0180
0180
0180
0180
0180
ENDCHAR
STARTCHAR 2592
ENCODING 9618
SWIDTH 960 0
DWIDTH 16 0
BBX 13 12 1 -1
BITMAP
FEB8
FEB8
FEB8
FEB8
FEB8
FEB8
FEB8
FEB8
0000
FEB8
0000
FEB8
ENDCHAR
STARTCHAR 25A0
ENCODING 9632
SWIDTH 960 0
DWIDTH 16 0
BBX 7 7 4 2
BITMAP
FE
FE
FE
FE
FE
FE
FE
ENDCHAR
STARTCHAR 25A1
ENCODING 9633
SWIDTH 960 0
DWIDTH 16 0
BBX 7 7 4 2
BITMAP
FE
82
82
82
82
82
FE
ENDCHAR
STARTCHAR 25A3
ENCODING 9635
SWIDTH 960 0
DWIDTH 16 0
BBX 11 12 2 -1
BITMAP
FFE0
8020
8020
9FA0
9FA0
9FA0
9FA0
9FA0
9FA0
8020
8020
FFE0
ENDCHAR
STARTCHAR 25A4
ENCODING 9636
SWIDTH 960 0
DWIDTH 16 0
BBX 13 13 1 -1
BITMAP
FFF8
8008
FFF8
8008
FFF8
8008
FFF8
FFF8
8008
FFF8
8008
FFF8
FFF8
ENDCHAR
STARTCHAR 25A5
ENCODING 9637
SWIDTH 960 0
DWIDTH 16 0
BBX 13 13 1 -1
BITMAP
FFF8
B568
B568
B568
B568
B568
B568
B568
B568
B568
B568
B568
FFF8
ENDCHAR
STARTCHAR 25A6
ENCODING 9638
SWIDTH 960 0
DWIDTH 16 0
BBX 13 13 1 -1
BITMAP
FFF8
B568
FFF8
B568
FFF8
B568
FFF8
FFF8
B568
FFF8
B568
FFF8
FFF8
ENDCHAR
STARTCHAR 25A7
ENCODING 9639
SWIDTH 960 0
DWIDTH 16 0
BBX 13 13 1 -1
BITMAP
FFF8
D4A8
AA58
D528
AA98
9548
CAA8
A558
D2A8
A958
D4A8
AA58
FFF8
ENDCHAR
STARTCHAR 25A8
ENCODING 9640
SWIDTH 960 0
DWIDTH 16 0
BBX 13 13 1 -1
BITMAP
FFF8
A558
CAA8
9548
AA98
D528
AA58
D4A8
A958
D2A8
A548
CA98
FFF8
ENDCHAR
STARTCHAR 25A9
ENCODING 9641
SWIDTH 960 0
DWIDTH 16 0
BBX 13 13 1 -1
BITMAP
FFF8
D258
ADA8
DDD8
DAD8
A528
DAD8
DDD8
ADA8
D258
EDB8
EDB8
FFF8
ENDCHAR
STARTCHAR 25B1
ENCODING 9649
SWIDTH 960 0
DWIDTH 16 0
BBX 11 7 2 2
BITMAP
3FE0
4020
4020
4040
8040
8040
FFC0
ENDCHAR
STARTCHAR 25B2
ENCODING 9650
SWIDTH 960 0
DWIDTH 16 0
BBX 12 10 2 1
BITMAP
0400
0E00
0F00
1F00
1F80
3F80
7FC0
7FC0
FFE0
FFF0
ENDCHAR
STARTCHAR 25B3
ENCODING 9651
SWIDTH 960 0
DWIDTH 16 0
BBX 12 10 2 1
BITMAP
0400
0A00
0900
1100
1080
2080
4040
4040
8020
FFF0
ENDCHAR
STARTCHAR 25B5
ENCODING 9653
SWIDTH 960 0
DWIDTH 16 0
BBX 11 9 2 2
BITMAP
0400
0E00
0A00
1B00
1180
3080
60C0
6040
FFE0
ENDCHAR
STARTCHAR 25B6
ENCODING 9654
SWIDTH 960 0
DWIDTH 16 0
BBX 10 12 3 -1
BITMAP
8000
E000
F000
FC00
FF00
FFC0
FF80
FE00
FC00
F000
C000
8000
ENDCHAR
STARTCHAR 25B7
ENCODING 9655
SWIDTH 960 0
DWIDTH 16 0
BBX 10 12 3 -1
BITMAP
8000
E000
9000
8C00
8300
80C0
8080
8300
8C00
B000
C000
8000
ENDCHAR
STARTCHAR 25B9
ENCODING 9657
SWIDTH 960 0
DWIDTH 16 0
BBX 9 10 4 0
BITMAP
C000
F000
9800
8E00
8380
8300
8E00
B800
E000
8000
ENDCHAR
STARTCHAR 25BC
ENCODING 9660
SWIDTH 960 0
DWIDTH 16 0
BBX 11 10 2 0
BITMAP
FFE0
FFE0
7FC0
3FC0
3F80
1F00
1F00
0E00
0600
0400
ENDCHAR
STARTCHAR 25BD
ENCODING 9661
SWIDTH 960 0
DWIDTH 16 0
BBX 11 10 2 0
BITMAP
FFE0
8020
4040
2040
2080
1100
1100
0A00
0600
0400
ENDCHAR
STARTCHAR 25BF
ENCODING 9663
SWIDTH 960 0
DWIDTH 16 0
BBX 11 10 2 0
BITMAP
FFE0
FFE0
6040
20C0
3180
1100
1B00
0E00
0600
0400
ENDCHAR
STARTCHAR 25C0
ENCODING 9664
SWIDTH 960 0
DWIDTH 16 0
BBX 9 11 3 -1
BITMAP
0080
0180
0780
1F80
7F80
FF80
FF80
3F80
0F80
0780
0180
ENDCHAR
STARTCHAR 25C1
ENCODING 9665
SWIDTH 960 0
DWIDTH 16 0
BBX 9 11 3 -1
BITMAP
0080
0180
0680
1880
6080
8080
C080
3080
0880
0680
0180
ENDCHAR
STARTCHAR 25C3
ENCODING 9667
SWIDTH 960 0
DWIDTH 16 0
BBX 10 11 2 -1
BITMAP
0040
01C0
03C0
0EC0
38C0
E0C0
70C0
18C0
0EC0
03C0
00C0
ENDCHAR
STARTCHAR 25C6
ENCODING 9670
SWIDTH 960 0
DWIDTH 16 0
BBX 10 10 3 0
BITMAP
0C00
1E00
3F00
7F80
FFC0
FF80
7F00
3E00
1C00
0800
ENDCHAR
STARTCHAR 25C7
ENCODING 9671
SWIDTH 960 0
DWIDTH 16 0
BBX 10 10 3 0
BITMAP
0C00
1600
2300
4180
80C0
8080
4100
2200
1400
0800
ENDCHAR
STARTCHAR 25C8
ENCODING 9672
SWIDTH 960 0
DWIDTH 16 0
BBX 14 14 1 -2
BITMAP
0300
0580
08C0
1260
2730
4F98
9FCC
9FC8
4F90
2720
1240
0880
0500
0200
ENDCHAR
STARTCHAR 25CA
ENCODING 9674
SWIDTH 960 0
DWIDTH 16 0
BBX 11 13 2 -2
BITMAP
0400
0E00
0B00
1180
2080
6040
C020
4060
60C0
3080
1900
0A00
0600
ENDCHAR
STARTCHAR 25CB
ENCODING 9675
SWIDTH 960 0
DWIDTH 16 0
BBX 9 9 3 1
BITMAP
1C00
6300
4080
8080
8080
8080
4080
4100
3E00
ENDCHAR
STARTCHAR 25CC
ENCODING 9676
SWIDTH 960 0
DWIDTH 16 0
BBX 14 14 1 -2
BITMAP
1AC0
0000
4010
8000
8008
0000
8004
0004
0000
8008
0000
4010
0000
1A40
ENDCHAR
STARTCHAR 25CE
ENCODING 9678
SWIDTH 960 0
DWIDTH 16 0
BBX 13 14 1 -2
BITMAP
0780
1860
2230
4D90
9048
A028
A028
A028
A028
9048
4F90
2020
18C0
0700
ENDCHAR
STARTCHAR 25CF
ENCODING 9679
SWIDTH 960 0
DWIDTH 16 0
BBX 9 9 3 1
BITMAP
1C00
7F00
7F80
FF80
FF80
FF80
7F80
7F00
3E00
ENDCHAR
STARTCHAR 25D0
ENCODING 9680
SWIDTH 960 0
DWIDTH 16 0
BBX 13 13 1 -1
BITMAP
0200
1FC0
3E20
7E10
7E08
FE08
FE08
FE08
FE08
7E10
7E10
3E20
0FC0
ENDCHAR
STARTCHAR 25D1
ENCODING 9681
SWIDTH 960 0
DWIDTH 16 0
BBX 13 13 1 -1
BITMAP
0200
1DC0
21E0
41F0
41F8
81F8
81F8
81F8
81F8
41F0
61F0
31E0
0FC0
ENDCHAR
STARTCHAR 25E6
ENCODING 9702
SWIDTH 960 0
DWIDTH 16 0
BBX 11 10 2 0
BITMAP
1F00
30C0
6040
4060
C020
4060
4060
60C0
3180
1F00
ENDCHAR
STARTCHAR 25EF
ENCODING 9711
SWIDTH 960 0
DWIDTH 16 0
BBX 14 14 1 -2
BITMAP
1FC0
2020
4010
8008
8008
8004
8004
8004
8004
8008
8008
4010
3020
0FC0
ENDCHAR
STARTCHAR 2605
ENCODING 9733
SWIDTH 960 0
DWIDTH 16 0
BBX 12 11 2 -1
BITMAP
0400
0400
0600
0600
FFF0
7FE0
3F80
1F00
1F80
3980
30C0
ENDCHAR
STARTCHAR 2606
ENCODING 9734
SWIDTH 960 0
DWIDTH 16 0
BBX 12 11 2 -1
BITMAP
0400
0400
0600
0A00
F9F0
4060
3080
1100
1680
2980
30C0
ENDCHAR
STARTCHAR 260E
ENCODING 9742
SWIDTH 960 0
DWIDTH 16 0
BBX 13 9 1 1
BITMAP
0700
7FF0
F8B8
0F80
78F8
1840
18E0
3DE0
3FE0
ENDCHAR
STARTCHAR 260F
ENCODING 9743
SWIDTH 960 0
DWIDTH 16 0
BBX 13 9 1 1
BITMAP
0700
7FF0
9CC8
ABA8
5750
18C0
28A0
2720
3FE0
ENDCHAR
STARTCHAR 261C
ENCODING 9756
SWIDTH 960 0
DWIDTH 16 0
BBX 13 5 1 3
BITMAP
7F80
E578
1B18
1ED8
0FF8
ENDCHAR
STARTCHAR 261D
ENCODING 9757
SWIDTH 960 0
DWIDTH 16 0
BBX 5 12 5 -1
BITMAP
08
18
18
38
F8
F8
D8
A8
A8
90
F0
70
ENDCHAR
STARTCHAR 261E
ENCODING 9758
SWIDTH 960 0
DWIDTH 16 0
BBX 12 5 2 3
BITMAP
0FE0
F270
8D80
9700
FF00
ENDCHAR
STARTCHAR 261F
ENCODING 9759
SWIDTH 960 0
DWIDTH 16 0
BBX 4 12 6 -1
BITMAP
F0
A0
90
D0
B0
F0
B0
B0
70
30
30
10
ENDCHAR
STARTCHAR 262F
ENCODING 9775
SWIDTH 960 0
DWIDTH 16 0
BBX 13 12 1 -1
BITMAP
1FC0
2020
4010
4008
80E8
81F8
C3F8
77F8
7FF0
3FF0
3FE0
0F80
ENDCHAR
STARTCHAR 2640
ENCODING 9792
SWIDTH 960 0
DWIDTH 16 0
BBX 10 14 3 -2
BITMAP
3E00
2300
2300
2300
3E00
1C00
0800
FFC0
FFC0
0800
0800
0800
0800
0800
ENDCHAR
STARTCHAR 2642
ENCODING 9794
SWIDTH 960 0
DWIDTH 16 0
BBX 9 14 3 -1
BITMAP
0C00
1C00
3A00
6B00
C980
0800
0800
0800
1E00
3200
2300
2300
3200
1E00
ENDCHAR
STARTCHAR 2660
ENCODING 9824
SWIDTH 960 0
DWIDTH 16 0
BBX 10 13 3 -1
BITMAP
0800
0800
0C00
1C00
3E00
7F00
FF80
FFC0
FFC0
FF80
0800
0C00
3F00
ENDCHAR
STARTCHAR 2661
ENCODING 9825
SWIDTH 960 0
DWIDTH 16 0
BBX 11 11 2 -1
BITMAP
31C0
4A20
8420
8020
8020
4040
2080
1080
0900
0A00
0400
ENDCHAR
STARTCHAR 2663
ENCODING 9827
SWIDTH 960 0
DWIDTH 16 0
BBX 11 12 2 -1
BITMAP
0E00
1F00
1F00
1F00
7FC0
FFE0
FFE0
FFE0
7FC0
0400
0600
1F80
ENDCHAR
STARTCHAR 2664
ENCODING 9828
SWIDTH 960 0
DWIDTH 16 0
BBX 10 13 3 -1
BITMAP
0800
0800
0C00
1400
2200
4100
8080
8040
8040
9680
7500
1400
3F00
ENDCHAR
STARTCHAR 2665
ENCODING 9829
SWIDTH 960 0
DWIDTH 16 0
BBX 11 11 2 -1
BITMAP
31C0
7BE0
FFE0
FFE0
7FE0
7FC0
3F80
1F80
0F00
0E00
0400
ENDCHAR
STARTCHAR 2667
ENCODING 9831
SWIDTH 960 0
DWIDTH 16 0
BBX 11 12 2 -1
BITMAP
0E00
1100
1100
1100
71C0
8020
8020
8A20
7BC0
0A00
0A00
1F80
ENDCHAR
STARTCHAR 2668
ENCODING 9832
SWIDTH 960 0
DWIDTH 16 0
BBX 13 14 1 -2
BITMAP
0200
0940
0AC0
0A80
0A80
0BC0
0B40
0D40
6B50
8AC8
8A88
E098
7FF0
0F80
ENDCHAR
STARTCHAR 2669
ENCODING 9833
SWIDTH 960 0
DWIDTH 16 0
BBX 4 14 5 -2
BITMAP
10
10
10
10
10
10
10
10
10
10
70
F0
F0
E0
ENDCHAR
STARTCHAR 266A
ENCODING 9834
SWIDTH 960 0
DWIDTH 16 0
BBX 7 14 4 -2
BITMAP
10
10
18
1C
16
12
12
12
12
12
74
F0
F0
E0
ENDCHAR
STARTCHAR 266C
ENCODING 9836
SWIDTH 960 0
DWIDTH 16 0
BBX 11 12 2 -1
BITMAP
01E0
1FE0
1C60
17E0
1F20
1020
1020
11E0
33E0
F3C0
F180
E000
ENDCHAR
STARTCHAR 266D
ENCODING 9837
SWIDTH 960 0
DWIDTH 16 0
BBX 4 12 6 -2
BITMAP
80
80
80
80
80
F0
90
90
90
B0
C0
80
ENDCHAR
STARTCHAR 266F
ENCODING 9839
SWIDTH 960 0
DWIDTH 16 0
BBX 9 13 3 -1
BITMAP
0200
1200
1200
1200
7F80
F200
1200
1200
1F80
FA00
1200
1200
1200
ENDCHAR
STARTCHAR 2716
ENCODING 10006
SWIDTH 960 0
DWIDTH 16 0
BBX 11 11 2 0
BITMAP
0080
31C0
7BE0
FFE0
7FC0
3F80
3F80
7FC0
FFE0
7BC0
3180
ENDCHAR
STARTCHAR 271A
ENCODING 10010
SWIDTH 960 0
DWIDTH 16 0
BBX 12 12 2 -1
BITMAP
0F00
0F00
0F00
0F00
FFF0
FFF0
FFF0
FFF0
0F00
0F00
0F00
0F00
ENDCHAR
STARTCHAR 273D
ENCODING 10045
SWIDTH 960 0
DWIDTH 16 0
BBX 9 9 3 1
BITMAP
0C00
0800
4980
FB80
1E00
3E00
EB80
4800
0800
ENDCHAR
STARTCHAR 2756
ENCODING 10070
SWIDTH 960 0
DWIDTH 16 0
BBX 11 12 2 -1
BITMAP
0400
0E00
1F00
0E00
64C0
F1E0
F1E0
64C0
0E00
1F00
0E00
0400
ENDCHAR
STARTCHAR 2776
ENCODING 10102
SWIDTH 960 0
DWIDTH 16 0
BBX 15 15 0 -2
BITMAP
0180
0FE0
1FF8
3C7C
7C7C
7E7E
FE7E
FE7E
FE7E
FE7E
7E7E
7E7C
3E78
1FF0
0FE0
ENDCHAR
STARTCHAR 2777
ENCODING 10103
SWIDTH 960 0
DWIDTH 16 0
BBX 15 15 0 -2
BITMAP
0180
0FE0
1FF8
3C3C
7BBC
7FBE
FFBE
FF3E
FF7E
FEFE
7DFE
781C
3818
1FF0
0FE0
ENDCHAR
STARTCHAR 2778
ENCODING 10104
SWIDTH 960 0
DWIDTH 16 0
BBX 15 15 0 -2
BITMAP
0180
0FE0
1FF8
383C
7BBC
7FBE
FFBE
FE7E
FFBE
FF9E
7B9E
793C
3C78
1FF0
0FE0
ENDCHAR
STARTCHAR 2779
ENCODING 10105
SWIDTH 960 0
DWIDTH 16 0
BBX 15 15 0 -2
BITMAP
0180
0FE0
1FF8
3F7C
7E7C
7D7E
FD7E
FB7E
FB7E
F01E
7F7E
7F7C
3F78
1FF0
0FE0
ENDCHAR
STARTCHAR 277A
ENCODING 10106
SWIDTH 960 0
DWIDTH 16 0
BBX 15 15 0 -2
BITMAP
0180
0FE0
1FF8
383C
7BFC
7BFE
FBFE
F83E
FF9E
FF9E
7B9E
793C
3C78
1FF0
0FE0
ENDCHAR
STARTCHAR 277B
ENCODING 10107
SWIDTH 960 0
DWIDTH 16 0
BBX 15 15 0 -2
BITMAP
0180
0FE0
1FF8
3C3C
799C
7BFE
FBFE
F83E
FB9E
FB9E
7B9E
7D3C
3E78
1FF0
0FE0
ENDCHAR
STARTCHAR 277C
ENCODING 10108
SWIDTH 960 0
DWIDTH 16 0
BBX 15 15 0 -2
BITMAP
0180
0FE0
1FF8
381C
7F9C
7FBE
FF3E
FF7E
FF7E
FE7E
7EFE
7CFC
3DF8
1FF0
0FE0
ENDCHAR
STARTCHAR 277D
ENCODING 10109
SWIDTH 960 0
DWIDTH 16 0
BBX 15 15 0 -2
BITMAP
0180
0FE0
1FF8
383C
7BBC
7BBE
FBBE
FC7E
FBBE
FB9E
7B9E
793C
3C78
1FF0
0FE0
ENDCHAR
STARTCHAR 277E
ENCODING 10110
SWIDTH 960 0
DWIDTH 16 0
BBX 15 15 0 -2
BITMAP
0180
0FE0
1FF8
3C3C
7BBC
7B9E
FB9E
F99E
FC1E
FF9E
7BBE
793C
3E78
1FF0
0FE0
ENDCHAR
STARTCHAR 277F
ENCODING 10111
SWIDTH 960 0
DWIDTH 16 0
BBX 15 15 0 -2
BITMAP
0180
0FE0
1FF8
339C
634C
7A6E
FAEE
FAEE
FAEE
FA6E
7B6E
7B0C
3FB8
1FF0
0FE0
ENDCHAR
STARTCHAR 278A
ENCODING 10122
SWIDTH 960 0
DWIDTH 16 0
BBX 15 15 0 -2
BITMAP
03C0
0FF0
3E78
3C7C
7C7E
7E7E
FE7E
FE7E
FE7E
FE7E
7E7E
7E7E
3E7C
1FF8
0FF0
ENDCHAR
STARTCHAR 278B
ENCODING 10123
SWIDTH 960 0
DWIDTH 16 0
BBX 15 15 0 -2
BITMAP
03C0
0FF0
3C38
3C3C
799E
799E
FF3E
FF3E
FE7E
FE7E
7CFE
783E
383C
1FF8
0FF0
ENDCHAR
STARTCHAR 278C
ENCODING 10124
SWIDTH 960 0
DWIDTH 16 0
BBX 15 15 0 -2
BITMAP
03C0
0FF0
3E78
3C3C
793E
793E
FF3E
FE3E
FE3E
FFBE
79BE
793E
3C3C
1FF8
0FF0
ENDCHAR
STARTCHAR 278D
ENCODING 10125
SWIDTH 960 0
DWIDTH 16 0
BBX 15 15 0 -2
BITMAP
03C0
0FF0
3E78
3E7C
7C7E
7C7E
FD7E
F97E
FB7E
F03E
703E
7F7E
3F7C
1FF8
0FF0
ENDCHAR
STARTCHAR 278E
ENCODING 10126
SWIDTH 960 0
DWIDTH 16 0
BBX 15 15 0 -2
BITMAP
03C0
0FF0
3838
383C
79FE
79FE
F83E
F83E
FFBE
FFBE
79BE
793E
3C3C
1FF8
0FF0
ENDCHAR
STARTCHAR 278F
ENCODING 10127
SWIDTH 960 0
DWIDTH 16 0
BBX 15 15 0 -2
BITMAP
03C0
0FF0
3E78
3C3C
799E
799E
F9FE
F83E
F99E
F99E
799E
783E
3C3C
1FF8
0FF0
ENDCHAR
STARTCHAR 2790
ENCODING 10128
SWIDTH 960 0
DWIDTH 16 0
BBX 15 15 0 -2
BITMAP
03C0
0FF0
3FF8
383C
7F3E
7F3E
FF3E
FF3E
FE7E
FE7E
7E7E
7E7E
3CFC
1FF8
0FF0
ENDCHAR
STARTCHAR 2791
ENCODING 10129
SWIDTH 960 0
DWIDTH 16 0
BBX 15 15 0 -2
BITMAP
03C0
0FF0
3E78
3C3C
793E
793E
F93E
FC3E
F83E
F9BE
79BE
793E
3C3C
1EF8
0FF0
ENDCHAR
STARTCHAR 2792
ENCODING 10130
SWIDTH 960 0
DWIDTH 16 0
BBX 15 15 0 -2
BITMAP
03C0
0FF0
3C78
383C
79BE
79BE
F9BE
F93E
FC3E
FFBE
79BE
793E
3C3C
1FF8
0FF0
ENDCHAR
STARTCHAR 2793
ENCODING 10131
SWIDTH 960 0
DWIDTH 16 0
BBX 15 15 0 -2
BITMAP
03C0
0FF0
3FF8
330C
636E
7B6E
FB6E
FB6E
FB6E
FB6E
7B6E
7B0E
3B0C
1FF8
0FF0
ENDCHAR
STARTCHAR 3000
ENCODING 12288
SWIDTH 960 0
DWIDTH 16 0
BBX 0 0 0 0
BITMAP
ENDCHAR
STARTCHAR 3001
ENCODING 12289
SWIDTH 300 0
DWIDTH 5 0
BBX 5 4 0 -2
BITMAP
C0
70
38
10
ENDCHAR
STARTCHAR 3002
ENCODING 12290
SWIDTH 300 0
DWIDTH 5 0
BBX 3 3 1 -1
BITMAP
E0
A0
E0
ENDCHAR
STARTCHAR 3003
ENCODING 12291
SWIDTH 960 0
DWIDTH 16 0
BBX 7 5 4 3
BITMAP
24
36
6C
48
D8
ENDCHAR
STARTCHAR 3008
ENCODING 12296
SWIDTH 480 0
DWIDTH 8 0
BBX 5 16 1 -3
BITMAP
08
18
18
30
20
60
C0
80
C0
40
60
20
30
18
08
08
ENDCHAR
STARTCHAR 3009
ENCODING 12297
SWIDTH 480 0
DWIDTH 8 0
BBX 5 15 1 -3
BITMAP
80
C0
40
60
30
10
18
08
08
18
30
20
60
C0
80
ENDCHAR
STARTCHAR 300A
ENCODING 12298
SWIDTH 480 0
DWIDTH 8 0
BBX 6 14 1 -2
BITMAP
1C
28
28
70
50
60
A0
A0
70
50
30
28
38
14
ENDCHAR
STARTCHAR 300B
ENCODING 12299
SWIDTH 480 0
DWIDTH 8 0
BBX 6 14 1 -2
BITMAP
A0
60
50
70
28
38
1C
18
28
38
70
50
E0
A0
ENDCHAR
STARTCHAR 300C
ENCODING 12300
SWIDTH 360 0
DWIDTH 6 0
BBX 5 7 1 6
BITMAP
F8
80
80
80
80
80
80
ENDCHAR
STARTCHAR 300D
ENCODING 12301
SWIDTH 360 0
DWIDTH 6 0
BBX 4 7 1 -2
BITMAP
10
10
10
10
10
10
F0
ENDCHAR
STARTCHAR 300E
ENCODING 12302
SWIDTH 360 0
DWIDTH 6 0
BBX 5 7 1 6
BITMAP
F8
B8
C0
C0
C0
C0
C0
ENDCHAR
STARTCHAR 300F
ENCODING 12303
SWIDTH 360 0
DWIDTH 6 0
BBX 5 7 0 -2
BITMAP
18
18
18
18
18
F8
F8
ENDCHAR
STARTCHAR 3010
ENCODING 12304
SWIDTH 480 0
DWIDTH 8 0
BBX 6 16 1 -3
BITMAP
F8
F0
E0
E0
C0
C0
C0
C0
C0
C0
C0
C0
E0
F0
F0
FC
ENDCHAR
STARTCHAR 3011
ENCODING 12305
SWIDTH 480 0
DWIDTH 8 0
BBX 6 16 1 -3
BITMAP
FC
7C
3C
1C
1C
0C
0C
0C
0C
0C
0C
1C
1C
3C
7C
FC
ENDCHAR
STARTCHAR 3012
ENCODING 12306
SWIDTH 960 0
DWIDTH 16 0
BBX 11 10 2 0
BITMAP
7FC0
0000
0000
FFE0
0400
0400
0400
0400
0400
0400
ENDCHAR
STARTCHAR 3013
ENCODING 12307
SWIDTH 960 0
DWIDTH 16 0
BBX 11 4 2 3
BITMAP
FFE0
0000
0000
FFE0
ENDCHAR
STARTCHAR 3014
ENCODING 12308
SWIDTH 360 0
DWIDTH 6 0
BBX 4 15 1 -2
BITMAP
10
30
C0
80
80
80
80
80
80
80
80
80
80
60
30
ENDCHAR
STARTCHAR 3015
ENCODING 12309
SWIDTH 360 0
DWIDTH 6 0
BBX 4 15 0 -2
BITMAP
80
C0
30
10
10
10
10
10
10
10
10
10
10
70
C0
ENDCHAR
STARTCHAR 3016
ENCODING 12310
SWIDTH 300 0
DWIDTH 5 0
BBX 3 14 1 -2
BITMAP
E0
A0
C0
C0
C0
C0
C0
C0
C0
C0
C0
C0
A0
E0
ENDCHAR
STARTCHAR 3017
ENCODING 12311
SWIDTH 300 0
DWIDTH 5 0
BBX 4 14 1 -2
BITMAP
F0
90
50
50
50
50
50
50
50
50
50
50
90
F0
ENDCHAR
STARTCHAR 3018
ENCODING 12312
SWIDTH 420 0
DWIDTH 7 0
BBX 5 14 1 -2
BITMAP
18
78
B0
A0
A0
A0
A0
A0
A0
A0
A0
F0
38
08
ENDCHAR
STARTCHAR 3019
ENCODING 12313
SWIDTH 420 0
DWIDTH 7 0
BBX 5 14 0 -2
BITMAP
60
50
38
18
18
18
18
18
18
18
18
28
F0
40
ENDCHAR
STARTCHAR 3020
ENCODING 12320
SWIDTH 960 0
DWIDTH 16 0
BBX 11 9 2 1
BITMAP
0C00
1B80
6760
92E0
8400
80A0
5020
2E20
1FC0
ENDCHAR
STARTCHAR 3036
ENCODING 12342
SWIDTH 960 0
DWIDTH 16 0
BBX 13 13 1 -1
BITMAP
0700
18C0
2020
5FF0
8008
8008
9FE8
8208
8208
8208
4210
2220
1FC0
ENDCHAR
STARTCHAR 3041
ENCODING 12353
SWIDTH 960 0
DWIDTH 16 0
BBX 9 9 3 -1
BITMAP
1000
1E00
F000
1E00
7F00
D580
9980
B180
DF00
ENDCHAR
STARTCHAR 3042
ENCODING 12354
SWIDTH 960 0
DWIDTH 16 0
BBX 12 13 1 -2
BITMAP
0C00
0C40
9FC0
7C00
0CC0
0FC0
3CB0
6D90
4F10
4E10
7C30
23E0
0080
ENDCHAR
STARTCHAR 3043
ENCODING 12355
SWIDTH 960 0
DWIDTH 16 0
BBX 10 8 2 0
BITMAP
4000
4000
C180
C080
40C0
4040
4800
3800
ENDCHAR
STARTCHAR 3044
ENCODING 12356
SWIDTH 960 0
DWIDTH 16 0
BBX 13 11 1 -1
BITMAP
4000
C000
C040
C060
C020
C030
C018
4018
4000
6600
3C00
ENDCHAR
STARTCHAR 3045
ENCODING 12357
SWIDTH 960 0
DWIDTH 16 0
BBX 5 9 5 -1
BITMAP
78
00
20
F8
08
08
08
18
70
ENDCHAR
STARTCHAR 3046
ENCODING 12358
SWIDTH 960 0
DWIDTH 16 0
BBX 7 14 4 -2
BITMAP
20
1C
04
00
38
FC
06
02
02
06
06
0C
38
20
ENDCHAR
STARTCHAR 3047
ENCODING 12359
SWIDTH 960 0
DWIDTH 16 0
BBX 9 9 3 -1
BITMAP
3C00
0000
7E00
E400
0800
1000
3C00
4C00
8F80
ENDCHAR
STARTCHAR 3048
ENCODING 12360
SWIDTH 960 0
DWIDTH 16 0
BBX 12 12 1 -1
BITMAP
1F80
0000
0000
FFC0
6180
0300
0600
0E00
1B00
3300
6300
43F0
ENDCHAR
STARTCHAR 3049
ENCODING 12361
SWIDTH 960 0
DWIDTH 16 0
BBX 9 9 3 -1
BITMAP
3000
3200
F980
3080
3F00
7180
B880
B980
F700
ENDCHAR
STARTCHAR 304A
ENCODING 12362
SWIDTH 960 0
DWIDTH 16 0
BBX 12 13 1 -2
BITMAP
0C00
0C00
0FE0
FE30
0C10
0FC0
1FF0
3C30
4E10
CF10
4F30
7DE0
0800
ENDCHAR
STARTCHAR 304B
ENCODING 12363
SWIDTH 960 0
DWIDTH 16 0
BBX 13 12 1 -2
BITMAP
0400
0C00
0800
FE00
1B60
1130
1110
3318
2318
2300
6200
4E00
ENDCHAR
STARTCHAR 304C
ENCODING 12364
SWIDTH 960 0
DWIDTH 16 0
BBX 13 12 1 -1
BITMAP
0C30
0878
0830
FE00
1340
1320
3330
3310
2310
6200
6200
4C00
ENDCHAR
STARTCHAR 304D
ENCODING 12365
SWIDTH 960 0
DWIDTH 16 0
BBX 10 13 2 -2
BITMAP
0400
0580
7F80
0600
9FC0
7F00
0300
3F00
6000
4000
4000
3F80
0400
ENDCHAR
STARTCHAR 304E
ENCODING 12366
SWIDTH 960 0
DWIDTH 16 0
BBX 12 13 2 -1
BITMAP
0020
0C30
0DF0
7FA0
0400
1FC0
FE00
0200
3F00
4000
C000
C000
7F80
ENDCHAR
STARTCHAR 304F
ENCODING 12367
SWIDTH 960 0
DWIDTH 16 0
BBX 6 12 4 -2
BITMAP
0C
0C
18
30
60
C0
60
30
30
18
0C
04
ENDCHAR
STARTCHAR 3050
ENCODING 12368
SWIDTH 960 0
DWIDTH 16 0
BBX 10 12 4 -1
BITMAP
0C00
1B80
3340
6100
6000
C000
C000
6000
3000
1000
1800
0C00
ENDCHAR
STARTCHAR 3051
ENCODING 12369
SWIDTH 960 0
DWIDTH 16 0
BBX 12 12 2 -1
BITMAP
C180
8180
8180
9FF0
8180
8180
8180
C180
C180
C100
C300
CE00
ENDCHAR
STARTCHAR 3052
ENCODING 12370
SWIDTH 960 0
DWIDTH 16 0
BBX 12 13 2 -1
BITMAP
0020
8150
81E0
8120
9FE0
9FE0
8100
8100
C100
C100
8100
8300
8E00
ENDCHAR
STARTCHAR 3053
ENCODING 12371
SWIDTH 960 0
DWIDTH 16 0
BBX 12 10 1 0
BITMAP
3FE0
1FE0
0000
0000
0000
0000
C000
4000
6000
3FF0
ENDCHAR
STARTCHAR 3054
ENCODING 12372
SWIDTH 960 0
DWIDTH 16 0
BBX 14 12 1 0
BITMAP
0010
0028
403C
3FD0
0000
0000
0000
0000
8000
C000
C000
7FF0
ENDCHAR
STARTCHAR 3055
ENCODING 12373
SWIDTH 960 0
DWIDTH 16 0
BBX 10 12 2 -1
BITMAP
0C00
0400
05C0
1F00
F200
0300
0F80
3F80
6000
6000
6000
3F80
ENDCHAR
STARTCHAR 3056
ENCODING 12374
SWIDTH 960 0
DWIDTH 16 0
BBX 12 14 2 -2
BITMAP
0020
08D0
0C60
0DE0
0F00
FE00
0200
0300
3F80
6000
4000
6000
3F00
0E00
ENDCHAR
STARTCHAR 3057
ENCODING 12375
SWIDTH 960 0
DWIDTH 16 0
BBX 9 12 3 -1
BITMAP
8000
8000
8000
8000
8000
8000
8000
8000
8080
8180
8700
FC00
ENDCHAR
STARTCHAR 3058
ENCODING 12376
SWIDTH 960 0
DWIDTH 16 0
BBX 10 12 3 -1
BITMAP
8180
8340
8180
8000
8000
8000
8000
8000
8080
8180
8700
FC00
ENDCHAR
STARTCHAR 3059
ENCODING 12377
SWIDTH 960 0
DWIDTH 16 0
BBX 12 12 1 -2
BITMAP
0300
0300
FFF0
0300
0300
0F00
1B00
1100
1F00
0D00
0300
0600
ENDCHAR
STARTCHAR 305A
ENCODING 12378
SWIDTH 960 0
DWIDTH 16 0
BBX 13 14 1 -2
BITMAP
0030
0378
0330
FFF0
FFF0
0300
0F00
1B00
1100
1B00
0F00
0300
0600
0400
ENDCHAR
STARTCHAR 305B
ENCODING 12379
SWIDTH 960 0
DWIDTH 16 0
BBX 13 12 1 -1
BITMAP
10C0
10C0
10C0
13F8
FFC0
10C0
10C0
10C0
1380
1000
1800
0FE0
ENDCHAR
STARTCHAR 305C
ENCODING 12380
SWIDTH 960 0
DWIDTH 16 0
BBX 14 13 1 -1
BITMAP
0018
10FC
10D8
10C0
13F0
FFC0
10C0
10C0
10C0
1380
1000
1800
0FE0
ENDCHAR
STARTCHAR 305D
ENCODING 12381
SWIDTH 960 0
DWIDTH 16 0
BBX 13 12 1 -1
BITMAP
3F80
0180
0300
0600
0CF8
1F80
FE00
0C00
0C00
0C00
0600
03C0
ENDCHAR
STARTCHAR 305E
ENCODING 12382
SWIDTH 960 0
DWIDTH 16 0
BBX 13 13 1 -1
BITMAP
0010
3FA8
0190
0300
0600
0CF0
1F80
FE00
0C00
0C00
0C00
0600
03C0
ENDCHAR
STARTCHAR 305F
ENCODING 12383
SWIDTH 960 0
DWIDTH 16 0
BBX 12 12 1 -1
BITMAP
0C00
0800
0A00
FEC0
1070
1010
3000
2000
2000
6400
4700
41F0
ENDCHAR
STARTCHAR 3060
ENCODING 12384
SWIDTH 960 0
DWIDTH 16 0
BBX 13 12 1 0
BITMAP
0C50
0828
0A10
FEC0
1070
1010
3000
2000
2000
6400
4700
41F0
ENDCHAR
STARTCHAR 3061
ENCODING 12385
SWIDTH 960 0
DWIDTH 16 0
BBX 12 13 1 -2
BITMAP
0C00
0C40
0FC0
9E00
7C00
0C00
0FE0
0C30
0810
0030
0060
0FC0
0600
ENDCHAR
STARTCHAR 3062
ENCODING 12386
SWIDTH 960 0
DWIDTH 16 0
BBX 13 14 1 -2
BITMAP
0010
0C68
0C78
0DD0
9E00
7C00
0C00
0FE0
0C30
0830
0030
0060
1FC0
0400
ENDCHAR
STARTCHAR 3063
ENCODING 12387
SWIDTH 960 0
DWIDTH 16 0
BBX 9 7 3 1
BITMAP
1E00
7180
C080
8080
0080
0380
1E00
ENDCHAR
STARTCHAR 3064
ENCODING 12388
SWIDTH 960 0
DWIDTH 16 0
BBX 13 10 1 0
BITMAP
0180
0FE0
3830
E018
8018
0018
0018
0030
07E0
0300
ENDCHAR
STARTCHAR 3065
ENCODING 12389
SWIDTH 960 0
DWIDTH 16 0
BBX 14 12 1 0
BITMAP
0018
002C
0010
0FE0
3830
E010
8018
0018
0010
0030
07E0
0300
ENDCHAR
STARTCHAR 3066
ENCODING 12390
SWIDTH 960 0
DWIDTH 16 0
BBX 11 12 2 -1
BITMAP
00E0
FFC0
C600
0C00
0800
1800
1800
1800
1800
0800
0C00
07C0
ENDCHAR
STARTCHAR 3067
ENCODING 12391
SWIDTH 960 0
DWIDTH 16 0
BBX 12 12 2 -1
BITMAP
00E0
FFC0
C600
0C20
08D0
1860
1800
1800
1800
0800
0C00
07C0
ENDCHAR
STARTCHAR 3068
ENCODING 12392
SWIDTH 960 0
DWIDTH 16 0
BBX 10 12 2 -1
BITMAP
0800
0800
0800
0800
09C0
0F00
3C00
6000
C000
C000
6000
3FC0
ENDCHAR
STARTCHAR 3069
ENCODING 12393
SWIDTH 960 0
DWIDTH 16 0
BBX 11 12 2 -1
BITMAP
0840
09A0
0840
0800
09C0
0F80
3C00
6000
C000
C000
6000
3FC0
ENDCHAR
STARTCHAR 306A
ENCODING 12394
SWIDTH 960 0
DWIDTH 16 0
BBX 11 12 2 -2
BITMAP
1800
1800
FC00
F3C0
30E0
21A0
2180
6180
4F80
D9E0
9120
1F00
ENDCHAR
STARTCHAR 306B
ENCODING 12395
SWIDTH 960 0
DWIDTH 16 0
BBX 11 12 2 -1
BITMAP
C000
C000
8FE0
8000
8000
8000
8000
8000
8000
D000
CFE0
4000
ENDCHAR
STARTCHAR 306C
ENCODING 12396
SWIDTH 960 0
DWIDTH 16 0
BBX 12 12 1 -1
BITMAP
0300
4300
4200
4FC0
7E60
7430
6C10
FC10
DBF0
9A30
D670
73D0
ENDCHAR
STARTCHAR 306D
ENCODING 12397
SWIDTH 960 0
DWIDTH 16 0
BBX 13 12 1 -1
BITMAP
1800
1800
1800
FBC0
1E60
3820
3820
7820
7BE0
DE30
9A78
1980
ENDCHAR
STARTCHAR 306E
ENCODING 12398
SWIDTH 960 0
DWIDTH 16 0
BBX 12 11 1 -1
BITMAP
0F80
39C0
6360
4230
C610
C410
CC10
5810
7030
30E0
0380
ENDCHAR
STARTCHAR 306F
ENCODING 12399
SWIDTH 960 0
DWIDTH 16 0
BBX 12 12 1 -1
BITMAP
40C0
40C0
40F0
4FF0
40C0
40C0
C0C0
C7C0
6FE0
48F0
48D0
6F90
ENDCHAR
STARTCHAR 3070
ENCODING 12400
SWIDTH 960 0
DWIDTH 16 0
BBX 14 13 1 -1
BITMAP
0018
40FC
40D0
40F0
4FF0
40C0
C0C0
C0C0
C7C0
EFC0
48E0
4890
6F90
ENDCHAR
STARTCHAR 3071
ENCODING 12401
SWIDTH 960 0
DWIDTH 16 0
BBX 13 13 1 0
BITMAP
0038
40E8
40F8
40F0
4FF0
40C0
C0C0
C0C0
C7C0
EFC0
48E0
4890
6F90
ENDCHAR
STARTCHAR 3072
ENCODING 12402
SWIDTH 960 0
DWIDTH 16 0
BBX 13 12 1 -1
BITMAP
0180
08C0
F8E0
D0F0
3058
2040
6040
6040
60C0
6080
2180
1F00
ENDCHAR
STARTCHAR 3073
ENCODING 12403
SWIDTH 960 0
DWIDTH 16 0
BBX 14 13 1 -1
BITMAP
0018
01BC
08D0
F8E0
D0F0
3058
2040
6040
6040
60C0
6080
2180
1F00
ENDCHAR
STARTCHAR 3074
ENCODING 12404
SWIDTH 960 0
DWIDTH 16 0
BBX 14 13 1 -1
BITMAP
0038
01A4
08F8
F8E0
D0F0
3058
2040
6040
6040
60C0
6080
2180
1F00
ENDCHAR
STARTCHAR 3075
ENCODING 12405
SWIDTH 960 0
DWIDTH 16 0
BBX 13 12 1 -1
BITMAP
1C00
0700
0000
1800
1000
1E60
0330
1190
3098
E080
9180
0F00
ENDCHAR
STARTCHAR 3076
ENCODING 12406
SWIDTH 960 0
DWIDTH 16 0
BBX 13 12 1 -1
BITMAP
1C10
0668
0230
1800
1000
1C60
0730
1190
3098
E080
9180
0F00
ENDCHAR
STARTCHAR 3077
ENCODING 12407
SWIDTH 960 0
DWIDTH 16 0
BBX 13 13 1 -1
BITMAP
0010
1C78
0648
0230
1800
1000
1C60
0730
1190
3098
E080
9180
0F00
ENDCHAR
STARTCHAR 3078
ENCODING 12408
SWIDTH 960 0
DWIDTH 16 0
BBX 13 7 1 1
BITMAP
1C00
3700
6180
C0C0
0060
0030
0018
ENDCHAR
STARTCHAR 3079
ENCODING 12409
SWIDTH 960 0
DWIDTH 16 0
BBX 13 11 1 0
BITMAP
0020
0050
0068
0020
1C00
3700
6180
C0C0
0060
0030
0010
ENDCHAR
STARTCHAR 307A
ENCODING 12410
SWIDTH 960 0
DWIDTH 16 0
BBX 13 11 1 0
BITMAP
0030
0058
0048
0030
1C00
3700
6180
C0C0
0060
0030
0010
ENDCHAR
STARTCHAR 307B
ENCODING 12411
SWIDTH 960 0
DWIDTH 16 0
BBX 12 12 1 -1
BITMAP
6060
4FC0
40C0
40F0
CFE0
C8C0
C0C0
40C0
6FC0
68E0
68D0
6790
ENDCHAR
STARTCHAR 307C
ENCODING 12412
SWIDTH 960 0
DWIDTH 16 0
BBX 14 14 1 -1
BITMAP
0010
0028
4074
4FD0
4080
C0F0
CFE0
CCC0
C0C0
C0C0
EFC0
48E0
48B0
6F90
ENDCHAR
STARTCHAR 307D
ENCODING 12413
SWIDTH 960 0
DWIDTH 16 0
BBX 14 14 1 -1
BITMAP
0018
0034
4074
4FD8
4080
C0F0
CFE0
CCC0
C0C0
C0C0
EFC0
48E0
48B0
6F90
ENDCHAR
STARTCHAR 307E
ENCODING 12414
SWIDTH 960 0
DWIDTH 16 0
BBX 11 13 2 -2
BITMAP
0600
0600
FFE0
0600
0600
7FC0
0600
0600
7E00
C780
C6C0
7C40
1000
ENDCHAR
STARTCHAR 307F
ENCODING 12415
SWIDTH 960 0
DWIDTH 16 0
BBX 13 12 1 -1
BITMAP
1F00
0300
0300
0220
0220
3E60
7FE0
CCE0
CCF0
7098
0180
0E00
ENDCHAR
STARTCHAR 3080
ENCODING 12416
SWIDTH 960 0
DWIDTH 16 0
BBX 12 12 1 -1
BITMAP
0800
0800
0A00
7E60
0830
7810
5800
C800
7820
3020
2020
3FE0
ENDCHAR
STARTCHAR 3081
ENCODING 12417
SWIDTH 960 0
DWIDTH 16 0
BBX 11 12 2 -1
BITMAP
4100
4300
6300
7F80
72C0
E660
B420
9C20
9820
9060
F0C0
0780
ENDCHAR
STARTCHAR 3082
ENCODING 12418
SWIDTH 960 0
DWIDTH 16 0
BBX 11 12 2 -2
BITMAP
0800
0800
FC00
1E00
1800
9040
FE60
1020
3020
1020
1860
0FC0
ENDCHAR
STARTCHAR 3083
ENCODING 12419
SWIDTH 960 0
DWIDTH 16 0
BBX 9 9 3 -1
BITMAP
4800
4F00
7D80
E480
2080
3700
1000
1000
1800
ENDCHAR
STARTCHAR 3084
ENCODING 12420
SWIDTH 960 0
DWIDTH 16 0
BBX 13 13 1 -2
BITMAP
2600
23E0
37F0
3D18
F198
9818
0830
08E0
0C00
0C00
0400
0600
0400
ENDCHAR
STARTCHAR 3085
ENCODING 12421
SWIDTH 960 0
DWIDTH 16 0
BBX 9 9 3 -1
BITMAP
8C00
8E00
BF00
ED80
CC80
ED80
DF00
8800
3000
ENDCHAR
STARTCHAR 3086
ENCODING 12422
SWIDTH 960 0
DWIDTH 16 0
BBX 11 12 2 -1
BITMAP
0200
C200
8FC0
9EE0
B220
E220
D220
DA60
CFC0
4700
0C00
1800
ENDCHAR
STARTCHAR 3087
ENCODING 12423
SWIDTH 960 0
DWIDTH 16 0
BBX 7 9 4 -2
BITMAP
18
18
1E
1E
18
18
F8
9E
F2
ENDCHAR
STARTCHAR 3088
ENCODING 12424
SWIDTH 960 0
DWIDTH 16 0
BBX 11 13 2 -2
BITMAP
0600
0600
0600
06C0
07E0
0600
0600
1E00
7F00
C780
C4C0
7C40
3000
ENDCHAR
STARTCHAR 3089
ENCODING 12425
SWIDTH 960 0
DWIDTH 16 0
BBX 11 12 2 -1
BITMAP
3000
0C00
4000
4000
4780
DFC0
F060
E060
C060
0040
01C0
3F00
ENDCHAR
STARTCHAR 308A
ENCODING 12426
SWIDTH 960 0
DWIDTH 16 0
BBX 7 12 4 -1
BITMAP
C6
86
86
86
86
C6
C6
84
04
04
08
30
ENDCHAR
STARTCHAR 308B
ENCODING 12427
SWIDTH 960 0
DWIDTH 16 0
BBX 10 12 3 -2
BITMAP
FF00
0300
0600
0C00
1800
3F80
6080
80C0
1840
24C0
2580
3F00
ENDCHAR
STARTCHAR 308C
ENCODING 12428
SWIDTH 960 0
DWIDTH 16 0
BBX 13 12 1 -1
BITMAP
0800
0800
0DC0
FFC0
4EC0
1CC0
18C0
38C0
78D0
68D8
C8F0
0860
ENDCHAR
STARTCHAR 308D
ENCODING 12429
SWIDTH 960 0
DWIDTH 16 0
BBX 11 12 2 -1
BITMAP
7F80
0180
0600
0C00
1F80
3CE0
7020
C020
8020
0060
00C0
0F00
ENDCHAR
STARTCHAR 308E
ENCODING 12430
SWIDTH 960 0
DWIDTH 16 0
BBX 9 9 3 -1
BITMAP
2000
2000
F000
3F00
7180
6080
E180
A300
2600
ENDCHAR
STARTCHAR 308F
ENCODING 12431
SWIDTH 960 0
DWIDTH 16 0
BBX 13 12 1 -1
BITMAP
0800
0800
0800
7C00
0FE0
1E30
3818
3818
6810
C830
08E0
0980
ENDCHAR
STARTCHAR 3090
ENCODING 12432
SWIDTH 960 0
DWIDTH 16 0
BBX 12 12 1 -1
BITMAP
3E00
0300
0200
0300
1FE0
3430
6430
4C10
CFD0
DA70
7270
03E0
ENDCHAR
STARTCHAR 3091
ENCODING 12433
SWIDTH 960 0
DWIDTH 16 0
BBX 12 13 1 -2
BITMAP
3F80
0300
0600
0FC0
1860
6E60
4B40
0FC0
0C60
19F0
7B10
CE30
0020
ENDCHAR
STARTCHAR 3092
ENCODING 12434
SWIDTH 960 0
DWIDTH 16 0
BBX 11 13 2 -2
BITMAP
0C00
FF00
FF00
1800
3860
7DC0
C700
1E00
3600
4600
4000
7FC0
0E00
ENDCHAR
STARTCHAR 3093
ENCODING 12435
SWIDTH 960 0
DWIDTH 16 0
BBX 13 12 1 -2
BITMAP
0300
0200
0600
0400
0C00
1800
1000
3E00
2308
6318
4110
81E0
ENDCHAR
STARTCHAR 30A1
ENCODING 12449
SWIDTH 960 0
DWIDTH 16 0
BBX 9 9 3 -1
BITMAP
FF80
0180
0900
0B00
0800
1800
1800
1000
2000
ENDCHAR
STARTCHAR 30A2
ENCODING 12450
SWIDTH 960 0
DWIDTH 16 0
BBX 12 12 2 -1
BITMAP
FFE0
0030
0060
0C60
0CC0
0D80
0C00
0C00
0C00
0800
1800
3000
ENDCHAR
STARTCHAR 30A3
ENCODING 12451
SWIDTH 960 0
DWIDTH 16 0
BBX 7 9 4 -1
BITMAP
06
0C
18
18
28
C8
88
08
08
ENDCHAR
STARTCHAR 30A4
ENCODING 12452
SWIDTH 960 0
DWIDTH 16 0
BBX 9 12 3 -1
BITMAP
0180
0300
0600
0C00
0C00
1C00
3400
E400
8400
0400
0400
0400
ENDCHAR
STARTCHAR 30A5
ENCODING 12453
SWIDTH 960 0
DWIDTH 16 0
BBX 9 9 3 -1
BITMAP
1800
FF80
8100
8100
8100
0300
0600
0C00
3800
ENDCHAR
STARTCHAR 30A6
ENCODING 12454
SWIDTH 960 0
DWIDTH 16 0
BBX 11 12 2 -1
BITMAP
0400
FFE0
FFE0
8020
8060
8060
0040
00C0
0080
0180
0600
1C00
ENDCHAR
STARTCHAR 30A7
ENCODING 12455
SWIDTH 960 0
DWIDTH 16 0
BBX 9 8 3 0
BITMAP
7F00
7F00
0800
0800
0800
0800
0800
FF80
ENDCHAR
STARTCHAR 30A8
ENCODING 12456
SWIDTH 960 0
DWIDTH 16 0
BBX 13 10 1 0
BITMAP
3FE0
0200
0200
0200
0200
0200
0200
0200
0200
FFF8
ENDCHAR
STARTCHAR 30A9
ENCODING 12457
SWIDTH 960 0
DWIDTH 16 0
BBX 9 9 3 -1
BITMAP
0400
FF80
FF80
0C00
1C00
3400
6400
8400
0C00
ENDCHAR
STARTCHAR 30AA
ENCODING 12458
SWIDTH 960 0
DWIDTH 16 0
BBX 11 12 2 -1
BITMAP
0300
0300
FFE0
0300
0700
0500
0D00
1900
3100
E100
0100
0700
ENDCHAR
STARTCHAR 30AB
ENCODING 12459
SWIDTH 960 0
DWIDTH 16 0
BBX 11 12 2 -1
BITMAP
0400
0400
7FE0
0420
0420
0C60
0C60
0860
1840
3040
60C0
C180
ENDCHAR
STARTCHAR 30AC
ENCODING 12460
SWIDTH 960 0
DWIDTH 16 0
BBX 12 13 2 -1
BITMAP
0020
0450
0420
7FE0
0420
0460
0C60
0C60
0860
1840
3040
60C0
C180
ENDCHAR
STARTCHAR 30AD
ENCODING 12461
SWIDTH 960 0
DWIDTH 16 0
BBX 11 12 2 -1
BITMAP
0800
0800
1F80
FC00
0C00
0400
3FE0
FC00
0600
0600
0600
0200
ENDCHAR
STARTCHAR 30AE
ENCODING 12462
SWIDTH 960 0
DWIDTH 16 0
BBX 12 13 2 -1
BITMAP
0060
08D0
0870
1F80
FC00
0C00
0420
3FE0
FC00
0600
0600
0600
0200
ENDCHAR
STARTCHAR 30AF
ENCODING 12463
SWIDTH 960 0
DWIDTH 16 0
BBX 11 12 2 -1
BITMAP
1800
1FE0
3060
2040
4040
80C0
0080
0180
0300
0600
1C00
7000
ENDCHAR
STARTCHAR 30B0
ENCODING 12464
SWIDTH 960 0
DWIDTH 16 0
BBX 13 13 2 0
BITMAP
0070
1068
1FE0
3040
6040
C0C0
00C0
0180
0180
0300
0600
1C00
7000
ENDCHAR
STARTCHAR 30B1
ENCODING 12465
SWIDTH 960 0
DWIDTH 16 0
BBX 12 12 1 -1
BITMAP
1800
1800
1800
1FF0
3180
6180
C180
0100
0100
0300
0600
0C00
ENDCHAR
STARTCHAR 30B2
ENCODING 12466
SWIDTH 960 0
DWIDTH 16 0
BBX 13 13 1 -1
BITMAP
0010
0868
1830
1800
1FF0
3180
6180
C180
0100
0100
0300
0600
0C00
ENDCHAR
STARTCHAR 30B3
ENCODING 12467
SWIDTH 960 0
DWIDTH 16 0
BBX 9 11 3 -1
BITMAP
FF80
0080
0080
0080
0080
0080
0080
0080
FF80
FF80
0080
ENDCHAR
STARTCHAR 30B4
ENCODING 12468
SWIDTH 960 0
DWIDTH 16 0
BBX 13 13 2 -1
BITMAP
0030
0058
7FE0
0040
0040
0040
0040
0040
0040
0040
FFC0
FFC0
0040
ENDCHAR
STARTCHAR 30B5
ENCODING 12469
SWIDTH 960 0
DWIDTH 16 0
BBX 13 12 1 -1
BITMAP
0880
0880
0880
0880
FFF8
0880
0880
0880
0880
0980
0100
0600
ENDCHAR
STARTCHAR 30B6
ENCODING 12470
SWIDTH 960 0
DWIDTH 16 0
BBX 13 13 1 -1
BITMAP
0010
08E8
0890
0890
0880
FFF8
0880
0880
0880
0880
0980
0100
0600
ENDCHAR
STARTCHAR 30B7
ENCODING 12471
SWIDTH 960 0
DWIDTH 16 0
BBX 11 12 2 -1
BITMAP
6000
3000
1800
0020
C020
6040
20C0
0180
0300
0600
1C00
7000
ENDCHAR
STARTCHAR 30B8
ENCODING 12472
SWIDTH 960 0
DWIDTH 16 0
BBX 12 13 2 -1
BITMAP
0020
60D0
3060
1800
0020
C060
6040
20C0
0180
0300
0600
1C00
7000
ENDCHAR
STARTCHAR 30B9
ENCODING 12473
SWIDTH 960 0
DWIDTH 16 0
BBX 11 11 2 -1
BITMAP
7F80
0180
0100
0300
0300
0600
0F00
0D80
38C0
6060
C020
ENDCHAR
STARTCHAR 30BA
ENCODING 12474
SWIDTH 960 0
DWIDTH 16 0
BBX 12 13 2 -1
BITMAP
0030
0050
7FA0
0180
0100
0300
0300
0600
0F00
0D80
38C0
6060
C020
ENDCHAR
STARTCHAR 30BB
ENCODING 12475
SWIDTH 960 0
DWIDTH 16 0
BBX 12 12 1 -1
BITMAP
0800
0800
0860
0FF0
FC30
0820
0860
0980
0800
0800
0FE0
07E0
ENDCHAR
STARTCHAR 30BC
ENCODING 12476
SWIDTH 960 0
DWIDTH 16 0
BBX 13 13 1 -1
BITMAP
0010
0868
0810
0820
0FF0
FC30
0820
0860
0980
0800
0800
0FE0
07E0
ENDCHAR
STARTCHAR 30BD
ENCODING 12477
SWIDTH 960 0
DWIDTH 16 0
BBX 11 11 2 -1
BITMAP
C060
4040
6040
00C0
0080
0080
0180
0100
0300
0E00
1800
ENDCHAR
STARTCHAR 30BE
ENCODING 12478
SWIDTH 960 0
DWIDTH 16 0
BBX 13 13 2 -1
BITMAP
0030
0078
8060
C040
40C0
4080
0080
0180
0100
0300
0600
0C00
1800
ENDCHAR
STARTCHAR 30BF
ENCODING 12479
SWIDTH 960 0
DWIDTH 16 0
BBX 11 12 2 -1
BITMAP
1800
1FE0
1040
3040
60C0
CEC0
0380
0100
0300
0600
1C00
7000
ENDCHAR
STARTCHAR 30C0
ENCODING 12480
SWIDTH 960 0
DWIDTH 16 0
BBX 13 13 2 -1
BITMAP
0030
1068
1FF0
30C0
20C0
6080
DD80
0700
0300
0600
0C00
1800
7000
ENDCHAR
STARTCHAR 30C1
ENCODING 12481
SWIDTH 960 0
DWIDTH 16 0
BBX 13 12 1 -1
BITMAP
00C0
0780
7E00
0200
0200
FFF8
0200
0200
0200
0600
0C00
1800
ENDCHAR
STARTCHAR 30C2
ENCODING 12482
SWIDTH 960 0
DWIDTH 16 0
BBX 14 13 1 -1
BITMAP
0018
00EC
0790
7E00
0200
0200
FFF0
FE00
0200
0600
0600
0C00
1800
ENDCHAR
STARTCHAR 30C3
ENCODING 12483
SWIDTH 960 0
DWIDTH 16 0
BBX 9 9 3 -1
BITMAP
1180
9100
D900
0300
0200
0200
0400
1C00
3000
ENDCHAR
STARTCHAR 30C4
ENCODING 12484
SWIDTH 960 0
DWIDTH 16 0
BBX 11 12 2 -1
BITMAP
0800
8820
8C60
CC40
4040
00C0
0080
0180
0100
0300
0E00
1800
ENDCHAR
STARTCHAR 30C5
ENCODING 12485
SWIDTH 960 0
DWIDTH 16 0
BBX 14 13 1 0
BITMAP
0038
0034
0C30
C420
4460
4040
0040
00C0
0080
0180
0300
0600
1C00
ENDCHAR
STARTCHAR 30C6
ENCODING 12486
SWIDTH 960 0
DWIDTH 16 0
BBX 13 12 1 -1
BITMAP
3FE0
0000
0000
FFF8
FFF8
0200
0200
0200
0600
0600
0C00
1800
ENDCHAR
STARTCHAR 30C7
ENCODING 12487
SWIDTH 960 0
DWIDTH 16 0
BBX 14 13 1 0
BITMAP
0038
3FF4
0018
0000
FFF0
FFF0
0200
0200
0200
0600
0600
0C00
1800
ENDCHAR
STARTCHAR 30C8
ENCODING 12488
SWIDTH 960 0
DWIDTH 16 0
BBX 5 12 6 -1
BITMAP
80
C0
C0
C0
F0
D8
C8
C0
C0
C0
C0
C0
ENDCHAR
STARTCHAR 30C9
ENCODING 12489
SWIDTH 960 0
DWIDTH 16 0
BBX 8 13 6 -1
BITMAP
04
8B
85
80
80
B0
D8
C8
C0
C0
C0
C0
C0
ENDCHAR
STARTCHAR 30CA
ENCODING 12490
SWIDTH 960 0
DWIDTH 16 0
BBX 12 12 1 -1
BITMAP
0300
0300
0300
FFF0
FFF0
0300
0200
0200
0600
0600
0C00
3800
ENDCHAR
STARTCHAR 30CB
ENCODING 12491
SWIDTH 960 0
DWIDTH 16 0
BBX 12 9 1 0
BITMAP
3FE0
0000
0000
0000
0000
0000
0000
0000
FFF0
ENDCHAR
STARTCHAR 30CC
ENCODING 12492
SWIDTH 960 0
DWIDTH 16 0
BBX 10 11 3 -1
BITMAP
FFC0
0080
0080
0180
3100
1B00
0600
0F00
1980
F000
8000
ENDCHAR
STARTCHAR 30CD
ENCODING 12493
SWIDTH 960 0
DWIDTH 16 0
BBX 11 13 2 -1
BITMAP
0800
0C00
0400
7FC0
0180
0300
0600
0D80
1CC0
7460
C420
0400
0400
ENDCHAR
STARTCHAR 30CE
ENCODING 12494
SWIDTH 960 0
DWIDTH 16 0
BBX 9 12 3 -1
BITMAP
0080
0180
0180
0100
0300
0200
0600
0400
0C00
1800
3000
E000
ENDCHAR
STARTCHAR 30CF
ENCODING 12495
SWIDTH 960 0
DWIDTH 16 0
BBX 12 8 1 0
BITMAP
0980
0880
1840
1860
1020
3030
6010
C010
ENDCHAR
STARTCHAR 30D0
ENCODING 12496
SWIDTH 960 0
DWIDTH 16 0
BBX 13 10 1 0
BITMAP
0010
0068
0990
0880
1840
1860
1020
3030
6010
C010
ENDCHAR
STARTCHAR 30D1
ENCODING 12497
SWIDTH 960 0
DWIDTH 16 0
BBX 13 10 1 0
BITMAP
0038
0068
09B8
0880
1840
1860
1020
3030
6010
C010
ENDCHAR
STARTCHAR 30D2
ENCODING 12498
SWIDTH 960 0
DWIDTH 16 0
BBX 9 11 3 0
BITMAP
8000
8000
8180
8380
BE00
F000
8000
8000
8000
8000
FF80
ENDCHAR
STARTCHAR 30D3
ENCODING 12499
SWIDTH 960 0
DWIDTH 16 0
BBX 12 12 3 0
BITMAP
0060
81B0
8040
80C0
8380
9E00
F800
8000
8000
8000
8000
FF80
ENDCHAR
STARTCHAR 30D4
ENCODING 12500
SWIDTH 960 0
DWIDTH 16 0
BBX 12 12 3 0
BITMAP
00E0
8090
80F0
8080
8380
9E00
F800
8000
8000
8000
8000
FF80
ENDCHAR
STARTCHAR 30D5
ENCODING 12501
SWIDTH 960 0
DWIDTH 16 0
BBX 11 11 2 -1
BITMAP
FFE0
0060
0040
0040
00C0
0080
0180
0300
0600
0C00
3800
ENDCHAR
STARTCHAR 30D6
ENCODING 12502
SWIDTH 960 0
DWIDTH 16 0
BBX 14 13 1 -1
BITMAP
0018
002C
FFF0
0020
0060
0060
0040
00C0
0080
0180
0300
0E00
1800
ENDCHAR
STARTCHAR 30D7
ENCODING 12503
SWIDTH 960 0
DWIDTH 16 0
BBX 14 13 1 -1
BITMAP
0038
0024
FFF8
0060
0060
0060
0040
00C0
0180
0100
0700
0E00
1800
ENDCHAR
STARTCHAR 30D8
ENCODING 12504
SWIDTH 960 0
DWIDTH 16 0
BBX 13 7 1 1
BITMAP
1C00
3700
6180
C0C0
0060
0030
0018
ENDCHAR
STARTCHAR 30D9
ENCODING 12505
SWIDTH 960 0
DWIDTH 16 0
BBX 13 11 1 0
BITMAP
0020
0050
0068
0020
1C00
3700
6180
C0C0
0060
0030
0010
ENDCHAR
STARTCHAR 30DA
ENCODING 12506
SWIDTH 960 0
DWIDTH 16 0
BBX 13 11 1 0
BITMAP
0030
0058
0048
0030
1C00
3700
6180
C0C0
0060
0030
0010
ENDCHAR
STARTCHAR 30DB
ENCODING 12507
SWIDTH 960 0
DWIDTH 16 0
BBX 11 12 2 -1
BITMAP
0400
0400
0400
FFE0
0400
0400
2480
2480
64C0
C460
0420
0400
ENDCHAR
STARTCHAR 30DC
ENCODING 12508
SWIDTH 960 0
DWIDTH 16 0
BBX 12 13 2 -1
BITMAP
0060
04B0
0440
0400
FFE0
0400
0400
2400
2580
64C0
C460
8400
0400
ENDCHAR
STARTCHAR 30DD
ENCODING 12509
SWIDTH 960 0
DWIDTH 16 0
BBX 11 13 2 -1
BITMAP
00E0
04A0
04E0
0440
FFE0
0400
0400
2400
2580
64C0
C460
8400
0400
ENDCHAR
STARTCHAR 30DE
ENCODING 12510
SWIDTH 960 0
DWIDTH 16 0
BBX 13 10 1 0
BITMAP
FFF0
0018
0010
0030
0060
18C0
0D80
0600
0200
0200
ENDCHAR
STARTCHAR 30DF
ENCODING 12511
SWIDTH 960 0
DWIDTH 16 0
BBX 6 12 4 -1
BITMAP
30
1C
04
00
E0
38
00
00
80
F0
18
0C
ENDCHAR
STARTCHAR 30E0
ENCODING 12512
SWIDTH 960 0
DWIDTH 16 0
BBX 12 11 1 -1
BITMAP
0200
0600
0400
0C00
0800
1800
19C0
1060
FFF0
7FD0
0010
ENDCHAR
STARTCHAR 30E1
ENCODING 12513
SWIDTH 960 0
DWIDTH 16 0
BBX 9 12 3 -1
BITMAP
0080
0180
0100
0300
1200
1E00
0700
0D80
1800
3000
6000
C000
ENDCHAR
STARTCHAR 30E2
ENCODING 12514
SWIDTH 960 0
DWIDTH 16 0
BBX 12 11 1 -1
BITMAP
3FE0
0400
0400
0400
FFF0
0400
0400
0400
0400
07E0
03C0
ENDCHAR
STARTCHAR 30E3
ENCODING 12515
SWIDTH 960 0
DWIDTH 16 0
BBX 9 9 3 -1
BITMAP
2000
3180
3F80
F180
1300
1800
1800
0800
0800
ENDCHAR
STARTCHAR 30E4
ENCODING 12516
SWIDTH 960 0
DWIDTH 16 0
BBX 12 12 1 -1
BITMAP
1800
0800
0870
1FF0
FC30
0C30
0460
0480
0600
0600
0200
0200
ENDCHAR
STARTCHAR 30E5
ENCODING 12517
SWIDTH 960 0
DWIDTH 16 0
BBX 9 8 3 0
BITMAP
7E00
0600
0600
0600
0600
0600
FF80
FF80
ENDCHAR
STARTCHAR 30E6
ENCODING 12518
SWIDTH 960 0
DWIDTH 16 0
BBX 13 10 1 0
BITMAP
3F80
0080
0080
0080
0080
0080
0080
0080
0080
FFF8
ENDCHAR
STARTCHAR 30E7
ENCODING 12519
SWIDTH 960 0
DWIDTH 16 0
BBX 7 8 4 0
BITMAP
FE
02
02
FE
FE
02
FE
FE
ENDCHAR
STARTCHAR 30E8
ENCODING 12520
SWIDTH 960 0
DWIDTH 16 0
BBX 9 11 3 -1
BITMAP
FF80
0080
0080
0080
FF80
0080
0080
0080
FF80
FF80
0080
ENDCHAR
STARTCHAR 30E9
ENCODING 12521
SWIDTH 960 0
DWIDTH 16 0
BBX 11 12 2 -1
BITMAP
7FC0
0000
0000
FFE0
FFE0
0040
00C0
00C0
0180
0300
0600
3C00
ENDCHAR
STARTCHAR 30EA
ENCODING 12522
SWIDTH 960 0
DWIDTH 16 0
BBX 7 12 4 -1
BITMAP
C6
C6
C6
C6
C6
C6
C6
C6
04
0C
18
70
ENDCHAR
STARTCHAR 30EB
ENCODING 12523
SWIDTH 960 0
DWIDTH 16 0
BBX 12 12 2 -1
BITMAP
2200
3200
3200
3200
3200
3200
3200
2210
2210
6260
C3C0
0300
ENDCHAR
STARTCHAR 30EC
ENCODING 12524
SWIDTH 960 0
DWIDTH 16 0
BBX 9 12 3 -1
BITMAP
8000
8000
8000
8000
8000
8000
8000
8080
8180
8700
FC00
E000
ENDCHAR
STARTCHAR 30ED
ENCODING 12525
SWIDTH 960 0
DWIDTH 16 0
BBX 9 10 3 0
BITMAP
FF80
8080
8080
8080
8080
8080
8080
8080
FF80
8080
ENDCHAR
STARTCHAR 30EE
ENCODING 12526
SWIDTH 960 0
DWIDTH 16 0
BBX 8 9 3 -1
BITMAP
FF
81
C1
C1
C3
02
06
0C
18
ENDCHAR
STARTCHAR 30EF
ENCODING 12527
SWIDTH 960 0
DWIDTH 16 0
BBX 11 12 2 -1
BITMAP
FFE0
FFE0
C060
C060
C040
C040
00C0
0080
0180
0300
0600
0800
ENDCHAR
STARTCHAR 30F0
ENCODING 12528
SWIDTH 960 0
DWIDTH 16 0
BBX 13 12 1 -1
BITMAP
0080
0080
3FE0
1880
1880
1880
1880
FFF8
FFF8
0080
0080
0080
ENDCHAR
STARTCHAR 30F1
ENCODING 12529
SWIDTH 960 0
DWIDTH 16 0
BBX 13 10 1 0
BITMAP
3FF0
0030
0020
0640
0680
0600
0600
0600
0600
FFF8
ENDCHAR
STARTCHAR 30F2
ENCODING 12530
SWIDTH 960 0
DWIDTH 16 0
BBX 9 11 3 -1
BITMAP
FF80
0080
0080
FF80
FF80
0300
0300
0600
0C00
1800
3000
ENDCHAR
STARTCHAR 30F3
ENCODING 12531
SWIDTH 960 0
DWIDTH 16 0
BBX 10 11 3 -1
BITMAP
C000
6000
0000
0040
00C0
0180
0300
0600
1C00
7800
E000
ENDCHAR
STARTCHAR 30F4
ENCODING 12532
SWIDTH 960 0
DWIDTH 16 0
BBX 14 13 1 -1
BITMAP
0018
0634
FFF8
7FF0
4030
4030
4020
0060
0040
00C0
0180
0300
1E00
ENDCHAR
STARTCHAR 30F5
ENCODING 12533
SWIDTH 960 0
DWIDTH 16 0
BBX 11 12 2 -1
BITMAP
0400
0400
7FE0
0420
0420
0C60
0C60
0860
1840
3040
60C0
C180
ENDCHAR
STARTCHAR 30F6
ENCODING 12534
SWIDTH 960 0
DWIDTH 16 0
BBX 12 12 1 -1
BITMAP
1800
1800
1800
1FF0
3180
6180
C180
0100
0100
0300
0600
0C00
ENDCHAR
STARTCHAR 3131
ENCODING 12593
SWIDTH 960 0
DWIDTH 16 0
BBX 8 6 4 2
BITMAP
FF
03
03
03
03
03
ENDCHAR
STARTCHAR 3132
ENCODING 12594
SWIDTH 960 0
DWIDTH 16 0
BBX 11 6 2 2
BITMAP
FFE0
0C20
0C20
0C20
0C20
0C20
ENDCHAR
STARTCHAR 3133
ENCODING 12595
SWIDTH 960 0
DWIDTH 16 0
BBX 11 6 2 2
BITMAP
F980
0980
0980
0980
0BC0
0E60
ENDCHAR
STARTCHAR 3134
ENCODING 12596
SWIDTH 960 0
DWIDTH 16 0
BBX 8 6 4 2
BITMAP
80
80
80
80
80
FF
ENDCHAR
STARTCHAR 3135
ENCODING 12597
SWIDTH 960 0
DWIDTH 16 0
BBX 11 6 2 2
BITMAP
C7C0
C040
C0C0
C1C0
C360
FE20
ENDCHAR
STARTCHAR 3136
ENCODING 12598
SWIDTH 960 0
DWIDTH 16 0
BBX 11 7 2 2
BITMAP
0200
C3C0
CFE0
CFE0
C240
C660
FBC0
ENDCHAR
STARTCHAR 3137
ENCODING 12599
SWIDTH 960 0
DWIDTH 16 0
BBX 8 6 4 2
BITMAP
FF
80
80
80
80
FF
ENDCHAR
STARTCHAR 3138
ENCODING 12600
SWIDTH 960 0
DWIDTH 16 0
BBX 10 6 2 2
BITMAP
FFC0
C400
C400
C400
C400
FFC0
ENDCHAR
STARTCHAR 3139
ENCODING 12601
SWIDTH 960 0
DWIDTH 16 0
BBX 9 6 3 2
BITMAP
FF00
0100
7F00
7F00
4000
7F80
ENDCHAR
STARTCHAR 313A
ENCODING 12602
SWIDTH 960 0
DWIDTH 16 0
BBX 10 6 2 2
BITMAP
FBC0
0840
7840
7840
4040
7C40
ENDCHAR
STARTCHAR 313B
ENCODING 12603
SWIDTH 960 0
DWIDTH 16 0
BBX 11 6 2 2
BITMAP
FBE0
0B20
7B20
7B20
4320
7FE0
ENDCHAR
STARTCHAR 313C
ENCODING 12604
SWIDTH 960 0
DWIDTH 16 0
BBX 11 6 2 2
BITMAP
F920
0920
79E0
7920
4120
7DE0
ENDCHAR
STARTCHAR 313D
ENCODING 12605
SWIDTH 960 0
DWIDTH 16 0
BBX 12 6 2 2
BITMAP
F8C0
08C0
F8C0
F8C0
C1E0
FF30
ENDCHAR
STARTCHAR 313E
ENCODING 12606
SWIDTH 960 0
DWIDTH 16 0
BBX 11 6 2 2
BITMAP
F9E0
0900
79E0
79E0
4100
7DE0
ENDCHAR
STARTCHAR 313F
ENCODING 12607
SWIDTH 960 0
DWIDTH 16 0
BBX 12 6 2 2
BITMAP
FBF0
09A0
F9A0
F9A0
C1A0
FFF0
ENDCHAR
STARTCHAR 3140
ENCODING 12608
SWIDTH 960 0
DWIDTH 16 0
BBX 12 7 2 2
BITMAP
0100
F9E0
0BF0
FBF0
F920
C330
FDE0
ENDCHAR
STARTCHAR 3141
ENCODING 12609
SWIDTH 960 0
DWIDTH 16 0
BBX 8 6 4 2
BITMAP
FF
83
83
83
83
FF
ENDCHAR
STARTCHAR 3142
ENCODING 12610
SWIDTH 960 0
DWIDTH 16 0
BBX 8 8 4 1
BITMAP
83
83
83
FF
83
83
FF
FF
ENDCHAR
STARTCHAR 3143
ENCODING 12611
SWIDTH 960 0
DWIDTH 16 0
BBX 10 8 3 1
BITMAP
CCC0
CCC0
CCC0
FFC0
CCC0
CCC0
FFC0
FFC0
ENDCHAR
STARTCHAR 3144
ENCODING 12612
SWIDTH 960 0
DWIDTH 16 0
BBX 11 6 3 2
BITMAP
8980
8980
F980
8980
8BC0
FE60
ENDCHAR
STARTCHAR 3145
ENCODING 12613
SWIDTH 960 0
DWIDTH 16 0
BBX 10 8 3 1
BITMAP
0400
0C00
0C00
0E00
1F00
3180
60C0
C040
ENDCHAR
STARTCHAR 3146
ENCODING 12614
SWIDTH 960 0
DWIDTH 16 0
BBX 12 8 2 1
BITMAP
1080
1080
1080
3180
39C0
6F60
E730
C610
ENDCHAR
STARTCHAR 3147
ENCODING 12615
SWIDTH 960 0
DWIDTH 16 0
BBX 9 8 3 1
BITMAP
1C00
3F00
6300
C180
C180
6100
7F00
0800
ENDCHAR
STARTCHAR 3148
ENCODING 12616
SWIDTH 960 0
DWIDTH 16 0
BBX 10 8 3 1
BITMAP
FF00
FF00
0200
0600
0C00
3F00
E180
80C0
ENDCHAR
STARTCHAR 3149
ENCODING 12617
SWIDTH 960 0
DWIDTH 16 0
BBX 12 8 2 1
BITMAP
7FE0
7BC0
18C0
18C0
39C0
69E0
CF30
8610
ENDCHAR
STARTCHAR 314A
ENCODING 12618
SWIDTH 960 0
DWIDTH 16 0
BBX 11 9 3 1
BITMAP
3D00
3F00
0000
7F80
0300
0700
0F00
3BC0
E0E0
ENDCHAR
STARTCHAR 314B
ENCODING 12619
SWIDTH 960 0
DWIDTH 16 0
BBX 8 7 4 1
BITMAP
FF
03
03
FF
03
03
03
ENDCHAR
STARTCHAR 314C
ENCODING 12620
SWIDTH 960 0
DWIDTH 16 0
BBX 8 8 4 1
BITMAP
FF
FF
80
FE
FE
80
FF
FF
ENDCHAR
STARTCHAR 314D
ENCODING 12621
SWIDTH 960 0
DWIDTH 16 0
BBX 9 6 3 2
BITMAP
FF80
2200
2200
2200
2200
FF80
ENDCHAR
STARTCHAR 314E
ENCODING 12622
SWIDTH 960 0
DWIDTH 16 0
BBX 11 9 2 2
BITMAP
3F00
0000
FFE0
FFE0
3180
2080
2080
3180
1F00
ENDCHAR
STARTCHAR 314F
ENCODING 12623
SWIDTH 960 0
DWIDTH 16 0
BBX 5 14 6 -2
BITMAP
80
80
80
80
80
80
F8
80
80
80
80
80
80
80
ENDCHAR
STARTCHAR 3150
ENCODING 12624
SWIDTH 960 0
DWIDTH 16 0
BBX 5 14 5 -2
BITMAP
88
88
88
88
88
F8
F8
88
88
88
88
88
88
08
ENDCHAR
STARTCHAR 3151
ENCODING 12625
SWIDTH 960 0
DWIDTH 16 0
BBX 5 14 6 -2
BITMAP
80
80
80
80
F8
F8
80
80
F8
80
80
80
80
80
ENDCHAR
STARTCHAR 3152
ENCODING 12626
SWIDTH 960 0
DWIDTH 16 0
BBX 5 14 5 -2
BITMAP
88
88
88
88
F8
88
88
88
F8
88
88
88
88
08
ENDCHAR
STARTCHAR 3153
ENCODING 12627
SWIDTH 960 0
DWIDTH 16 0
BBX 5 14 5 -2
BITMAP
18
18
18
18
18
18
F8
18
18
18
18
18
18
18
ENDCHAR
STARTCHAR 3154
ENCODING 12628
SWIDTH 960 0
DWIDTH 16 0
BBX 7 14 4 -2
BITMAP
16
16
16
16
16
F6
F6
16
16
16
16
16
16
06
ENDCHAR
STARTCHAR 3155
ENCODING 12629
SWIDTH 960 0
DWIDTH 16 0
BBX 5 14 5 -2
BITMAP
18
18
18
18
18
F8
18
18
F8
18
18
18
18
18
ENDCHAR
STARTCHAR 3156
ENCODING 12630
SWIDTH 960 0
DWIDTH 16 0
BBX 7 14 4 -2
BITMAP
16
16
16
16
F6
F6
16
16
F6
16
16
16
16
06
ENDCHAR
STARTCHAR 3157
ENCODING 12631
SWIDTH 960 0
DWIDTH 16 0
BBX 14 8 1 1
BITMAP
0200
0200
0200
0200
0200
0200
FFFC
FFFC
ENDCHAR
STARTCHAR 3158
ENCODING 12632
SWIDTH 960 0
DWIDTH 16 0
BBX 13 14 1 -2
BITMAP
0020
0020
0020
0020
0820
0820
0838
0820
0820
FFA0
0020
0020
0020
0020
ENDCHAR
STARTCHAR 3159
ENCODING 12633
SWIDTH 960 0
DWIDTH 16 0
BBX 12 14 1 -2
BITMAP
00D0
00D0
00D0
00D0
10D0
10F0
10F0
10D0
10D0
FFD0
00D0
00D0
00D0
0010
ENDCHAR
STARTCHAR 315A
ENCODING 12634
SWIDTH 960 0
DWIDTH 16 0
BBX 11 14 2 -2
BITMAP
0060
0060
0060
0060
0860
0860
0860
0860
0860
FFE0
0060
0060
0060
0060
ENDCHAR
STARTCHAR 315B
ENCODING 12635
SWIDTH 960 0
DWIDTH 16 0
BBX 14 8 1 1
BITMAP
08C0
08C0
08C0
08C0
08C0
08C0
FFFC
FFFC
ENDCHAR
STARTCHAR 315C
ENCODING 12636
SWIDTH 960 0
DWIDTH 16 0
BBX 14 8 1 -2
BITMAP
FFFC
0200
0200
0200
0200
0200
0200
0200
ENDCHAR
STARTCHAR 315D
ENCODING 12637
SWIDTH 960 0
DWIDTH 16 0
BBX 12 14 1 -2
BITMAP
0010
0010
0010
0010
0010
0010
FFD0
0810
0810
09F0
0810
0810
0810
0010
ENDCHAR
STARTCHAR 315E
ENCODING 12638
SWIDTH 960 0
DWIDTH 16 0
BBX 13 14 1 -2
BITMAP
0058
0058
0058
0058
0058
0058
FF58
1858
1858
1BD8
1858
1858
1858
0018
ENDCHAR
STARTCHAR 315F
ENCODING 12639
SWIDTH 960 0
DWIDTH 16 0
BBX 11 14 2 -2
BITMAP
0020
0020
0020
0020
0020
0020
FFE0
0820
0820
0820
0820
0820
0820
0020
ENDCHAR
STARTCHAR 3160
ENCODING 12640
SWIDTH 960 0
DWIDTH 16 0
BBX 14 8 1 -2
BITMAP
FFFC
08C0
08C0
08C0
08C0
08C0
08C0
08C0
ENDCHAR
STARTCHAR 3161
ENCODING 12641
SWIDTH 960 0
DWIDTH 16 0
BBX 14 1 1 2
BITMAP
FFFC
ENDCHAR
STARTCHAR 3162
ENCODING 12642
SWIDTH 960 0
DWIDTH 16 0
BBX 11 14 2 -2
BITMAP
0020
0020
0020
0020
0020
0020
0020
0020
FFE0
F820
0020
0020
0020
0020
ENDCHAR
STARTCHAR 3163
ENCODING 12643
SWIDTH 960 0
DWIDTH 16 0
BBX 1 14 7 -2
BITMAP
80
80
80
80
80
80
80
80
80
80
80
80
80
80
ENDCHAR
STARTCHAR 3165
ENCODING 12645
SWIDTH 960 0
DWIDTH 16 0
BBX 11 6 2 2
BITMAP
C200
C200
C200
C200
C200
FBE0
ENDCHAR
STARTCHAR 3166
ENCODING 12646
SWIDTH 960 0
DWIDTH 16 0
BBX 11 6 2 2
BITMAP
C3E0
C200
C200
C200
C200
FBE0
ENDCHAR
STARTCHAR 3167
ENCODING 12647
SWIDTH 960 0
DWIDTH 16 0
BBX 11 6 3 2
BITMAP
8180
8180
8180
8180
83C0
FE60
ENDCHAR
STARTCHAR 3168
ENCODING 12648
SWIDTH 960 0
DWIDTH 16 0
BBX 11 7 2 2
BITMAP
0080
C080
C0C0
C1C0
C160
C320
FFE0
ENDCHAR
STARTCHAR 3169
ENCODING 12649
SWIDTH 960 0
DWIDTH 16 0
BBX 15 6 1 2
BITMAP
FF90
1190
F190
F1B8
C1AC
F9E6
ENDCHAR
STARTCHAR 316A
ENCODING 12650
SWIDTH 960 0
DWIDTH 16 0
BBX 11 6 2 2
BITMAP
FBE0
0B00
FB00
FB00
C300
FFE0
ENDCHAR
STARTCHAR 316B
ENCODING 12651
SWIDTH 960 0
DWIDTH 16 0
BBX 15 6 1 2
BITMAP
F590
1590
F790
F5B8
85AC
F7C6
ENDCHAR
STARTCHAR 316C
ENCODING 12652
SWIDTH 960 0
DWIDTH 16 0
BBX 12 6 2 3
BITMAP
F8C0
08C0
F8E0
F9A0
C120
FFF0
ENDCHAR
STARTCHAR 316D
ENCODING 12653
SWIDTH 960 0
DWIDTH 16 0
BBX 12 6 2 2
BITMAP
FBF0
0880
F9E0
FA20
C320
FDE0
ENDCHAR
STARTCHAR 316E
ENCODING 12654
SWIDTH 960 0
DWIDTH 16 0
BBX 10 6 3 2
BITMAP
FE40
9E40
9FC0
9E40
9E40
FFC0
ENDCHAR
STARTCHAR 316F
ENCODING 12655
SWIDTH 960 0
DWIDTH 16 0
BBX 11 6 3 2
BITMAP
F980
9980
9980
9980
9BC0
FE60
ENDCHAR
STARTCHAR 3170
ENCODING 12656
SWIDTH 960 0
DWIDTH 16 0
BBX 11 6 3 3
BITMAP
F980
9980
99C0
9B40
9A40
FFE0
ENDCHAR
STARTCHAR 3171
ENCODING 12657
SWIDTH 960 0
DWIDTH 16 0
BBX 7 12 4 -1
BITMAP
FE
82
82
82
FE
FE
38
6C
C6
C6
6C
38
ENDCHAR
STARTCHAR 3172
ENCODING 12658
SWIDTH 960 0
DWIDTH 16 0
BBX 10 6 3 2
BITMAP
CBC0
C840
F840
C840
C840
F840
ENDCHAR
STARTCHAR 3173
ENCODING 12659
SWIDTH 960 0
DWIDTH 16 0
BBX 11 6 2 2
BITMAP
CFE0
CF00
FF00
CF00
CF00
FFE0
ENDCHAR
STARTCHAR 3174
ENCODING 12660
SWIDTH 960 0
DWIDTH 16 0
BBX 13 6 1 2
BITMAP
D3F8
D318
F318
D318
D798
FCD8
ENDCHAR
STARTCHAR 3175
ENCODING 12661
SWIDTH 960 0
DWIDTH 16 0
BBX 14 6 1 2
BITMAP
933C
9320
F320
9320
97A0
FCFC
ENDCHAR
STARTCHAR 3176
ENCODING 12662
SWIDTH 960 0
DWIDTH 16 0
BBX 12 6 2 2
BITMAP
CBE0
C860
F860
C8E0
C9B0
FB10
ENDCHAR
STARTCHAR 3177
ENCODING 12663
SWIDTH 960 0
DWIDTH 16 0
BBX 11 6 3 2
BITMAP
8BE0
8A00
FBC0
8BC0
8A00
FBE0
ENDCHAR
STARTCHAR 3178
ENCODING 12664
SWIDTH 960 0
DWIDTH 16 0
BBX 7 13 4 -1
BITMAP
82
82
FE
FE
82
FE
FE
38
6C
C6
C6
6C
38
ENDCHAR
STARTCHAR 3179
ENCODING 12665
SWIDTH 960 0
DWIDTH 16 0
BBX 9 12 3 -1
BITMAP
8980
FF80
FF80
8980
FF80
FF80
1C00
3600
6300
6300
3600
1C00
ENDCHAR
STARTCHAR 317A
ENCODING 12666
SWIDTH 960 0
DWIDTH 16 0
BBX 10 6 3 2
BITMAP
37C0
30C0
20C0
30C0
78C0
CCC0
ENDCHAR
STARTCHAR 317B
ENCODING 12667
SWIDTH 960 0
DWIDTH 16 0
BBX 12 6 2 2
BITMAP
3100
3100
3100
3100
7900
CDF0
ENDCHAR
STARTCHAR 317C
ENCODING 12668
SWIDTH 960 0
DWIDTH 16 0
BBX 11 6 2 2
BITMAP
33E0
3300
3300
3300
7B00
CFE0
ENDCHAR
STARTCHAR 317D
ENCODING 12669
SWIDTH 960 0
DWIDTH 16 0
BBX 12 6 2 2
BITMAP
1330
1330
33F0
3330
6B30
CFF0
ENDCHAR
STARTCHAR 317E
ENCODING 12670
SWIDTH 960 0
DWIDTH 16 0
BBX 13 6 1 2
BITMAP
11F0
1020
1060
38E0
6DB0
C708
ENDCHAR
STARTCHAR 317F
ENCODING 12671
SWIDTH 960 0
DWIDTH 16 0
BBX 7 8 4 1
BITMAP
10
10
18
28
2C
44
46
FE
ENDCHAR
STARTCHAR 3180
ENCODING 12672
SWIDTH 960 0
DWIDTH 16 0
BBX 12 6 2 2
BITMAP
79E0
CB30
8E30
8F30
CB20
79E0
ENDCHAR
STARTCHAR 3181
ENCODING 12673
SWIDTH 960 0
DWIDTH 16 0
BBX 6 9 5 1
BITMAP
20
20
20
F8
88
8C
8C
F8
30
ENDCHAR
STARTCHAR 3182
ENCODING 12674
SWIDTH 960 0
DWIDTH 16 0
BBX 12 9 2 1
BITMAP
3000
3000
30C0
78C0
C4C0
84C0
C5E0
7F30
3000
ENDCHAR
STARTCHAR 3183
ENCODING 12675
SWIDTH 960 0
DWIDTH 16 0
BBX 11 9 2 1
BITMAP
3000
3080
3080
78C0
C5C0
8560
C720
7FE0
3000
ENDCHAR
STARTCHAR 3184
ENCODING 12676
SWIDTH 960 0
DWIDTH 16 0
BBX 9 12 3 -1
BITMAP
FF80
0600
2600
2600
FF80
FF80
1C00
3600
6300
6300
3600
1C00
ENDCHAR
STARTCHAR 3185
ENCODING 12677
SWIDTH 960 0
DWIDTH 16 0
BBX 13 8 1 1
BITMAP
4080
38F0
0000
FDF8
4C90
4D98
7CF0
1060
ENDCHAR
STARTCHAR 3186
ENCODING 12678
SWIDTH 960 0
DWIDTH 16 0
BBX 8 8 4 1
BITMAP
FF
FF
38
6C
C6
C6
6C
38
ENDCHAR
STARTCHAR 3187
ENCODING 12679
SWIDTH 960 0
DWIDTH 16 0
BBX 13 14 1 -2
BITMAP
0020
0020
0020
0020
3238
3220
3220
3220
3238
FFA0
0020
0020
0020
0020
ENDCHAR
STARTCHAR 3188
ENCODING 12680
SWIDTH 960 0
DWIDTH 16 0
BBX 12 14 1 -2
BITMAP
00D0
00D0
00D0
00D0
24F0
24D0
24D0
24D0
24F0
FFD0
00D0
00D0
00D0
0010
ENDCHAR
STARTCHAR 3189
ENCODING 12681
SWIDTH 960 0
DWIDTH 16 0
BBX 11 14 2 -2
BITMAP
0060
0060
0060
0060
2660
2660
2660
2660
2660
FFE0
0060
0060
0060
0060
ENDCHAR
STARTCHAR 318A
ENCODING 12682
SWIDTH 960 0
DWIDTH 16 0
BBX 12 14 1 -2
BITMAP
0010
0010
0010
0010
0010
0010
FFD0
3210
32F0
3210
32F0
32F0
3210
0010
ENDCHAR
STARTCHAR 318B
ENCODING 12683
SWIDTH 960 0
DWIDTH 16 0
BBX 13 14 1 -2
BITMAP
0058
0058
0058
0058
0058
FF58
2C58
2FD8
2FD8
2C58
2FD8
2C58
2C58
0018
ENDCHAR
STARTCHAR 318C
ENCODING 12684
SWIDTH 960 0
DWIDTH 16 0
BBX 11 14 2 -2
BITMAP
0020
0020
0020
0020
0020
0020
FFE0
3220
3220
3220
3220
3220
3220
0020
ENDCHAR
STARTCHAR 318D
ENCODING 12685
SWIDTH 960 0
DWIDTH 16 0
BBX 2 2 7 4
BITMAP
C0
80
ENDCHAR
STARTCHAR 318E
ENCODING 12686
SWIDTH 960 0
DWIDTH 16 0
BBX 5 14 5 -2
BITMAP
18
18
18
18
18
18
D8
D8
18
18
18
18
18
18
ENDCHAR
STARTCHAR 3200
ENCODING 12800
SWIDTH 960 0
DWIDTH 16 0
BBX 15 14 0 -2
BITMAP
0008
6004
4006
4FE2
CFE2
C022
C022
C022
C022
C022
4002
4006
6004
0008
ENDCHAR
STARTCHAR 3201
ENCODING 12801
SWIDTH 960 0
DWIDTH 16 0
BBX 15 14 0 -2
BITMAP
0008
6004
4006
4802
C802
C802
C802
C802
C802
CFF2
4002
4006
6004
0008
ENDCHAR
STARTCHAR 3202
ENCODING 12802
SWIDTH 960 0
DWIDTH 16 0
BBX 15 14 0 -2
BITMAP
0008
6004
4006
4FE2
CFE2
C802
C802
C802
C802
CFE2
4002
4006
6004
0008
ENDCHAR
STARTCHAR 3203
ENCODING 12803
SWIDTH 960 0
DWIDTH 16 0
BBX 15 14 0 -2
BITMAP
0008
6004
4006
4FE2
CFE2
C022
CFE2
C802
C802
CFF2
4002
4006
6004
0008
ENDCHAR
STARTCHAR 3204
ENCODING 12804
SWIDTH 960 0
DWIDTH 16 0
BBX 15 14 0 -2
BITMAP
0008
6004
4006
4FE2
CFE2
C822
C822
C822
C822
CFE2
4002
4006
6004
0008
ENDCHAR
STARTCHAR 3205
ENCODING 12805
SWIDTH 960 0
DWIDTH 16 0
BBX 15 14 0 -2
BITMAP
0008
6004
4006
4822
C822
C822
CFE2
C822
C822
CFE2
4002
4006
6004
0008
ENDCHAR
STARTCHAR 3206
ENCODING 12806
SWIDTH 960 0
DWIDTH 16 0
BBX 15 14 0 -2
BITMAP
0008
6004
4106
4102
C102
C382
C2C2
C662
CC32
D812
4002
4006
6004
0008
ENDCHAR
STARTCHAR 3207
ENCODING 12807
SWIDTH 960 0
DWIDTH 16 0
BBX 15 14 0 -2
BITMAP
0008
6004
4006
4382
C7C2
CC22
C832
C832
CC62
C7C2
4002
4006
6004
0008
ENDCHAR
STARTCHAR 3208
ENCODING 12808
SWIDTH 960 0
DWIDTH 16 0
BBX 15 14 0 -2
BITMAP
0008
6004
4006
5FE2
C042
C0C2
C182
C3C2
CE72
D81A
4002
4006
6004
0008
ENDCHAR
STARTCHAR 3209
ENCODING 12809
SWIDTH 960 0
DWIDTH 16 0
BBX 15 14 0 -2
BITMAP
0008
6004
47C6
4002
CFE2
CFE2
C0C2
C1C2
C772
DC1A
4002
4006
6004
0008
ENDCHAR
STARTCHAR 320A
ENCODING 12810
SWIDTH 960 0
DWIDTH 16 0
BBX 15 14 0 -2
BITMAP
0008
6004
4006
4FE2
C022
C022
CFE2
C022
C022
C022
4002
4006
6004
0008
ENDCHAR
STARTCHAR 320B
ENCODING 12811
SWIDTH 960 0
DWIDTH 16 0
BBX 15 14 0 -2
BITMAP
0008
6004
4006
4FE2
C802
C802
CFE2
C802
C802
CFF2
4002
4006
6004
0008
ENDCHAR
STARTCHAR 320C
ENCODING 12812
SWIDTH 960 0
DWIDTH 16 0
BBX 15 14 0 -2
BITMAP
0008
6004
4006
5FF2
C042
C442
C442
C442
C442
DFF2
4002
4006
6004
0008
ENDCHAR
STARTCHAR 320D
ENCODING 12813
SWIDTH 960 0
DWIDTH 16 0
BBX 15 14 0 -2
BITMAP
0008
6004
47C6
43C2
C002
DFF2
C602
CC62
CC22
C462
47C2
4106
6004
0008
ENDCHAR
STARTCHAR 320E
ENCODING 12814
SWIDTH 960 0
DWIDTH 16 0
BBX 15 14 0 -2
BITMAP
0008
6024
4026
5F22
C122
C33A
C23A
CC22
D822
C022
4022
4026
6004
0008
ENDCHAR
STARTCHAR 320F
ENCODING 12815
SWIDTH 960 0
DWIDTH 16 0
BBX 15 14 0 -2
BITMAP
0008
6024
4026
5022
D022
D03A
D022
D022
DFA2
C022
4022
4026
6004
0008
ENDCHAR
STARTCHAR 3210
ENCODING 12816
SWIDTH 960 0
DWIDTH 16 0
BBX 15 14 0 -2
BITMAP
0008
6024
4026
5F22
D022
D03A
D022
D022
DFA2
C022
4022
4026
6004
0008
ENDCHAR
STARTCHAR 3211
ENCODING 12817
SWIDTH 960 0
DWIDTH 16 0
BBX 15 14 0 -2
BITMAP
0008
6024
4026
5F22
C322
DF3A
DF3A
D022
DFA2
C022
4022
4026
6004
0008
ENDCHAR
STARTCHAR 3212
ENCODING 12818
SWIDTH 960 0
DWIDTH 16 0
BBX 15 14 0 -2
BITMAP
0008
6024
4026
5F22
D122
D13A
D122
D122
DF22
C022
4022
4026
6004
0008
ENDCHAR
STARTCHAR 3213
ENCODING 12819
SWIDTH 960 0
DWIDTH 16 0
BBX 15 14 0 -2
BITMAP
0008
6024
4026
5122
D122
DF3A
D122
D122
DF22
C022
4022
4026
6004
0008
ENDCHAR
STARTCHAR 3214
ENCODING 12820
SWIDTH 960 0
DWIDTH 16 0
BBX 15 14 0 -2
BITMAP
0008
6024
4626
4622
C622
C43A
CE22
D922
D0A2
C022
4022
4026
6004
0008
ENDCHAR
STARTCHAR 3215
ENCODING 12821
SWIDTH 960 0
DWIDTH 16 0
BBX 15 14 0 -2
BITMAP
0008
6024
4026
4E22
D922
D13A
D122
DF22
C622
C022
4022
4026
6004
0008
ENDCHAR
STARTCHAR 3216
ENCODING 12822
SWIDTH 960 0
DWIDTH 16 0
BBX 15 14 0 -2
BITMAP
0008
6024
4026
5F22
C322
C23A
C622
CF22
D8A2
C022
4022
4026
6004
0008
ENDCHAR
STARTCHAR 3217
ENCODING 12823
SWIDTH 960 0
DWIDTH 16 0
BBX 15 14 0 -2
BITMAP
0008
6024
4F26
4722
DF22
C33A
C23A
C722
D9A2
D0A2
4022
4026
6004
0008
ENDCHAR
STARTCHAR 3218
ENCODING 12824
SWIDTH 960 0
DWIDTH 16 0
BBX 15 14 0 -2
BITMAP
0008
6024
4026
5F22
C122
DF3A
C23A
C422
D822
C022
4022
4026
6004
0008
ENDCHAR
STARTCHAR 3219
ENCODING 12825
SWIDTH 960 0
DWIDTH 16 0
BBX 15 14 0 -2
BITMAP
0008
6024
4026
5F22
D022
DF3A
DF3A
D022
DFA2
C022
4022
4026
6004
0008
ENDCHAR
STARTCHAR 321A
ENCODING 12826
SWIDTH 960 0
DWIDTH 16 0
BBX 15 14 0 -2
BITMAP
0008
6024
4026
5FA2
CB22
CB3A
CB22
CB22
DFA2
C022
4022
4026
6004
0008
ENDCHAR
STARTCHAR 321B
ENCODING 12827
SWIDTH 960 0
DWIDTH 16 0
BBX 15 14 0 -2
BITMAP
0008
6024
4C26
4F22
DFA2
DFA2
C93A
D9A2
CF22
C622
4022
4026
6004
0008
ENDCHAR
STARTCHAR 321C
ENCODING 12828
SWIDTH 960 0
DWIDTH 16 0
BBX 15 14 0 -2
BITMAP
0008
6FE4
4FC2
C0C2
C3C2
CE72
C002
FFFE
FF82
C182
4182
4182
6184
0008
ENDCHAR
STARTCHAR 3231
ENCODING 12849
SWIDTH 960 0
DWIDTH 16 0
BBX 15 13 0 -1
BITMAP
2008
2844
4944
4942
BFF2
8A42
9FFA
9EE2
A8E2
E952
4A5A
4844
200C
ENDCHAR
STARTCHAR 3239
ENCODING 12857
SWIDTH 960 0
DWIDTH 16 0
BBX 15 13 0 -1
BITMAP
2008
2584
45B4
4D82
99FA
BFC2
A882
8882
88C2
C84A
487A
4834
200C
ENDCHAR
STARTCHAR 3260
ENCODING 12896
SWIDTH 960 0
DWIDTH 16 0
BBX 15 15 0 -2
BITMAP
0380
0C70
3018
200C
4FE4
4FE2
8022
8022
8022
8022
4022
4004
200C
1018
0FE0
ENDCHAR
STARTCHAR 3261
ENCODING 12897
SWIDTH 960 0
DWIDTH 16 0
BBX 15 15 0 -2
BITMAP
0380
0C70
3018
200C
4804
4802
8802
8802
8802
8802
4FF2
4004
200C
1018
0FE0
ENDCHAR
STARTCHAR 3262
ENCODING 12898
SWIDTH 960 0
DWIDTH 16 0
BBX 15 15 0 -2
BITMAP
0380
0C70
3018
200C
4FE4
4FE2
8802
8802
8802
8802
4FE2
4004
200C
1018
0FE0
ENDCHAR
STARTCHAR 3263
ENCODING 12899
SWIDTH 960 0
DWIDTH 16 0
BBX 15 15 0 -2
BITMAP
0380
0C70
3018
200C
4FE4
4FE2
8022
8FE2
8802
8802
4FF2
4004
200C
1018
0FE0
ENDCHAR
STARTCHAR 3264
ENCODING 12900
SWIDTH 960 0
DWIDTH 16 0
BBX 15 15 0 -2
BITMAP
0380
0C70
3018
200C
4FE4
4FE2
8822
8822
8822
8822
4FE2
4004
200C
1018
0FE0
ENDCHAR
STARTCHAR 3265
ENCODING 12901
SWIDTH 960 0
DWIDTH 16 0
BBX 15 15 0 -2
BITMAP
0380
0C70
3018
200C
4824
4822
8822
8FE2
8822
8822
4FE2
4004
200C
1018
0FE0
ENDCHAR
STARTCHAR 3266
ENCODING 12902
SWIDTH 960 0
DWIDTH 16 0
BBX 15 15 0 -2
BITMAP
0380
0C70
3018
210C
4104
4102
8302
82C2
8662
9C32
5012
4004
200C
1018
0FE0
ENDCHAR
STARTCHAR 3267
ENCODING 12903
SWIDTH 960 0
DWIDTH 16 0
BBX 15 15 0 -2
BITMAP
0380
0C70
3018
200C
4384
47C2
8C22
8832
8832
8C62
47C2
4004
200C
1018
0FE0
ENDCHAR
STARTCHAR 3268
ENCODING 12904
SWIDTH 960 0
DWIDTH 16 0
BBX 15 15 0 -2
BITMAP
0380
0C70
3018
200C
5FE4
4042
80C2
8182
83C2
8E72
581A
4004
200C
1018
0FE0
ENDCHAR
STARTCHAR 3269
ENCODING 12905
SWIDTH 960 0
DWIDTH 16 0
BBX 15 15 0 -2
BITMAP
0380
0C70
3018
27CC
4004
4FE2
8FE2
80C2
81C2
8772
5C1A
4004
200C
1018
0FE0
ENDCHAR
STARTCHAR 326A
ENCODING 12906
SWIDTH 960 0
DWIDTH 16 0
BBX 15 15 0 -2
BITMAP
0380
0C70
3018
200C
4FE4
4022
8022
8FE2
8022
8022
4022
4004
200C
1018
0FE0
ENDCHAR
STARTCHAR 326B
ENCODING 12907
SWIDTH 960 0
DWIDTH 16 0
BBX 15 15 0 -2
BITMAP
0380
0C70
3018
200C
4FE4
4802
8802
8FE2
8802
8802
4FF2
4004
200C
1018
0FE0
ENDCHAR
STARTCHAR 326C
ENCODING 12908
SWIDTH 960 0
DWIDTH 16 0
BBX 15 15 0 -2
BITMAP
0380
0C70
3018
200C
5FF4
4042
8442
8442
8442
8442
5FF2
4004
200C
1018
0FE0
ENDCHAR
STARTCHAR 326D
ENCODING 12909
SWIDTH 960 0
DWIDTH 16 0
BBX 15 15 0 -2
BITMAP
0380
0C70
3018
274C
47C4
4002
9FF2
8602
8C62
8C22
4462
47C4
210C
1018
0FE0
ENDCHAR
STARTCHAR 326E
ENCODING 12910
SWIDTH 960 0
DWIDTH 16 0
BBX 15 15 0 -2
BITMAP
0380
0C70
3018
202C
5F24
4122
833A
823A
8C22
9822
4022
4024
202C
1018
0FE0
ENDCHAR
STARTCHAR 326F
ENCODING 12911
SWIDTH 960 0
DWIDTH 16 0
BBX 15 15 0 -2
BITMAP
0380
0C70
3018
202C
5024
5022
903A
9022
9022
9FA2
4022
4024
202C
1018
0FE0
ENDCHAR
STARTCHAR 3270
ENCODING 12912
SWIDTH 960 0
DWIDTH 16 0
BBX 15 15 0 -2
BITMAP
0380
0C70
3018
202C
5F24
5022
903A
9022
9022
9FA2
4022
4024
202C
1018
0FE0
ENDCHAR
STARTCHAR 3271
ENCODING 12913
SWIDTH 960 0
DWIDTH 16 0
BBX 15 15 0 -2
BITMAP
0380
0C70
3018
202C
5F24
4322
9F3A
9F3A
9022
9FA2
4022
4024
202C
1018
0FE0
ENDCHAR
STARTCHAR 3272
ENCODING 12914
SWIDTH 960 0
DWIDTH 16 0
BBX 15 15 0 -2
BITMAP
0380
0C70
3018
202C
5F24
5122
913A
9122
9122
9F22
4022
4024
202C
1018
0FE0
ENDCHAR
STARTCHAR 3273
ENCODING 12915
SWIDTH 960 0
DWIDTH 16 0
BBX 15 15 0 -2
BITMAP
0380
0C70
3018
202C
5124
5122
9F3A
9122
9122
9F22
4022
4024
202C
1018
0FE0
ENDCHAR
STARTCHAR 3274
ENCODING 12916
SWIDTH 960 0
DWIDTH 16 0
BBX 15 15 0 -2
BITMAP
0380
0C70
3018
262C
4624
4622
843A
8E22
9922
90A2
4022
4024
202C
1018
0FE0
ENDCHAR
STARTCHAR 3275
ENCODING 12917
SWIDTH 960 0
DWIDTH 16 0
BBX 15 15 0 -2
BITMAP
0380
0C70
3018
202C
4E24
5922
913A
9122
9F22
8622
4022
4024
202C
1018
0FE0
ENDCHAR
STARTCHAR 3276
ENCODING 12918
SWIDTH 960 0
DWIDTH 16 0
BBX 15 15 0 -2
BITMAP
0380
0C70
3018
202C
5F24
4322
823A
8622
8F22
98A2
4022
4024
202C
1018
0FE0
ENDCHAR
STARTCHAR 3277
ENCODING 12919
SWIDTH 960 0
DWIDTH 16 0
BBX 15 15 0 -2
BITMAP
0380
0C70
3018
2F2C
4724
5F22
833A
823A
8722
99A2
50A2
4024
202C
1018
0FE0
ENDCHAR
STARTCHAR 3278
ENCODING 12920
SWIDTH 960 0
DWIDTH 16 0
BBX 15 15 0 -2
BITMAP
0380
0C70
3018
202C
5F24
4122
9F3A
823A
8422
9822
4022
4024
202C
1018
0FE0
ENDCHAR
STARTCHAR 3279
ENCODING 12921
SWIDTH 960 0
DWIDTH 16 0
BBX 15 15 0 -2
BITMAP
0380
0C70
3018
202C
5F24
5022
9F3A
9F3A
9022
9FA2
4022
4024
202C
1018
0FE0
ENDCHAR
STARTCHAR 327A
ENCODING 12922
SWIDTH 960 0
DWIDTH 16 0
BBX 15 15 0 -2
BITMAP
0380
0C70
3018
202C
5FA4
4B22
8B3A
8B22
8B22
9FA2
4022
4024
202C
1018
0FE0
ENDCHAR
STARTCHAR 327B
ENCODING 12923
SWIDTH 960 0
DWIDTH 16 0
BBX 15 15 0 -2
BITMAP
0380
0C70
3018
2C2C
4F24
5FA2
9FA2
893A
99A2
8F22
4622
4024
202C
1018
0FE0
ENDCHAR
STARTCHAR 327E
ENCODING 12926
SWIDTH 960 0
DWIDTH 16 0
BBX 14 14 1 -2
BITMAP
0FE0
3030
6798
4C4C
CC44
87C4
8004
BFF4
8104
C104
4108
2118
1830
0FC0
ENDCHAR
STARTCHAR 327F
ENCODING 12927
SWIDTH 960 0
DWIDTH 16 0
BBX 14 14 1 -2
BITMAP
1FC0
3060
4850
C898
8908
8A0C
EE3C
0A3C
8908
8888
4848
6010
3060
0F80
ENDCHAR
STARTCHAR 328A
ENCODING 12938
SWIDTH 960 0
DWIDTH 16 0
BBX 14 14 1 -2
BITMAP
0FC0
3030
47C8
8848
8844
8FC4
8844
87C4
8844
8844
8848
4088
2010
1FE0
ENDCHAR
STARTCHAR 328B
ENCODING 12939
SWIDTH 960 0
DWIDTH 16 0
BBX 14 14 1 -2
BITMAP
0FC0
3030
4008
8208
8A44
9244
9224
8304
8504
8484
9868
4008
2010
1FE0
ENDCHAR
STARTCHAR 328C
ENCODING 12940
SWIDTH 960 0
DWIDTH 16 0
BBX 14 14 1 -2
BITMAP
0FC0
3030
4208
8208
8224
BE44
8B84
8A84
9284
9264
A208
4608
2010
1FE0
ENDCHAR
STARTCHAR 328D
ENCODING 12941
SWIDTH 960 0
DWIDTH 16 0
BBX 14 14 1 -2
BITMAP
0FC0
3030
4208
8208
8204
9FE4
8704
8A84
9244
A224
8208
4208
2010
1FE0
ENDCHAR
STARTCHAR 328E
ENCODING 12942
SWIDTH 960 0
DWIDTH 16 0
BBX 14 14 1 -2
BITMAP
0FC0
3030
4108
8308
8484
8844
B7B4
8FC4
8204
8A84
8008
5FE8
2010
1FE0
ENDCHAR
STARTCHAR 328F
ENCODING 12943
SWIDTH 960 0
DWIDTH 16 0
BBX 14 14 1 -2
BITMAP
0FC0
3030
4208
8208
8204
9FE4
8204
8204
8204
8204
9DE8
4008
2010
1FE0
ENDCHAR
STARTCHAR 3290
ENCODING 12944
SWIDTH 960 0
DWIDTH 16 0
BBX 14 14 1 -2
BITMAP
0FC0
3030
4008
8FC8
8844
8844
8FC4
8844
8844
8844
8FC8
4008
2010
1FE0
ENDCHAR
STARTCHAR 3294
ENCODING 12948
SWIDTH 960 0
DWIDTH 16 0
BBX 14 14 1 -1
BITMAP
1FE0
6210
8608
8FC8
B184
8F04
8604
BFE4
AC24
8C24
8FE8
4C30
2020
1FC0
ENDCHAR
STARTCHAR 329E
ENCODING 12958
SWIDTH 960 0
DWIDTH 16 0
BBX 15 14 0 -2
BITMAP
0FE0
1010
2008
4FE4
48A4
48A2
8EA2
88A2
4EA2
48E4
6884
2008
1830
07C0
ENDCHAR
STARTCHAR 32A5
ENCODING 12965
SWIDTH 960 0
DWIDTH 16 0
BBX 14 14 1 -1
BITMAP
1FE0
6010
8208
8208
BFE4
A224
A224
BFE4
B224
8204
8208
4310
2020
1FC0
ENDCHAR
STARTCHAR 3380
ENCODING 13184
SWIDTH 960 0
DWIDTH 16 0
BBX 14 14 1 -3
BITMAP
00C0
00A0
00A0
F9A0
C910
8910
8B10
8BF8
8A08
CE08
F404
8000
8000
8000
ENDCHAR
STARTCHAR 3381
ENCODING 13185
SWIDTH 960 0
DWIDTH 16 0
BBX 14 11 1 0
BITMAP
0060
00A0
00A0
F0B0
9910
9910
9918
9BF8
9A08
9A0C
9C04
ENDCHAR
STARTCHAR 3382
ENCODING 13186
SWIDTH 960 0
DWIDTH 16 0
BBX 15 13 0 -2
BITMAP
0060
0050
0050
22D0
2698
2488
6588
45FC
4504
4F04
7E06
4000
C000
ENDCHAR
STARTCHAR 3383
ENCODING 13187
SWIDTH 960 0
DWIDTH 16 0
BBX 14 11 1 0
BITMAP
0060
00E0
00A0
F8A0
ADB0
AD10
AD10
AFF8
AE08
AE08
AE0C
ENDCHAR
STARTCHAR 3384
ENCODING 13188
SWIDTH 960 0
DWIDTH 16 0
BBX 14 11 1 0
BITMAP
80C0
80E0
80A0
9920
9130
A110
E210
F3F8
9208
9C08
8C0C
ENDCHAR
STARTCHAR 3388
ENCODING 13192
SWIDTH 960 0
DWIDTH 16 0
BBX 15 13 0 -1
BITMAP
000C
001A
0012
3152
7BD2
4ED2
C652
C656
C654
CE5C
4ADA
73FE
0004
ENDCHAR
STARTCHAR 3389
ENCODING 13193
SWIDTH 960 0
DWIDTH 16 0
BBX 15 12 0 -1
BITMAP
0004
800E
800A
800A
9EEA
AAAA
EBAA
C8AA
E8AA
A8AC
BAAE
9EDE
ENDCHAR
STARTCHAR 338A
ENCODING 13194
SWIDTH 960 0
DWIDTH 16 0
BBX 12 14 2 -3
BITMAP
03F0
0300
2300
FB00
8B00
8FF0
8F00
8F00
8F00
8B00
FB00
8000
8000
8000
ENDCHAR
STARTCHAR 338B
ENCODING 13195
SWIDTH 960 0
DWIDTH 16 0
BBX 12 11 2 0
BITMAP
03F0
0200
0200
FA00
CA00
8BE0
8A00
8A00
8A00
8A00
8A00
ENDCHAR
STARTCHAR 338C
ENCODING 13196
SWIDTH 960 0
DWIDTH 16 0
BBX 13 13 1 -2
BITMAP
01F8
0180
0180
4780
4580
45F8
4580
C580
CD80
C980
FD80
8000
8000
ENDCHAR
STARTCHAR 338D
ENCODING 13197
SWIDTH 960 0
DWIDTH 16 0
BBX 13 12 1 -3
BITMAP
0060
66F8
4598
4508
4508
4508
CD98
C8F8
FC68
8188
8090
0060
ENDCHAR
STARTCHAR 338E
ENCODING 13198
SWIDTH 960 0
DWIDTH 16 0
BBX 13 12 1 -3
BITMAP
0060
FCF8
9698
9788
9708
9708
9698
96F8
9668
0188
00D0
0060
ENDCHAR
STARTCHAR 338F
ENCODING 13199
SWIDTH 960 0
DWIDTH 16 0
BBX 12 14 2 -3
BITMAP
8000
8000
80C0
89F0
9330
B210
E210
F210
9330
99F0
8CD0
0210
0120
00C0
ENDCHAR
STARTCHAR 3390
ENCODING 13200
SWIDTH 960 0
DWIDTH 16 0
BBX 13 11 1 0
BITMAP
C600
C600
C600
C6F8
FE18
FE10
C620
C660
C640
C680
C6F8
ENDCHAR
STARTCHAR 3391
ENCODING 13201
SWIDTH 960 0
DWIDTH 16 0
BBX 14 11 1 0
BITMAP
8440
8440
8440
947C
A448
E7C8
E458
A450
A450
9470
947C
ENDCHAR
STARTCHAR 3392
ENCODING 13202
SWIDTH 960 0
DWIDTH 16 0
BBX 14 11 1 0
BITMAP
8E40
8E40
8E40
DE5C
DE4C
DFC8
DE48
DE58
EE50
AE50
AE5C
ENDCHAR
STARTCHAR 3393
ENCODING 13203
SWIDTH 960 0
DWIDTH 16 0
BBX 15 12 0 0
BITMAP
1000
7B20
4720
4720
C32E
C3E6
DFE4
C724
C72C
4728
4F28
7F2E
ENDCHAR
STARTCHAR 3394
ENCODING 13204
SWIDTH 960 0
DWIDTH 16 0
BBX 15 11 0 0
BITMAP
FE20
3220
3220
323E
33E4
33E4
322C
3228
3228
3238
323E
ENDCHAR
STARTCHAR 3395
ENCODING 13205
SWIDTH 960 0
DWIDTH 16 0
BBX 13 14 1 -2
BITMAP
0030
0058
00C8
0088
6688
4688
4498
4490
4490
CCB0
CC60
FFE8
8030
8000
ENDCHAR
STARTCHAR 3396
ENCODING 13206
SWIDTH 960 0
DWIDTH 16 0
BBX 14 13 1 -1
BITMAP
0030
0048
0048
00C8
FE88
9288
9288
9298
92D0
92F0
9260
92AC
0018
ENDCHAR
STARTCHAR 3397
ENCODING 13207
SWIDTH 960 0
DWIDTH 16 0
BBX 13 13 1 -1
BITMAP
0470
04D0
0498
0498
7C98
CD98
8590
8590
84B0
8CA0
CCC8
7DF8
0030
ENDCHAR
STARTCHAR 3398
ENCODING 13208
SWIDTH 960 0
DWIDTH 16 0
BBX 12 13 2 -1
BITMAP
00E0
80B0
8130
8110
9910
9130
A130
E120
F120
9140
99D0
8BF0
0060
ENDCHAR
STARTCHAR 3399
ENCODING 13209
SWIDTH 960 0
DWIDTH 16 0
BBX 11 12 2 0
BITMAP
3000
7000
4000
4040
FFE0
4DA0
4DA0
4DA0
4DA0
4DA0
4DA0
4DA0
ENDCHAR
STARTCHAR 339A
ENCODING 13210
SWIDTH 960 0
DWIDTH 16 0
BBX 13 9 1 0
BITMAP
0010
FBF8
CA48
CA48
CA48
CA48
CA48
CA48
CA48
ENDCHAR
STARTCHAR 339B
ENCODING 13211
SWIDTH 960 0
DWIDTH 16 0
BBX 15 10 0 -1
BITMAP
22FE
2292
6292
6692
4492
4492
4C92
7E92
C000
8000
ENDCHAR
STARTCHAR 339C
ENCODING 13212
SWIDTH 960 0
DWIDTH 16 0
BBX 14 8 1 0
BITMAP
FDF8
B52C
B52C
B52C
B52C
B52C
B52C
B52C
ENDCHAR
STARTCHAR 339D
ENCODING 13213
SWIDTH 960 0
DWIDTH 16 0
BBX 13 9 1 0
BITMAP
1000
79F8
C568
8568
8168
8168
8168
C568
7968
ENDCHAR
STARTCHAR 339E
ENCODING 13214
SWIDTH 960 0
DWIDTH 16 0
BBX 13 11 1 0
BITMAP
C000
C000
C000
CDF8
D968
F148
E148
F148
D948
C948
CD48
ENDCHAR
STARTCHAR 339F
ENCODING 13215
SWIDTH 960 0
DWIDTH 16 0
BBX 15 12 0 0
BITMAP
0006
000A
0002
0004
FFFE
D750
D750
D750
D750
D750
D750
D750
ENDCHAR
STARTCHAR 33A0
ENCODING 13216
SWIDTH 960 0
DWIDTH 16 0
BBX 15 12 0 0
BITMAP
0006
000A
0002
1004
7BFE
4F50
C650
8250
8250
C650
4E50
7A50
ENDCHAR
STARTCHAR 33A1
ENCODING 13217
SWIDTH 960 0
DWIDTH 16 0
BBX 12 12 2 0
BITMAP
0030
0050
0030
0060
FF70
C980
C980
C980
C980
C980
C980
C980
ENDCHAR
STARTCHAR 33A2
ENCODING 13218
SWIDTH 960 0
DWIDTH 16 0
BBX 14 12 1 0
BITMAP
000C
8014
8004
8008
9FFC
B6A0
A6A0
E6A0
A6A0
B6A0
96A0
9EA0
ENDCHAR
STARTCHAR 33A3
ENCODING 13219
SWIDTH 960 0
DWIDTH 16 0
BBX 15 12 0 0
BITMAP
0006
000A
0006
000A
FDFE
D550
D550
D550
D550
D550
D550
D550
ENDCHAR
STARTCHAR 33A4
ENCODING 13220
SWIDTH 960 0
DWIDTH 16 0
BBX 15 12 0 0
BITMAP
000E
000A
0004
000A
7BFE
4F50
C650
8250
8250
C250
4E50
7A50
ENDCHAR
STARTCHAR 33A5
ENCODING 13221
SWIDTH 960 0
DWIDTH 16 0
BBX 12 12 2 0
BITMAP
0060
0050
0020
0010
FF70
C900
8980
8980
8980
8980
8980
8980
ENDCHAR
STARTCHAR 33A6
ENCODING 13222
SWIDTH 960 0
DWIDTH 16 0
BBX 14 12 1 0
BITMAP
000C
8014
800C
8014
9FFC
B6A0
A6A0
E6A0
A6A0
B6A0
96A0
9EA0
ENDCHAR
STARTCHAR 33A7
ENCODING 13223
SWIDTH 960 0
DWIDTH 16 0
BBX 13 13 1 -1
BITMAP
2800
F408
9410
9420
9440
9480
9570
0288
0480
0870
1088
6088
4070
ENDCHAR
STARTCHAR 33A8
ENCODING 13224
SWIDTH 960 0
DWIDTH 16 0
BBX 14 13 1 -1
BITMAP
F800
B410
A420
A440
A48C
A504
02C8
0520
0920
11C0
2020
4120
81E0
ENDCHAR
STARTCHAR 33A9
ENCODING 13225
SWIDTH 960 0
DWIDTH 16 0
BBX 12 12 2 0
BITMAP
F000
8800
8C00
84F0
85F0
8F20
FA20
8220
8220
8220
8330
81D0
ENDCHAR
STARTCHAR 33AA
ENCODING 13226
SWIDTH 960 0
DWIDTH 16 0
BBX 15 12 0 0
BITMAP
C380
C3C0
C240
CA4A
DA56
D256
E3F6
E236
F236
D236
DA16
CA1E
ENDCHAR
STARTCHAR 33AB
ENCODING 13227
SWIDTH 960 0
DWIDTH 16 0
BBX 15 12 0 0
BITMAP
C5C0
CDE0
CD20
CD2A
CD3E
AD32
ADF2
B512
B512
B512
B516
950E
ENDCHAR
STARTCHAR 33AC
ENCODING 13228
SWIDTH 960 0
DWIDTH 16 0
BBX 15 12 0 0
BITMAP
3380
7BC0
4720
472A
C33E
C376
DFD6
C716
C716
4716
4F16
371E
ENDCHAR
STARTCHAR 33AD
ENCODING 13229
SWIDTH 960 0
DWIDTH 16 0
BBX 14 11 1 0
BITMAP
000C
000C
140C
FF7C
C94C
99CC
918C
918C
99CC
8B4C
8F7C
ENDCHAR
STARTCHAR 33AE
ENCODING 13230
SWIDTH 960 0
DWIDTH 16 0
BBX 15 15 0 -2
BITMAP
0040
0040
FDC0
D742
D644
D548
C8D0
0060
00C0
01BC
0330
060C
0C34
1808
1000
ENDCHAR
STARTCHAR 33AF
ENCODING 13231
SWIDTH 960 0
DWIDTH 16 0
BBX 15 14 0 -2
BITMAP
0040
0040
FDC2
D646
964C
9758
8DF6
0062
00C4
01F8
0360
0618
0848
1030
ENDCHAR
STARTCHAR 33B0
ENCODING 13232
SWIDTH 960 0
DWIDTH 16 0
BBX 12 12 2 -3
BITMAP
2040
F9F0
8B10
8B00
8DC0
8C70
8E10
8B10
F9F0
8000
8000
8000
ENDCHAR
STARTCHAR 33B1
ENCODING 13233
SWIDTH 960 0
DWIDTH 16 0
BBX 12 8 2 1
BITMAP
FBE0
8A30
8A00
89C0
8860
8A10
8A10
8BE0
ENDCHAR
STARTCHAR 33B2
ENCODING 13234
SWIDTH 960 0
DWIDTH 16 0
BBX 13 10 1 -1
BITMAP
66F0
4518
4580
44E0
4438
CD08
CD08
FEF8
8000
8000
ENDCHAR
STARTCHAR 33B3
ENCODING 13235
SWIDTH 960 0
DWIDTH 16 0
BBX 13 8 1 1
BITMAP
FCF8
9788
9780
96E0
9638
9708
9788
96F8
ENDCHAR
STARTCHAR 33B4
ENCODING 13236
SWIDTH 960 0
DWIDTH 16 0
BBX 12 14 2 -3
BITMAP
0C10
0C10
0430
F420
9E20
8A60
8A40
8B40
89C0
9980
F180
A000
8000
8000
ENDCHAR
STARTCHAR 33B5
ENCODING 13237
SWIDTH 960 0
DWIDTH 16 0
BBX 13 11 1 0
BITMAP
0408
0618
0210
FA10
CA30
CB20
C920
C920
C9C0
C8C0
C8C0
ENDCHAR
STARTCHAR 33B6
ENCODING 13238
SWIDTH 960 0
DWIDTH 16 0
BBX 14 13 1 -2
BITMAP
060C
0208
0208
4F18
4D10
4910
C9B0
C8A0
C8A0
D8E0
FC40
8000
8000
ENDCHAR
STARTCHAR 33B7
ENCODING 13239
SWIDTH 960 0
DWIDTH 16 0
BBX 13 11 1 0
BITMAP
0608
0208
0208
FF18
B510
B510
B5B0
B4A0
B4A0
B4E0
B440
ENDCHAR
STARTCHAR 33B8
ENCODING 13240
SWIDTH 960 0
DWIDTH 16 0
BBX 13 11 1 0
BITMAP
C608
C208
C218
CB10
D110
F110
E1B0
F0A0
D0A0
D8E0
C840
ENDCHAR
STARTCHAR 33B9
ENCODING 13241
SWIDTH 960 0
DWIDTH 16 0
BBX 14 11 1 0
BITMAP
868C
C68C
C688
C6C8
C648
EE58
AA50
AA70
AA70
BA30
9230
ENDCHAR
STARTCHAR 33BA
ENCODING 13242
SWIDTH 960 0
DWIDTH 16 0
BBX 14 14 1 -3
BITMAP
0CCC
0CC8
04C8
F4C8
95E8
9D68
8F38
8B30
9B30
9330
F330
8000
8000
8000
ENDCHAR
STARTCHAR 33BB
ENCODING 13243
SWIDTH 960 0
DWIDTH 16 0
BBX 14 11 1 0
BITMAP
0CCC
0CC8
04C8
F4C8
95E8
9568
9738
9330
9330
9330
9330
ENDCHAR
STARTCHAR 33BC
ENCODING 13244
SWIDTH 960 0
DWIDTH 16 0
BBX 15 13 0 -2
BITMAP
0222
0232
0376
2554
6554
6554
4D54
4D5C
49DC
4888
7C88
C000
8000
ENDCHAR
STARTCHAR 33BD
ENCODING 13245
SWIDTH 960 0
DWIDTH 16 0
BBX 14 11 1 0
BITMAP
0444
0464
06EC
FAA8
AAA8
AEA8
AEA8
AEB8
AFB8
AD10
AD10
ENDCHAR
STARTCHAR 33BE
ENCODING 13246
SWIDTH 960 0
DWIDTH 16 0
BBX 14 11 1 0
BITMAP
8444
84E4
86EC
9AA8
B2A8
A2A8
E2A8
E2A8
B3B8
9110
8910
ENDCHAR
STARTCHAR 33BF
ENCODING 13247
SWIDTH 960 0
DWIDTH 16 0
BBX 14 11 1 0
BITMAP
8F64
8F64
8D64
CD6C
DD7C
D578
D558
D5D8
B598
B498
A498
ENDCHAR
STARTCHAR 33C0
ENCODING 13248
SWIDTH 960 0
DWIDTH 16 0
BBX 12 12 2 0
BITMAP
00C0
83E0
8230
8610
9E10
B610
A610
E210
A220
B160
91C0
9B70
ENDCHAR
STARTCHAR 33C1
ENCODING 13249
SWIDTH 960 0
DWIDTH 16 0
BBX 14 12 1 0
BITMAP
0030
86F8
C68C
C784
CB04
CB04
EB84
AB84
AA88
B258
B250
B2DC
ENDCHAR
STARTCHAR 33C2
ENCODING 13250
SWIDTH 960 0
DWIDTH 16 0
BBX 16 9 0 0
BITMAP
79FC
4DB4
0DA4
3DA4
6DA4
CDA4
CDA4
7FA7
0203
ENDCHAR
STARTCHAR 33C3
ENCODING 13251
SWIDTH 960 0
DWIDTH 16 0
BBX 12 14 2 -3
BITMAP
F800
8800
8880
89F0
FB30
FA10
8A10
8E10
8E10
8B30
F9F0
0090
0010
0010
ENDCHAR
STARTCHAR 33C4
ENCODING 13252
SWIDTH 960 0
DWIDTH 16 0
BBX 13 9 1 0
BITMAP
3870
7CF8
C588
8100
8100
8100
8100
C588
78F8
ENDCHAR
STARTCHAR 33C5
ENCODING 13253
SWIDTH 960 0
DWIDTH 16 0
BBX 13 11 1 0
BITMAP
0018
0018
0018
78F8
C518
8518
8118
8118
8118
C518
78F8
ENDCHAR
STARTCHAR 33C6
ENCODING 13254
SWIDTH 960 0
DWIDTH 16 0
BBX 14 15 0 -2
BITMAP
0008
3818
2430
6060
60C0
2580
3F00
0600
0D00
197C
31D4
6194
C15C
0164
001C
ENDCHAR
STARTCHAR 33C7
ENCODING 13255
SWIDTH 960 0
DWIDTH 16 0
BBX 16 13 0 -1
BITMAP
1E00
3300
6300
4300
4078
C04C
C0C4
40C4
40C4
60CC
314C
3F7B
0003
ENDCHAR
STARTCHAR 33C8
ENCODING 13256
SWIDTH 960 0
DWIDTH 16 0
BBX 13 11 1 0
BITMAP
05F0
0518
0508
7D18
4DF0
C5F0
8518
8508
C508
4D18
7DF0
ENDCHAR
STARTCHAR 33C9
ENCODING 13257
SWIDTH 960 0
DWIDTH 16 0
BBX 14 15 1 -3
BITMAP
3800
7C00
C600
8200
808C
8088
9EC8
82D8
8250
8650
C670
7E30
0020
0020
00C0
ENDCHAR
STARTCHAR 33CA
ENCODING 13258
SWIDTH 960 0
DWIDTH 16 0
BBX 12 12 2 -1
BITMAP
8000
8000
8000
F9F0
CB20
8A20
8A20
8A20
8A20
8A30
89F0
0080
ENDCHAR
STARTCHAR 33CB
ENCODING 13259
SWIDTH 960 0
DWIDTH 16 0
BBX 10 11 3 0
BITMAP
8F00
8F80
88C0
8840
88C0
FF80
8800
8800
8800
8800
8800
ENDCHAR
STARTCHAR 33CF
ENCODING 13263
SWIDTH 960 0
DWIDTH 16 0
BBX 10 11 3 0
BITMAP
8100
8100
8100
9BC0
B100
E100
E100
A100
B100
9100
99C0
ENDCHAR
STARTCHAR 33D0
ENCODING 13264
SWIDTH 960 0
DWIDTH 16 0
BBX 14 13 1 -1
BITMAP
3800
6800
4800
4C10
CFF8
CB6C
CB6C
CB6C
DB6C
536C
676C
FF6C
1800
ENDCHAR
STARTCHAR 33D3
ENCODING 13267
SWIDTH 960 0
DWIDTH 16 0
BBX 13 13 1 -1
BITMAP
3800
6800
4800
4C00
CD18
C890
C8F0
C860
D860
50F0
6590
FD08
1800
ENDCHAR
STARTCHAR 33D6
ENCODING 13270
SWIDTH 960 0
DWIDTH 16 0
BBX 15 13 0 -1
BITMAP
000C
000E
0012
0092
F9D2
FA52
EA76
EA74
EA74
EA54
EA5A
E9DE
0004
ENDCHAR
STARTCHAR 33D8
ENCODING 13272
SWIDTH 960 0
DWIDTH 16 0
BBX 15 12 1 -3
BITMAP
2000
FBF8
9B68
8B48
8B48
8B48
8B48
DB48
F74E
8406
8000
8000
ENDCHAR
STARTCHAR 33DB
ENCODING 13275
SWIDTH 960 0
DWIDTH 16 0
BBX 12 9 2 0
BITMAP
3010
F9F0
8DC0
8180
7180
1980
8580
8D80
7980
ENDCHAR
STARTCHAR 33DC
ENCODING 13276
SWIDTH 960 0
DWIDTH 16 0
BBX 14 13 1 -1
BITMAP
3800
6C00
C600
8200
C08C
6088
3CC8
06D8
8250
8250
C670
7C30
1000
ENDCHAR
STARTCHAR 33DD
ENCODING 13277
SWIDTH 960 0
DWIDTH 16 0
BBX 14 11 1 0
BITMAP
9280
9A80
9A80
BAF8
EAC8
6E84
6C84
6C84
6C8C
6CC8
6CF8
ENDCHAR
STARTCHAR 4E00
ENCODING 19968
SWIDTH 960 0
DWIDTH 16 0
BBX 14 2 1 4
BITMAP
FFFC
FFFC
ENDCHAR
STARTCHAR 4E01
ENCODING 19969
SWIDTH 960 0
DWIDTH 16 0
BBX 14 13 1 -2
BITMAP
FFFC
0300
0300
0300
0300
0300
0300
0300
0300
0300
0300
0300
0E00
ENDCHAR
STARTCHAR 4E03
ENCODING 19971
SWIDTH 960 0
DWIDTH 16 0
BBX 14 14 1 -2
BITMAP
0C00
0C00
0C00
0C00
0C7C
FFF8
FC00
0C00
0C00
0C00
0C08
0C18
07F8
03E0
ENDCHAR
STARTCHAR 4E07
ENCODING 19975
SWIDTH 960 0
DWIDTH 16 0
BBX 14 13 1 -2
BITMAP
FFFC
0400
0400
0400
07F0
0430
0C30
0C30
1830
1830
3030
61E0
C0C0
ENDCHAR
STARTCHAR 4E08
ENCODING 19976
SWIDTH 960 0
DWIDTH 16 0
BBX 14 14 1 -1
BITMAP
0180
0180
7FFC
7FFC
0100
1900
0900
0D00
0700
0700
0700
1DC0
F87C
E01C
ENDCHAR
STARTCHAR 4E09
ENCODING 19977
SWIDTH 960 0
DWIDTH 16 0
BBX 14 12 1 -1
BITMAP
7FF8
0000
0000
0000
0000
3FF0
3FF0
0000
0000
0000
FFFC
FFFC
ENDCHAR
STARTCHAR 4E0A
ENCODING 19978
SWIDTH 960 0
DWIDTH 16 0
BBX 14 13 1 -1
BITMAP
0300
0200
0200
0200
0200
03F8
0300
0300
0300
0300
0300
0300
FFFC
ENDCHAR
STARTCHAR 4E0B
ENCODING 19979
SWIDTH 960 0
DWIDTH 16 0
BBX 14 13 1 -2
BITMAP
FFFC
0300
0300
0300
0380
03E0
0370
0310
0300
0300
0300
0300
0300
ENDCHAR
STARTCHAR 4E0D
ENCODING 19981
SWIDTH 960 0
DWIDTH 16 0
BBX 14 14 1 -2
BITMAP
7FF8
7FF8
0180
0300
0640
0FE0
1B30
3318
E30C
C304
0300
0300
0300
0300
ENDCHAR
STARTCHAR 4E11
ENCODING 19985
SWIDTH 960 0
DWIDTH 16 0
BBX 14 14 1 -2
BITMAP
3FF0
3FE0
0620
0620
0620
0420
FFFC
0420
0420
0460
0460
0C60
0C60
7FFC
ENDCHAR
STARTCHAR 4E14
ENCODING 19988
SWIDTH 960 0
DWIDTH 16 0
BBX 14 14 1 -2
BITMAP
1FE0
1020
1020
1020
1FE0
1FE0
1020
1020
1FE0
1020
1020
1020
1020
FFFC
ENDCHAR
STARTCHAR 4E15
ENCODING 19989
SWIDTH 960 0
DWIDTH 16 0
BBX 14 14 1 -2
BITMAP
7FF8
7F80
0300
0600
0FE0
1F30
3318
E30C
C304
0300
0300
0300
FFFC
FFFC
ENDCHAR
STARTCHAR 4E16
ENCODING 19990
SWIDTH 960 0
DWIDTH 16 0
BBX 14 14 1 -2
BITMAP
3260
3220
3220
3220
FFFC
FFFC
3220
3220
3220
33E0
3000
3000
3FF8
3FF8
ENDCHAR
STARTCHAR 4E18
ENCODING 19992
SWIDTH 960 0
DWIDTH 16 0
BBX 14 13 1 -1
BITMAP
3FF0
2000
2000
2000
2000
3FF8
2180
2180
2180
2180
2180
FFFC
FFFC
ENDCHAR
STARTCHAR 4E19
ENCODING 19993
SWIDTH 960 0
DWIDTH 16 0
BBX 14 13 1 -2
BITMAP
FFFC
0300
0300
7FF8
4208
4208
4788
4CC8
5868
5008
4008
4038
4038
ENDCHAR
STARTCHAR 4E1E
ENCODING 19998
SWIDTH 960 0
DWIDTH 16 0
BBX 14 14 1 -2
BITMAP
1FE0
00C0
0180
0380
7FB8
0FE0
1B60
1320
7330
C31C
8F04
0600
0000
7FF8
ENDCHAR
STARTCHAR 4E2D
ENCODING 20013
SWIDTH 960 0
DWIDTH 16 0
BBX 12 15 2 -2
BITMAP
0600
0600
0600
0600
FFF0
8610
8610
8610
8610
FFF0
0600
0600
0600
0600
0600
ENDCHAR
STARTCHAR 4E32
ENCODING 20018
SWIDTH 960 0
DWIDTH 16 0
BBX 12 15 2 -2
BITMAP
0600
0600
FFF0
FFF0
C630
FFF0
0600
0600
FFF0
8610
8610
FFF0
0600
0600
0600
ENDCHAR
STARTCHAR 4E38
ENCODING 20024
SWIDTH 960 0
DWIDTH 16 0
BBX 14 15 1 -2
BITMAP
0400
0400
0400
0400
7FE0
0460
0460
0C60
7C60
1860
1C60
1E44
3044
607C
C038
ENDCHAR
STARTCHAR 4E39
ENCODING 20025
SWIDTH 960 0
DWIDTH 16 0
BBX 14 14 1 -2
BITMAP
1FF0
1030
1230
1330
1130
1130
FFFC
FFFC
1030
1030
3030
2030
6030
4060
ENDCHAR
STARTCHAR 4E3B
ENCODING 20027
SWIDTH 960 0
DWIDTH 16 0
BBX 14 15 1 -2
BITMAP
0200
0300
0300
0300
7FF8
0300
0300
0300
3FF0
3FF0
0300
0300
0300
03FC
FFFC
ENDCHAR
STARTCHAR 4E42
ENCODING 20034
SWIDTH 960 0
DWIDTH 16 0
BBX 14 14 1 -2
BITMAP
3000
7030
D030
1820
0860
0C40
06C0
0780
0300
0780
0EE0
1870
F01C
400C
ENDCHAR
STARTCHAR 4E43
ENCODING 20035
SWIDTH 960 0
DWIDTH 16 0
BBX 13 13 2 -2
BITMAP
7FC0
08C0
08C0
0880
08F8
18F8
1818
1010
3010
2010
6030
C1F0
80E0
ENDCHAR
STARTCHAR 4E45
ENCODING 20037
SWIDTH 960 0
DWIDTH 16 0
BBX 15 15 1 -2
BITMAP
0800
0C00
0800
1FC0
1080
3180
6180
4380
0380
06C0
0C60
1830
3038
E01E
C004
ENDCHAR
STARTCHAR 4E4B
ENCODING 20043
SWIDTH 960 0
DWIDTH 16 0
BBX 14 15 1 -2
BITMAP
0200
0200
0200
3FF0
0030
0060
00C0
0180
0300
0600
2C00
7800
7800
CFFC
07FC
ENDCHAR
STARTCHAR 4E4D
ENCODING 20045
SWIDTH 960 0
DWIDTH 16 0
BBX 13 14 1 -1
BITMAP
0800
1800
1000
3FF8
6300
C300
03F0
0300
0300
03F8
03F8
0300
0300
0300
ENDCHAR
STARTCHAR 4E4E
ENCODING 20046
SWIDTH 960 0
DWIDTH 16 0
BBX 14 14 1 -1
BITMAP
5FF0
7F00
0330
2330
3320
1360
FFFC
FFFC
0300
0300
0300
0300
0300
0E00
ENDCHAR
STARTCHAR 4E4F
ENCODING 20047
SWIDTH 960 0
DWIDTH 16 0
BBX 14 14 1 -2
BITMAP
0070
7FC0
0200
0200
3FF0
3FF0
00E0
0180
0300
0600
2C00
7800
DF0C
07FC
ENDCHAR
STARTCHAR 4E56
ENCODING 20054
SWIDTH 960 0
DWIDTH 16 0
BBX 14 14 1 -2
BITMAP
07F0
3F00
0300
FFFC
0300
1B60
1B60
FB68
1B78
1B60
3B60
FB64
1B7C
0300
ENDCHAR
STARTCHAR 4E58
ENCODING 20056
SWIDTH 960 0
DWIDTH 16 0
BBX 14 14 1 -2
BITMAP
07F0
3F00
0300
FFFC
1B40
0B58
7B60
0B44
FB7C
8780
1B60
3330
E31C
8300
ENDCHAR
STARTCHAR 4E59
ENCODING 20057
SWIDTH 960 0
DWIDTH 16 0
BBX 13 13 2 -2
BITMAP
FFC0
0380
0700
0C00
1800
3000
6000
C000
C000
8018
8018
FFF0
3FC0
ENDCHAR
STARTCHAR 4E5D
ENCODING 20061
SWIDTH 960 0
DWIDTH 16 0
BBX 14 15 1 -2
BITMAP
0400
0400
0400
0400
7FE0
0460
0460
0C60
0C60
0860
1860
1844
3044
E07C
4038
ENDCHAR
STARTCHAR 4E5E
ENCODING 20062
SWIDTH 960 0
DWIDTH 16 0
BBX 14 15 1 -2
BITMAP
0800
0800
1FF8
3FF8
6000
C000
1FE0
0180
0300
0C00
1800
1008
300C
3838
1FF0
ENDCHAR
STARTCHAR 4E5F
ENCODING 20063
SWIDTH 960 0
DWIDTH 16 0
BBX 14 15 1 -2
BITMAP
0300
0300
3300
3310
33F0
3F90
FF10
F310
3310
3310
3370
3300
3304
181C
0FF8
ENDCHAR
STARTCHAR 4E6B
ENCODING 20075
SWIDTH 960 0
DWIDTH 16 0
BBX 15 15 0 -2
BITMAP
1800
1800
7F7C
1B44
1344
3344
2E7C
CE7C
0000
1FF0
01C0
0700
1C02
1806
0FFC
ENDCHAR
STARTCHAR 4E6D
ENCODING 20077
SWIDTH 960 0
DWIDTH 16 0
BBX 14 14 1 -2
BITMAP
FFF8
0800
1800
3FF0
F830
9830
1FF0
0000
7FE0
0380
1C00
7004
600C
3FF8
ENDCHAR
STARTCHAR 4E73
ENCODING 20083
SWIDTH 960 0
DWIDTH 16 0
BBX 16 14 0 -2
BITMAP
3F30
3930
6930
CDB0
4830
3F30
3F30
0630
0C30
FFB0
7C30
0C33
0C32
183E
ENDCHAR
STARTCHAR 4E76
ENCODING 20086
SWIDTH 960 0
DWIDTH 16 0
BBX 15 15 1 -2
BITMAP
0360
0220
FFFC
7FF0
6210
7FF0
6210
7FF0
6230
3FE0
3FE0
0F00
3806
600C
3FFC
ENDCHAR
STARTCHAR 4E77
ENCODING 20087
SWIDTH 960 0
DWIDTH 16 0
BBX 14 15 1 -2
BITMAP
00C0
70C0
02D8
C6CC
46C0
30D8
60F0
C7C0
0E00
7FE0
7FE0
0F00
3804
600C
3FF8
ENDCHAR
STARTCHAR 4E7E
ENCODING 20094
SWIDTH 960 0
DWIDTH 16 0
BBX 16 15 0 -2
BITMAP
1800
1860
FE40
18FE
7F80
7E00
467C
7E7C
4618
7E30
1820
1840
FFC3
18C2
18FE
ENDCHAR
STARTCHAR 4E82
ENCODING 20098
SWIDTH 960 0
DWIDTH 16 0
BBX 16 15 0 -2
BITMAP
0080
3FD0
64D0
FF50
3F10
1E10
7FD0
7FD0
5B50
7F50
4050
5E50
5E51
4E53
53DE
ENDCHAR
STARTCHAR 4E86
ENCODING 20102
SWIDTH 960 0
DWIDTH 16 0
BBX 11 14 2 -2
BITMAP
FFE0
FFE0
00C0
0180
0300
0600
0600
0600
0600
0600
0600
0600
0600
1C00
ENDCHAR
STARTCHAR 4E88
ENCODING 20104
SWIDTH 960 0
DWIDTH 16 0
BBX 13 14 2 -2
BITMAP
3FE0
3FC0
0180
0F00
0600
FFF8
FFF8
0670
0620
0600
0600
0600
0600
1E00
ENDCHAR
STARTCHAR 4E8B
ENCODING 20107
SWIDTH 960 0
DWIDTH 16 0
BBX 14 15 1 -2
BITMAP
0300
0300
FFFC
03F0
3FF0
2310
3FF0
0300
3FF0
03FC
FFFC
7FF0
0300
0300
0E00
ENDCHAR
STARTCHAR 4E8C
ENCODING 20108
SWIDTH 960 0
DWIDTH 16 0
BBX 14 10 1 0
BITMAP
3FF0
0000
0000
0000
0000
0000
0000
0000
0000
FFFC
ENDCHAR
STARTCHAR 4E8E
ENCODING 20110
SWIDTH 960 0
DWIDTH 16 0
BBX 14 14 1 -2
BITMAP
7FF8
7FF8
0300
0300
0300
03FC
FFFC
0300
0300
0300
0300
0300
0300
0E00
ENDCHAR
STARTCHAR 4E90
ENCODING 20112
SWIDTH 960 0
DWIDTH 16 0
BBX 14 14 1 -2
BITMAP
7FF8
0C00
0800
0800
FFFC
1800
1000
3000
3FF0
0030
0030
0030
0060
03E0
ENDCHAR
STARTCHAR 4E91
ENCODING 20113
SWIDTH 960 0
DWIDTH 16 0
BBX 14 14 1 -2
BITMAP
3FF0
3FF0
0000
0000
0000
FFFC
0C00
0C00
1840
1860
1030
37F8
FFC8
0008
ENDCHAR
STARTCHAR 4E92
ENCODING 20114
SWIDTH 960 0
DWIDTH 16 0
BBX 14 14 1 -2
BITMAP
FFFC
FFFC
1800
1800
1FE0
1060
1060
3060
3060
3FC0
0040
0040
00FC
FFFC
ENDCHAR
STARTCHAR 4E94
ENCODING 20116
SWIDTH 960 0
DWIDTH 16 0
BBX 14 12 1 -1
BITMAP
7FF8
0200
0200
0600
0600
3FF0
3E20
0420
0420
0C20
0C20
FFFC
ENDCHAR
STARTCHAR 4E95
ENCODING 20117
SWIDTH 960 0
DWIDTH 16 0
BBX 14 14 1 -1
BITMAP
0840
0840
0840
7FFC
0840
0840
0840
087C
FFFC
1840
1840
3040
3040
6040
ENDCHAR
STARTCHAR 4E98
ENCODING 20120
SWIDTH 960 0
DWIDTH 16 0
BBX 14 14 1 -2
BITMAP
7FF8
7FF8
0000
3FF0
3FF0
3030
3FF0
3FF0
3030
3030
3FF0
0000
0000
FFFC
ENDCHAR
STARTCHAR 4E9B
ENCODING 20123
SWIDTH 960 0
DWIDTH 16 0
BBX 15 14 1 -1
BITMAP
1880
1880
5898
5EF0
5880
5880
5886
FEFC
0000
3FF0
3FF0
0000
0000
FFFC
ENDCHAR
STARTCHAR 4E9E
ENCODING 20126
SWIDTH 960 0
DWIDTH 16 0
BBX 14 14 1 -2
BITMAP
FFFC
0CC0
0CC0
0CC0
7CF8
6018
6018
6018
7CF8
7CC0
0CC0
0CC0
FFFC
FFFC
ENDCHAR
STARTCHAR 4EA1
ENCODING 20129
SWIDTH 960 0
DWIDTH 16 0
BBX 14 14 1 -2
BITMAP
0300
0300
0100
FFFC
3000
3000
3000
3000
3000
3000
3000
3000
3FF8
0FF0
ENDCHAR
STARTCHAR 4EA2
ENCODING 20130
SWIDTH 960 0
DWIDTH 16 0
BBX 14 15 1 -2
BITMAP
0300
0300
7FFC
7FFC
0000
0FC0
0FC0
0840
0840
0840
1840
1844
3044
606C
C078
ENDCHAR
STARTCHAR 4EA4
ENCODING 20132
SWIDTH 960 0
DWIDTH 16 0
BBX 14 15 1 -2
BITMAP
0300
0300
7FF8
7FF8
08C0
3870
6018
08C0
0CC0
0780
0700
0780
0CC0
7878
E01C
ENDCHAR
STARTCHAR 4EA5
ENCODING 20133
SWIDTH 960 0
DWIDTH 16 0
BBX 14 15 1 -2
BITMAP
0300
0300
FFFC
FFFC
0440
3CC0
19A0
0F30
0660
0CC0
7980
E3C0
0E70
383C
6008
ENDCHAR
STARTCHAR 4EA6
ENCODING 20134
SWIDTH 960 0
DWIDTH 16 0
BBX 14 15 1 -2
BITMAP
0300
0300
0300
FFFC
0480
0480
34B0
6C98
6C98
CC8C
C88C
1880
3080
6080
C380
ENDCHAR
STARTCHAR 4EA8
ENCODING 20136
SWIDTH 960 0
DWIDTH 16 0
BBX 14 15 1 -2
BITMAP
0300
0300
FFFC
0000
3FF0
3030
3FF0
0000
3FF0
3FF0
01C0
0300
0300
0300
0700
ENDCHAR
STARTCHAR 4EAB
ENCODING 20139
SWIDTH 960 0
DWIDTH 16 0
BBX 14 15 1 -2
BITMAP
0300
0300
FFFC
0000
3FF0
3030
3FF0
0000
1FF0
01C0
0300
FFFC
0300
0300
0700
ENDCHAR
STARTCHAR 4EAC
ENCODING 20140
SWIDTH 960 0
DWIDTH 16 0
BBX 14 15 1 -2
BITMAP
0300
0300
7FF8
0000
3FF0
3FF0
3030
3030
3FF0
0300
1300
3360
6318
C30C
0600
ENDCHAR
STARTCHAR 4EAD
ENCODING 20141
SWIDTH 960 0
DWIDTH 16 0
BBX 14 15 1 -2
BITMAP
0300
0300
FFFC
0000
3FF0
3030
3FF0
0000
FFFC
C004
FFF4
0300
0300
0300
0700
ENDCHAR
STARTCHAR 4EAE
ENCODING 20142
SWIDTH 960 0
DWIDTH 16 0
BBX 14 15 1 -2
BITMAP
0300
0300
FFFC
0000
3FE0
3020
3FE0
0000
FFFC
FFFC
C88C
0880
188C
70CC
E0F8
ENDCHAR
STARTCHAR 4EB6
ENCODING 20150
SWIDTH 960 0
DWIDTH 16 0
BBX 14 15 1 -2
BITMAP
0300
FFFC
0000
7FF8
6018
6FD8
6FD8
7FF8
0000
3FF0
3030
3FF0
3FF0
3030
FFFC
ENDCHAR
STARTCHAR 4EBA
ENCODING 20154
SWIDTH 960 0
DWIDTH 16 0
BBX 14 14 1 -2
BITMAP
0300
0300
0300
0300
0300
0300
0780
0580
0CC0
08C0
1860
3030
601C
C00C
ENDCHAR
STARTCHAR 4EC0
ENCODING 20160
SWIDTH 960 0
DWIDTH 16 0
BBX 14 14 1 -1
BITMAP
0840
1840
1040
3040
3040
77FC
F040
3040
3040
3040
3040
3040
3040
3040
ENDCHAR
STARTCHAR 4EC1
ENCODING 20161
SWIDTH 960 0
DWIDTH 16 0
BBX 15 15 0 -2
BITMAP
0800
0C00
0800
1800
1BFC
3000
7000
D000
1000
1000
1000
1000
13FE
13FE
1000
ENDCHAR
STARTCHAR 4EC4
ENCODING 20164
SWIDTH 960 0
DWIDTH 16 0
BBX 15 14 0 -2
BITMAP
3FFE
3000
30C0
30C0
30C0
30C0
30C0
20C0
21E0
2130
2318
661C
4C0E
D802
ENDCHAR
STARTCHAR 4EC7
ENCODING 20167
SWIDTH 960 0
DWIDTH 16 0
BBX 16 14 0 -1
BITMAP
0880
1880
1880
37F8
3098
7098
F098
3198
3198
3118
3118
331B
361B
340E
ENDCHAR
STARTCHAR 4ECA
ENCODING 20170
SWIDTH 960 0
DWIDTH 16 0
BBX 14 15 1 -2
BITMAP
0200
0300
0780
0C80
1860
3030
E01C
8FC4
0000
0000
3FF0
0030
0020
0020
0060
ENDCHAR
STARTCHAR 4ECB
ENCODING 20171
SWIDTH 960 0
DWIDTH 16 0
BBX 14 15 1 -2
BITMAP
0300
0300
0780
0CC0
1860
7038
CCCC
0CC0
08C0
08C0
08C0
18C0
10C0
30C0
60C0
ENDCHAR
STARTCHAR 4ECD
ENCODING 20173
SWIDTH 960 0
DWIDTH 16 0
BBX 15 14 0 -1
BITMAP
0BF8
1BF0
1990
1190
3190
7190
D19E
1182
1106
1106
1306
1206
162C
141C
ENDCHAR
STARTCHAR 4ED4
ENCODING 20180
SWIDTH 960 0
DWIDTH 16 0
BBX 16 15 0 -2
BITMAP
0800
0DFC
080C
1818
1830
3030
7020
D7FF
1020
1020
1020
1020
1020
1020
10E0
ENDCHAR
STARTCHAR 4ED5
ENCODING 20181
SWIDTH 960 0
DWIDTH 16 0
BBX 15 15 0 -2
BITMAP
0800
0C60
0860
1860
1060
3060
77FE
D060
1060
1060
1060
1060
1060
1060
13FE
ENDCHAR
STARTCHAR 4ED6
ENCODING 20182
SWIDTH 960 0
DWIDTH 16 0
BBX 16 15 0 -2
BITMAP
0820
0820
1B20
1B26
333E
33F6
77A6
D726
1326
1326
132C
1320
1303
1103
11FE
ENDCHAR
STARTCHAR 4ED7
ENCODING 20183
SWIDTH 960 0
DWIDTH 16 0
BBX 15 14 0 -1
BITMAP
0820
0820
1BFE
13FE
3020
7120
D1A0
10A0
10E0
1060
10E0
11B8
171E
1606
ENDCHAR
STARTCHAR 4ED8
ENCODING 20184
SWIDTH 960 0
DWIDTH 16 0
BBX 14 14 1 -1
BITMAP
1830
1830
1030
303C
67FC
E030
A230
2330
21B0
2130
2030
2030
2030
20E0
ENDCHAR
STARTCHAR 4ED9
ENCODING 20185
SWIDTH 960 0
DWIDTH 16 0
BBX 14 14 1 -1
BITMAP
1840
1040
3040
364C
664C
E64C
E64C
264C
264C
264C
264C
264C
264C
27FC
ENDCHAR
STARTCHAR 4EDD
ENCODING 20189
SWIDTH 960 0
DWIDTH 16 0
BBX 16 15 0 -2
BITMAP
0100
0180
03C0
0660
0C30
1818
700E
E003
1FF8
1FF8
0180
0180
0180
0180
3FFC
ENDCHAR
STARTCHAR 4EDF
ENCODING 20191
SWIDTH 960 0
DWIDTH 16 0
BBX 14 14 1 -1
BITMAP
1838
17F0
3240
3040
6040
E040
EFFC
2040
2040
2040
2040
2040
2040
2040
ENDCHAR
STARTCHAR 4EE3
ENCODING 20195
SWIDTH 960 0
DWIDTH 16 0
BBX 14 14 1 -1
BITMAP
1900
1130
1110
3100
6FF8
EF80
E180
2180
2080
20C0
20C0
2064
207C
2038
ENDCHAR
STARTCHAR 4EE4
ENCODING 20196
SWIDTH 960 0
DWIDTH 16 0
BBX 14 15 1 -2
BITMAP
0300
0700
0580
18C0
3070
FFDC
DFCC
0000
1FE0
1C20
0C20
0C20
0CE0
0CC0
0C00
ENDCHAR
STARTCHAR 4EE5
ENCODING 20197
SWIDTH 960 0
DWIDTH 16 0
BBX 14 14 1 -2
BITMAP
0030
0430
6E30
4320
4020
4020
4020
4660
4C40
78E0
E1B8
C30C
0604
0400
ENDCHAR
STARTCHAR 4EF0
ENCODING 20208
SWIDTH 960 0
DWIDTH 16 0
BBX 15 14 0 -1
BITMAP
1BBE
1B36
1236
3236
3236
7236
D236
1236
1236
13BE
1730
1430
1030
1030
ENDCHAR
STARTCHAR 4EF2
ENCODING 20210
SWIDTH 960 0
DWIDTH 16 0
BBX 15 15 0 -2
BITMAP
0840
0C60
0860
1860
13FE
3266
7266
D266
1266
13FE
1060
1060
1060
1060
1060
ENDCHAR
STARTCHAR 4EF6
ENCODING 20214
SWIDTH 960 0
DWIDTH 16 0
BBX 15 15 0 -2
BITMAP
0800
0820
09A0
1920
13FE
3220
7620
D020
1020
17FE
1020
1020
1020
1020
1020
ENDCHAR
STARTCHAR 4EF7
ENCODING 20215
SWIDTH 960 0
DWIDTH 16 0
BBX 16 15 0 -2
BITMAP
0040
0860
18E0
1890
3198
330E
7603
F198
3198
3198
3198
3118
3318
3318
3618
ENDCHAR
STARTCHAR 4EFB
ENCODING 20219
SWIDTH 960 0
DWIDTH 16 0
BBX 15 15 1 -2
BITMAP
1000
1808
17F8
37C0
3040
6040
E040
AFFE
2FFE
2040
2040
2040
2040
2040
27FC
ENDCHAR
STARTCHAR 4F01
ENCODING 20225
SWIDTH 960 0
DWIDTH 16 0
BBX 16 15 0 -2
BITMAP
0180
0180
03C0
0660
0C30
399C
E187
0180
0980
09F8
0980
0980
0980
0980
7FFE
ENDCHAR
STARTCHAR 4F09
ENCODING 20233
SWIDTH 960 0
DWIDTH 16 0
BBX 16 15 0 -2
BITMAP
0060
0860
1FFE
1FFE
3000
31F0
71F0
F190
3190
3190
3110
3110
3313
361A
341E
ENDCHAR
STARTCHAR 4F0A
ENCODING 20234
SWIDTH 960 0
DWIDTH 16 0
BBX 16 15 0 -2
BITMAP
0800
0DFE
0866
1866
1066
37FF
7066
D066
13FE
1060
1040
10C0
10C0
1380
1700
ENDCHAR
STARTCHAR 4F0B
ENCODING 20235
SWIDTH 960 0
DWIDTH 16 0
BBX 16 14 0 -1
BITMAP
0BF8
1BF8
1198
3198
3198
71FE
F186
31C4
316C
332C
3338
323C
366E
34C3
ENDCHAR
STARTCHAR 4F0D
ENCODING 20237
SWIDTH 960 0
DWIDTH 16 0
BBX 16 14 0 -1
BITMAP
0800
1BFE
1860
3060
3040
7040
F3FC
33FC
30CC
30CC
308C
3088
37FF
37FF
ENDCHAR
STARTCHAR 4F0E
ENCODING 20238
SWIDTH 960 0
DWIDTH 16 0
BBX 15 15 0 -2
BITMAP
0060
0860
0860
1FFE
1060
3060
73FC
D3FC
1188
1198
10F0
1060
10F0
139C
1606
ENDCHAR
STARTCHAR 4F0F
ENCODING 20239
SWIDTH 960 0
DWIDTH 16 0
BBX 15 14 0 -1
BITMAP
0840
0858
184C
1040
37FE
7040
D0E0
10E0
10A0
11B0
1118
130C
160E
1406
ENDCHAR
STARTCHAR 4F10
ENCODING 20240
SWIDTH 960 0
DWIDTH 16 0
BBX 15 15 0 -2
BITMAP
0800
0890
0898
1888
109E
3FFC
70C0
D0C8
1058
1070
1060
10E0
11B2
171A
160E
ENDCHAR
STARTCHAR 4F11
ENCODING 20241
SWIDTH 960 0
DWIDTH 16 0
BBX 16 14 0 -1
BITMAP
0860
1860
1860
37FE
3060
70E0
F0F0
30F0
3168
336C
3666
3C63
3060
3060
ENDCHAR
STARTCHAR 4F2F
ENCODING 20271
SWIDTH 960 0
DWIDTH 16 0
BBX 14 15 1 -2
BITMAP
1000
1860
1040
37FC
360C
660C
E60C
A60C
27FC
260C
260C
260C
260C
260C
27FC
ENDCHAR
STARTCHAR 4F34
ENCODING 20276
SWIDTH 960 0
DWIDTH 16 0
BBX 15 15 0 -2
BITMAP
0800
0C20
09AC
1B26
1222
3020
73FE
D020
1020
17FE
1020
1020
1020
1020
1020
ENDCHAR
STARTCHAR 4F36
ENCODING 20278
SWIDTH 960 0
DWIDTH 16 0
BBX 16 15 0 -2
BITMAP
0040
08C0
18E0
19B0
331C
3E07
71F0
D000
13F8
13F8
1188
1188
11B8
1190
1180
ENDCHAR
STARTCHAR 4F38
ENCODING 20280
SWIDTH 960 0
DWIDTH 16 0
BBX 14 15 1 -2
BITMAP
1040
1840
1040
3040
27FC
644C
E44C
A7FC
244C
244C
27FC
27C0
2040
2040
2040
ENDCHAR
STARTCHAR 4F3A
ENCODING 20282
SWIDTH 960 0
DWIDTH 16 0
BBX 15 15 0 -2
BITMAP
0800
0C00
0BFE
1806
13F6
3006
7006
D1F6
1136
1136
1136
11F6
1006
1006
100E
ENDCHAR
STARTCHAR 4F3C
ENCODING 20284
SWIDTH 960 0
DWIDTH 16 0
BBX 16 14 0 -1
BITMAP
180C
188C
164C
326C
3208
7208
D248
12C8
1388
1718
143C
1066
10C3
1080
ENDCHAR
STARTCHAR 4F3D
ENCODING 20285
SWIDTH 960 0
DWIDTH 16 0
BBX 15 15 0 -2
BITMAP
0300
1B00
1900
17DE
375A
315A
735A
D35A
135A
135A
125A
125A
165A
17DA
159E
ENDCHAR
STARTCHAR 4F43
ENCODING 20291
SWIDTH 960 0
DWIDTH 16 0
BBX 14 15 1 -2
BITMAP
1000
1800
17FC
364C
364C
664C
E64C
A64C
27FC
264C
264C
264C
264C
27FC
27FC
ENDCHAR
STARTCHAR 4F46
ENCODING 20294
SWIDTH 960 0
DWIDTH 16 0
BBX 15 15 0 -2
BITMAP
0800
0800
09FC
1904
1104
3104
71FC
D104
1104
1104
11FC
1000
1000
13FE
13FE
ENDCHAR
STARTCHAR 4F47
ENCODING 20295
SWIDTH 960 0
DWIDTH 16 0
BBX 15 15 0 -2
BITMAP
0060
0860
1BFE
1A02
3202
3000
7000
D3FE
1020
1020
1020
1020
1020
1020
10E0
ENDCHAR
STARTCHAR 4F48
ENCODING 20296
SWIDTH 960 0
DWIDTH 16 0
BBX 16 14 0 -1
BITMAP
08C0
18C0
1FFF
3080
30A0
71A0
D1FE
1326
1726
1526
1126
1126
112E
112C
ENDCHAR
STARTCHAR 4F4D
ENCODING 20301
SWIDTH 960 0
DWIDTH 16 0
BBX 15 15 0 -2
BITMAP
0840
0C60
0820
1BFE
1BFE
3000
710C
D108
1188
1188
1098
1098
1090
1010
13FE
ENDCHAR
STARTCHAR 4F4E
ENCODING 20302
SWIDTH 960 0
DWIDTH 16 0
BBX 16 15 0 -2
BITMAP
0800
081C
0BF8
1B20
1320
3320
73FE
D330
1330
1310
13D8
1789
100F
1002
13F8
ENDCHAR
STARTCHAR 4F4F
ENCODING 20303
SWIDTH 960 0
DWIDTH 16 0
BBX 16 15 0 -2
BITMAP
0800
0C20
0820
1820
13FE
3020
7020
D020
11FC
11FC
1020
1020
1020
1020
13FF
ENDCHAR
STARTCHAR 4F50
ENCODING 20304
SWIDTH 960 0
DWIDTH 16 0
BBX 15 15 0 -2
BITMAP
0800
0840
0840
1FFE
17FE
3080
7080
D180
11FC
1320
1620
1020
1020
1020
17FE
ENDCHAR
STARTCHAR 4F51
ENCODING 20305
SWIDTH 960 0
DWIDTH 16 0
BBX 15 14 0 -1
BITMAP
0840
0840
187E
13FE
30C0
70C0
D080
11FC
11FC
1384
1684
1484
1084
10FC
ENDCHAR
STARTCHAR 4F55
ENCODING 20309
SWIDTH 960 0
DWIDTH 16 0
BBX 16 14 0 -1
BITMAP
0BFF
0BFF
1806
1006
33E6
7326
D326
1326
1326
13E6
1006
1006
1006
101C
ENDCHAR
STARTCHAR 4F59
ENCODING 20313
SWIDTH 960 0
DWIDTH 16 0
BBX 15 15 1 -2
BITMAP
0200
0700
0780
1CC0
3070
E01E
DFE4
0300
0300
7FF8
0300
1360
3330
E31C
4608
ENDCHAR
STARTCHAR 4F5A
ENCODING 20314
SWIDTH 960 0
DWIDTH 16 0
BBX 16 14 0 -1
BITMAP
09E0
1960
1B60
33FE
3660
7060
F7FF
37FF
3060
30F0
30D8
318C
370E
3603
ENDCHAR
STARTCHAR 4F5B
ENCODING 20315
SWIDTH 960 0
DWIDTH 16 0
BBX 15 15 0 -2
BITMAP
00D0
1890
1FFE
17FE
3096
37FE
7690
D690
17FE
1092
1092
1192
1116
1310
1610
ENDCHAR
STARTCHAR 4F5C
ENCODING 20316
SWIDTH 960 0
DWIDTH 16 0
BBX 14 14 1 -1
BITMAP
1980
1900
13FC
3240
7640
7C40
F07C
3040
3040
307C
3040
3040
3040
3040
ENDCHAR
STARTCHAR 4F69
ENCODING 20329
SWIDTH 960 0
DWIDTH 16 0
BBX 16 15 0 -2
BITMAP
1000
1FFC
160C
160C
37FC
364C
77FC
F75C
375C
375C
3554
3574
3555
3C47
3C43
ENDCHAR
STARTCHAR 4F6F
ENCODING 20335
SWIDTH 960 0
DWIDTH 16 0
BBX 15 14 0 -1
BITMAP
090C
0988
1918
13FE
3060
7060
D3FC
1060
1060
107E
17FE
1060
1060
1060
ENDCHAR
STARTCHAR 4F70
ENCODING 20336
SWIDTH 960 0
DWIDTH 16 0
BBX 15 14 0 -1
BITMAP
0BFE
1BFE
1820
3060
33FC
7304
F304
3304
33FC
3304
3304
3304
3304
33FC
ENDCHAR
STARTCHAR 4F73
ENCODING 20339
SWIDTH 960 0
DWIDTH 16 0
BBX 15 15 0 -2
BITMAP
0060
0860
1860
1BFC
3060
3060
77FE
D040
1060
1060
13FE
1060
1060
1060
17FE
ENDCHAR
STARTCHAR 4F76
ENCODING 20342
SWIDTH 960 0
DWIDTH 16 0
BBX 16 15 0 -2
BITMAP
0800
0820
0820
1FFF
1020
3020
73FE
D3FE
1000
11FC
11FC
1104
1104
1104
11FC
ENDCHAR
STARTCHAR 4F7A
ENCODING 20346
SWIDTH 960 0
DWIDTH 16 0
BBX 16 15 0 -2
BITMAP
0040
0860
08E0
18B0
1198
330C
7607
D7FE
13FC
1060
1060
11FC
1060
1060
17FE
ENDCHAR
STARTCHAR 4F7E
ENCODING 20350
SWIDTH 960 0
DWIDTH 16 0
BBX 16 14 0 -1
BITMAP
0870
1918
1B0C
3607
37FE
73FC
F30C
33FC
330C
33FC
33FC
320C
360C
3C1C
ENDCHAR
STARTCHAR 4F7F
ENCODING 20351
SWIDTH 960 0
DWIDTH 16 0
BBX 15 15 0 -2
BITMAP
0040
1860
1FFE
1060
3060
33FC
7264
D264
13FC
1060
1160
11C0
10E0
13BC
160E
ENDCHAR
STARTCHAR 4F81
ENCODING 20353
SWIDTH 960 0
DWIDTH 16 0
BBX 15 15 0 -2
BITMAP
0040
0960
1960
1B60
33FC
3660
7060
D7FE
17FE
1090
1190
1190
1112
1312
161E
ENDCHAR
STARTCHAR 4F83
ENCODING 20355
SWIDTH 960 0
DWIDTH 16 0
BBX 16 14 0 -1
BITMAP
0800
1BFC
1A0C
320C
320C
73FC
F3FC
3168
3168
3368
3368
3269
366B
346F
ENDCHAR
STARTCHAR 4F84
ENCODING 20356
SWIDTH 960 0
DWIDTH 16 0
BBX 16 14 0 -1
BITMAP
0BFE
1BC0
1880
3188
3184
73FE
F062
3020
3020
33FC
3020
3020
3020
37FF
ENDCHAR
STARTCHAR 4F86
ENCODING 20358
SWIDTH 960 0
DWIDTH 16 0
BBX 14 14 1 -1
BITMAP
0300
03F8
7FF8
1320
1320
3360
7B58
4B48
0780
0F60
3330
E31C
C304
0300
ENDCHAR
STARTCHAR 4F88
ENCODING 20360
SWIDTH 960 0
DWIDTH 16 0
BBX 15 15 0 -2
BITMAP
0040
08C0
09FC
1F18
11B0
30E0
7398
D630
107E
11C6
176C
1038
1070
11E0
1700
ENDCHAR
STARTCHAR 4F8A
ENCODING 20362
SWIDTH 960 0
DWIDTH 16 0
BBX 15 15 0 -2
BITMAP
0840
0860
0A66
1B6C
1168
3168
77FE
D7FE
1090
1090
1190
1190
1112
1312
161E
ENDCHAR
STARTCHAR 4F8B
ENCODING 20363
SWIDTH 960 0
DWIDTH 16 0
BBX 15 15 0 -2
BITMAP
1000
1FC2
17D2
3112
3312
73D2
7252
F652
37D2
3DD2
3092
3192
3302
3606
340E
ENDCHAR
STARTCHAR 4F8D
ENCODING 20365
SWIDTH 960 0
DWIDTH 16 0
BBX 15 15 0 -2
BITMAP
0860
0C60
0860
1BFC
1060
3060
77FE
D008
1008
17FE
1008
1108
1188
1008
1038
ENDCHAR
STARTCHAR 4F8F
ENCODING 20367
SWIDTH 960 0
DWIDTH 16 0
BBX 16 15 0 -2
BITMAP
0040
0960
1960
1B60
33FC
3660
7060
F7FE
3060
30F0
30F0
31EC
3766
3663
3060
ENDCHAR
STARTCHAR 4F91
ENCODING 20369
SWIDTH 960 0
DWIDTH 16 0
BBX 16 15 0 -2
BITMAP
0060
0860
0860
1BFF
10C0
30FC
7184
D384
12FC
1684
1084
10FC
1084
1084
108C
ENDCHAR
STARTCHAR 4F96
ENCODING 20374
SWIDTH 960 0
DWIDTH 16 0
BBX 15 15 0 -2
BITMAP
0180
0380
02C0
0660
1C38
7FFE
E006
0000
3FFC
324C
324C
3FFC
324C
324C
3258
ENDCHAR
STARTCHAR 4F98
ENCODING 20376
SWIDTH 960 0
DWIDTH 16 0
BBX 15 15 0 -2
BITMAP
0060
0860
1FFE
1E02
1602
3038
73E0
D140
1042
11FE
17C0
1040
1042
1066
107C
ENDCHAR
STARTCHAR 4F9B
ENCODING 20379
SWIDTH 960 0
DWIDTH 16 0
BBX 16 15 0 -2
BITMAP
0800
0998
0998
1998
109E
37FE
7098
D098
1098
17FF
1000
1080
1198
130E
1606
ENDCHAR
STARTCHAR 4F9D
ENCODING 20381
SWIDTH 960 0
DWIDTH 16 0
BBX 16 15 0 -2
BITMAP
0040
0860
1860
1FFE
3040
30E0
71A2
F136
3718
3D18
3118
310C
3164
37C6
3603
ENDCHAR
STARTCHAR 4FAE
ENCODING 20398
SWIDTH 960 0
DWIDTH 16 0
BBX 16 15 0 -2
BITMAP
0100
1900
13FE
1300
3600
35FC
716C
F12C
37FF
310C
336C
336C
33FE
3008
3038
ENDCHAR
STARTCHAR 4FAF
ENCODING 20399
SWIDTH 960 0
DWIDTH 16 0
BBX 15 14 0 -1
BITMAP
0BF8
1808
1008
37FE
3100
7300
F3FC
3660
3040
37FE
30E0
31B0
330C
3606
ENDCHAR
STARTCHAR 4FB5
ENCODING 20405
SWIDTH 960 0
DWIDTH 16 0
BBX 15 14 0 -1
BITMAP
09F8
1808
17FE
3008
33F8
7000
F7FE
3402
37FA
3198
30F0
3060
31F8
370E
ENDCHAR
STARTCHAR 4FB6
ENCODING 20406
SWIDTH 960 0
DWIDTH 16 0
BBX 15 14 0 -1
BITMAP
09FC
09FC
1904
1104
3104
71FC
D060
1060
13FE
1206
1206
1206
1206
13FE
ENDCHAR
STARTCHAR 4FBF
ENCODING 20415
SWIDTH 960 0
DWIDTH 16 0
BBX 15 15 0 -2
BITMAP
0800
1FFE
1FFE
1060
33FC
3264
73FC
D264
13FC
13FC
1160
10C0
10E0
13BC
170E
ENDCHAR
STARTCHAR 4FC2
ENCODING 20418
SWIDTH 960 0
DWIDTH 16 0
BBX 15 14 0 -1
BITMAP
0878
1BE0
18C0
30D8
3390
70F4
F064
37FE
3742
3040
3348
324E
3646
3040
ENDCHAR
STARTCHAR 4FC3
ENCODING 20419
SWIDTH 960 0
DWIDTH 16 0
BBX 16 14 0 -1
BITMAP
09FC
0904
1904
1104
31FC
71FC
D020
1020
113C
1120
1320
13A0
16F0
143F
ENDCHAR
STARTCHAR 4FC4
ENCODING 20420
SWIDTH 960 0
DWIDTH 16 0
BBX 16 15 0 -2
BITMAP
1000
18B0
17BC
3536
3130
7FFE
7130
F134
3174
33DC
3718
3118
3138
31EF
3706
ENDCHAR
STARTCHAR 4FC9
ENCODING 20425
SWIDTH 960 0
DWIDTH 16 0
BBX 15 14 0 -1
BITMAP
0BFE
1860
1840
33FC
30CC
70CC
F7FE
3000
3000
33FC
3304
3304
3304
33FC
ENDCHAR
STARTCHAR 4FCA
ENCODING 20426
SWIDTH 960 0
DWIDTH 16 0
BBX 16 15 0 -2
BITMAP
0880
18C8
198C
17FE
33B0
31B3
771E
D2C0
10F8
1198
13D8
1270
1070
11DE
1306
ENDCHAR
STARTCHAR 4FCE
ENCODING 20430
SWIDTH 960 0
DWIDTH 16 0
BBX 14 14 1 -2
BITMAP
31F8
2118
3118
7918
CDF8
8DF8
3118
2118
71F8
79F8
CD18
8118
0118
07FC
ENDCHAR
STARTCHAR 4FD1
ENCODING 20433
SWIDTH 960 0
DWIDTH 16 0
BBX 14 15 1 -2
BITMAP
1000
1BFC
1018
31F0
30C0
6040
E7FC
A444
27FC
2444
2444
27FC
2444
2444
245C
ENDCHAR
STARTCHAR 4FD3
ENCODING 20435
SWIDTH 960 0
DWIDTH 16 0
BBX 15 14 0 -1
BITMAP
0BFE
0BFE
1924
1124
3248
736C
D126
1124
13FE
1060
1060
1060
17FE
17FE
ENDCHAR
STARTCHAR 4FD4
ENCODING 20436
SWIDTH 960 0
DWIDTH 16 0
BBX 16 15 0 -2
BITMAP
0800
09FE
0906
1906
11FE
3106
7106
D1FE
1106
11FE
11FE
1098
119B
131B
161E
ENDCHAR
STARTCHAR 4FD7
ENCODING 20439
SWIDTH 960 0
DWIDTH 16 0
BBX 16 14 0 -1
BITMAP
0998
1B0C
1646
3060
30E0
70B0
F11C
3607
35FA
3108
3108
3108
3108
31F8
ENDCHAR
STARTCHAR 4FDA
ENCODING 20442
SWIDTH 960 0
DWIDTH 16 0
BBX 15 14 0 -1
BITMAP
0BFC
1BFC
1A64
33FC
3264
7264
F3FC
3060
3060
33FE
33E0
3060
3060
37FE
ENDCHAR
STARTCHAR 4FDD
ENCODING 20445
SWIDTH 960 0
DWIDTH 16 0
BBX 16 15 0 -2
BITMAP
0800
0DFC
0904
1904
1104
31FC
7060
D060
13FE
1070
10F0
11E8
136E
1663
1060
ENDCHAR
STARTCHAR 4FDF
ENCODING 20447
SWIDTH 960 0
DWIDTH 16 0
BBX 15 15 0 -2
BITMAP
0880
08C8
1988
197C
33E6
3180
73FC
F7FC
3060
37FE
3060
3070
30D8
338E
3606
ENDCHAR
STARTCHAR 4FE0
ENCODING 20448
SWIDTH 960 0
DWIDTH 16 0
BBX 16 15 0 -2
BITMAP
1060
1860
1060
17FE
3060
336C
736C
F36C
37FE
3470
30F0
3190
3188
370E
3603
ENDCHAR
STARTCHAR 4FE1
ENCODING 20449
SWIDTH 960 0
DWIDTH 16 0
BBX 15 15 0 -2
BITMAP
0800
09FC
0800
1BFE
13FE
3000
71FC
D000
11FC
1000
11FC
11FC
1104
1104
11FC
ENDCHAR
STARTCHAR 4FEE
ENCODING 20462
SWIDTH 960 0
DWIDTH 16 0
BBX 16 15 0 -2
BITMAP
1000
18C0
11FE
15CC
3758
3470
7478
F7DF
3532
34C8
3418
34F2
348C
3078
31C0
ENDCHAR
STARTCHAR 4FEF
ENCODING 20463
SWIDTH 960 0
DWIDTH 16 0
BBX 15 15 0 -2
BITMAP
0030
1820
1BFE
1200
324C
32CC
72FE
D3FE
13CC
13EC
12FC
16CC
16CC
14CC
1CDC
ENDCHAR
STARTCHAR 4FF1
ENCODING 20465
SWIDTH 960 0
DWIDTH 16 0
BBX 16 15 0 -2
BITMAP
0800
09FC
090C
190C
11FC
310C
71FC
D10C
11FC
110C
17FF
17FF
1198
130E
1206
ENDCHAR
STARTCHAR 4FF3
ENCODING 20467
SWIDTH 960 0
DWIDTH 16 0
BBX 15 15 0 -2
BITMAP
0800
08D0
08D0
18D0
17DE
30D0
70D0
D79E
1090
1090
179E
1190
1190
1310
1610
ENDCHAR
STARTCHAR 4FF5
ENCODING 20469
SWIDTH 960 0
DWIDTH 16 0
BBX 15 15 0 -2
BITMAP
1000
1840
17FC
1040
33FC
3040
707E
FFFE
30E4
33AE
3F38
3118
316C
37C6
3602
ENDCHAR
STARTCHAR 4FF8
ENCODING 20472
SWIDTH 960 0
DWIDTH 16 0
BBX 16 15 0 -2
BITMAP
0040
1840
1FFE
10C0
33FC
70B0
77FE
F198
3368
3666
3DFB
3060
37FC
3060
3060
ENDCHAR
STARTCHAR 4FFA
ENCODING 20474
SWIDTH 960 0
DWIDTH 16 0
BBX 15 15 0 -2
BITMAP
0080
18C0
17FC
10B0
3190
335C
7E4E
F3FA
3248
33F8
3248
33F8
3040
3042
307E
ENDCHAR
STARTCHAR 5002
ENCODING 20482
SWIDTH 960 0
DWIDTH 16 0
BBX 15 14 0 -1
BITMAP
090C
0988
1898
13FE
3098
7098
D098
17FE
1098
1198
1198
1118
1318
1618
ENDCHAR
STARTCHAR 5006
ENCODING 20486
SWIDTH 960 0
DWIDTH 16 0
BBX 15 15 0 -2
BITMAP
1000
1FFE
17FE
1060
3060
37FE
7462
F5FA
34EA
35EA
35FE
3776
3462
3466
346E
ENDCHAR
STARTCHAR 5009
ENCODING 20489
SWIDTH 960 0
DWIDTH 16 0
BBX 15 15 1 -2
BITMAP
0200
0300
0D80
18E0
7FFE
C004
3FF0
3030
3FF0
3030
3FF0
2000
7FF0
D830
9FF0
ENDCHAR
STARTCHAR 500B
ENCODING 20491
SWIDTH 960 0
DWIDTH 16 0
BBX 15 14 0 -1
BITMAP
0FFE
1E02
1622
3622
36FA
7622
F622
36FA
368A
368A
36FA
3602
3602
37FE
ENDCHAR
STARTCHAR 500D
ENCODING 20493
SWIDTH 960 0
DWIDTH 16 0
BBX 15 15 0 -2
BITMAP
0060
0860
1BFE
1808
3188
3198
7098
D7FE
1000
13FC
13FC
1304
1304
1304
13FC
ENDCHAR
STARTCHAR 5011
ENCODING 20497
SWIDTH 960 0
DWIDTH 16 0
BBX 15 14 0 -1
BITMAP
1FDE
16D2
16D2
37DE
36D2
76D2
F7DE
3602
3602
3602
3602
3602
3602
360E
ENDCHAR
STARTCHAR 5012
ENCODING 20498
SWIDTH 960 0
DWIDTH 16 0
BBX 15 15 0 -2
BITMAP
1000
1802
17DA
131A
325A
325A
77FA
F01A
311A
37DA
37DA
311A
31E2
3782
3006
ENDCHAR
STARTCHAR 5016
ENCODING 20502
SWIDTH 960 0
DWIDTH 16 0
BBX 16 15 0 -2
BITMAP
0860
1860
1BFE
1060
3060
37FF
7188
D188
17FE
17E0
1060
17FE
17FE
1060
1060
ENDCHAR
STARTCHAR 5019
ENCODING 20505
SWIDTH 960 0
DWIDTH 16 0
BBX 16 15 0 -2
BITMAP
1000
18FC
100C
340C
35FF
7440
74C0
F4FC
35B0
3430
35FF
3478
344C
31C6
3182
ENDCHAR
STARTCHAR 501A
ENCODING 20506
SWIDTH 960 0
DWIDTH 16 0
BBX 16 15 0 -2
BITMAP
0060
1860
1BFC
1060
30D8
330C
7000
D7FF
1006
13F6
1336
1336
13F6
1006
100C
ENDCHAR
STARTCHAR 501C
ENCODING 20508
SWIDTH 960 0
DWIDTH 16 0
BBX 15 14 0 -1
BITMAP
1BFE
1A22
1222
32FA
3222
72FA
D202
12FA
12FA
12CA
12FA
16FA
1402
1C0E
ENDCHAR
STARTCHAR 501E
ENCODING 20510
SWIDTH 960 0
DWIDTH 16 0
BBX 15 15 0 -2
BITMAP
0060
0860
0FFE
1FFE
1000
33FC
730C
D30C
13FC
13FC
1060
136C
1666
1462
10E0
ENDCHAR
STARTCHAR 501F
ENCODING 20511
SWIDTH 960 0
DWIDTH 16 0
BBX 15 15 0 -2
BITMAP
0098
0898
0898
1BFE
1098
3098
77FE
D000
1000
13FC
1304
13FC
1304
1304
13FC
ENDCHAR
STARTCHAR 5021
ENCODING 20513
SWIDTH 960 0
DWIDTH 16 0
BBX 15 14 0 -1
BITMAP
0BFC
0B04
1B04
13FC
3304
73FC
D000
13FE
13FE
1202
13FE
1202
1202
13FE
ENDCHAR
STARTCHAR 5023
ENCODING 20515
SWIDTH 960 0
DWIDTH 16 0
BBX 16 15 0 -2
BITMAP
1000
1B08
1318
3FDF
321F
7236
73B6
F3F6
3294
3694
369C
348C
349C
3DB6
3DA2
ENDCHAR
STARTCHAR 5024
ENCODING 20516
SWIDTH 960 0
DWIDTH 16 0
BBX 15 15 0 -2
BITMAP
0020
0830
0BFE
1830
1030
30FC
72C4
D2FC
12C4
12FC
12C4
12FC
12FC
1200
13FE
ENDCHAR
STARTCHAR 5026
ENCODING 20518
SWIDTH 960 0
DWIDTH 16 0
BBX 16 15 0 -2
BITMAP
0040
1968
1B4C
13FE
36E2
30F0
77FE
D198
13FC
1FFF
119A
11B8
11B4
1186
10FC
ENDCHAR
STARTCHAR 5027
ENCODING 20519
SWIDTH 960 0
DWIDTH 16 0
BBX 15 15 0 -2
BITMAP
0860
1860
1FFE
1602
3602
31F8
7000
D000
13FE
1060
1060
136C
1266
1662
10E0
ENDCHAR
STARTCHAR 5028
ENCODING 20520
SWIDTH 960 0
DWIDTH 16 0
BBX 15 14 0 -1
BITMAP
09FE
1906
1906
11FE
3130
7130
D1FE
13FE
1330
13FE
12FE
1686
1486
1CFE
ENDCHAR
STARTCHAR 502A
ENCODING 20522
SWIDTH 960 0
DWIDTH 16 0
BBX 16 14 0 -1
BITMAP
09BC
1B3C
1204
3204
33DC
7204
F204
33FC
3090
3090
3090
3193
331B
361E
ENDCHAR
STARTCHAR 502B
ENCODING 20523
SWIDTH 960 0
DWIDTH 16 0
BBX 15 15 0 -2
BITMAP
0040
18C0
18A0
11B8
370E
3DF6
7000
F7FC
36B4
36B4
37FC
36B4
36B4
36B4
36BC
ENDCHAR
STARTCHAR 502C
ENCODING 20524
SWIDTH 960 0
DWIDTH 16 0
BBX 15 15 0 -2
BITMAP
0860
0C20
083E
1820
13FC
3304
73FC
D3FC
1304
13FC
1020
17FE
17FE
1020
1020
ENDCHAR
STARTCHAR 502D
ENCODING 20525
SWIDTH 960 0
DWIDTH 16 0
BBX 16 15 0 -2
BITMAP
0800
1BFC
1BE0
17FE
37FE
30F0
73EC
D667
1040
17FF
17FF
1318
13F0
107C
17C6
ENDCHAR
STARTCHAR 503B
ENCODING 20539
SWIDTH 960 0
DWIDTH 16 0
BBX 16 14 0 -1
BITMAP
1FDF
16D2
16D6
37D4
37DC
76D4
F6D6
37D3
36D3
36D6
37DE
36D0
30D0
30D0
ENDCHAR
STARTCHAR 5043
ENCODING 20547
SWIDTH 960 0
DWIDTH 16 0
BBX 16 14 0 -1
BITMAP
1BFE
1A00
12FC
3284
32FC
72FC
D2FC
1260
13FE
12D8
1238
13EC
1200
13FF
ENDCHAR
STARTCHAR 5047
ENCODING 20551
SWIDTH 960 0
DWIDTH 16 0
BBX 16 15 0 -2
BITMAP
1000
1FBE
14BE
3486
3486
77BE
7400
F43E
37BE
3424
3434
379C
3418
343E
3463
ENDCHAR
STARTCHAR 5048
ENCODING 20552
SWIDTH 960 0
DWIDTH 16 0
BBX 15 14 0 -1
BITMAP
0BFC
1B04
1BFC
3304
33FC
7080
F1FE
3722
3762
3272
3292
33FE
33FE
301C
ENDCHAR
STARTCHAR 5049
ENCODING 20553
SWIDTH 960 0
DWIDTH 16 0
BBX 15 15 0 -2
BITMAP
0040
087C
0BFC
184C
17FE
3000
73FC
D30C
13FC
1060
13FC
1260
17FE
1060
1060
ENDCHAR
STARTCHAR 504F
ENCODING 20559
SWIDTH 960 0
DWIDTH 16 0
BBX 16 14 0 -1
BITMAP
1BFF
13FF
13FE
33FE
3302
73FE
F300
33FE
335A
37FE
375A
355A
3D5A
315E
ENDCHAR
STARTCHAR 5055
ENCODING 20565
SWIDTH 960 0
DWIDTH 16 0
BBX 16 15 0 -2
BITMAP
0800
0B30
1A3E
13F8
3230
32F3
779E
D060
1040
13FC
1304
13FC
1304
1304
13FC
ENDCHAR
STARTCHAR 505A
ENCODING 20570
SWIDTH 960 0
DWIDTH 16 0
BBX 15 15 0 -2
BITMAP
1010
1318
1310
331E
2FFE
6324
6374
E374
2794
2494
249C
2488
279C
27B6
2022
ENDCHAR
STARTCHAR 505C
ENCODING 20572
SWIDTH 960 0
DWIDTH 16 0
BBX 16 15 0 -2
BITMAP
0060
0860
1FFE
1800
33FC
330C
73FC
F000
37FF
3403
35FB
3060
3060
3060
30E0
ENDCHAR
STARTCHAR 5065
ENCODING 20581
SWIDTH 960 0
DWIDTH 16 0
BBX 16 15 0 -2
BITMAP
1000
1810
177E
1216
32FF
7616
777E
F110
3110
357C
3510
377E
3210
3790
34FE
ENDCHAR
STARTCHAR 5074
ENCODING 20596
SWIDTH 960 0
DWIDTH 16 0
BBX 15 14 0 -1
BITMAP
1FC2
165A
165A
37DA
365A
765A
F65A
37DA
365A
365A
37DA
3282
36C6
344E
ENDCHAR
STARTCHAR 5075
ENCODING 20597
SWIDTH 960 0
DWIDTH 16 0
BBX 15 15 0 -2
BITMAP
0860
0860
087E
1860
13FC
33FC
7304
D3FC
1304
13FC
1304
13FC
13FC
139C
1606
ENDCHAR
STARTCHAR 5076
ENCODING 20598
SWIDTH 960 0
DWIDTH 16 0
BBX 15 15 0 -2
BITMAP
0800
0DFC
0924
1924
11FC
3124
71FC
D020
13FE
13FE
122A
123A
12F6
1202
120E
ENDCHAR
STARTCHAR 5078
ENCODING 20600
SWIDTH 960 0
DWIDTH 16 0
BBX 16 15 0 -2
BITMAP
0840
18E0
18B0
1198
33FC
3FF7
7000
D7C6
16D6
17D6
16D6
17D6
16D6
16C6
16CC
ENDCHAR
STARTCHAR 5080
ENCODING 20608
SWIDTH 960 0
DWIDTH 16 0
BBX 16 15 0 -2
BITMAP
0860
0860
0BFC
1A64
13FC
33FC
7264
D3FC
10E0
10F0
11F0
116C
1377
1263
143E
ENDCHAR
STARTCHAR 5085
ENCODING 20613
SWIDTH 960 0
DWIDTH 16 0
BBX 15 15 0 -2
BITMAP
1068
186C
17FE
1060
33FC
3264
73FC
F264
33FC
3274
3008
37FE
3108
3198
3038
ENDCHAR
STARTCHAR 508D
ENCODING 20621
SWIDTH 960 0
DWIDTH 16 0
BBX 15 15 0 -2
BITMAP
0060
0860
1BFE
1198
3098
37FE
7602
F020
37FE
30C0
30C0
30FC
3184
330C
321C
ENDCHAR
STARTCHAR 5091
ENCODING 20625
SWIDTH 960 0
DWIDTH 16 0
BBX 16 14 0 -1
BITMAP
1B0C
1BCC
16FE
36AC
33AC
717E
D30C
166C
1060
17FE
10F0
11EC
1E67
1460
ENDCHAR
STARTCHAR 5098
ENCODING 20632
SWIDTH 960 0
DWIDTH 16 0
BBX 16 15 0 -2
BITMAP
0100
0380
06C0
1DF8
799F
C992
19B0
3FEC
2990
19B0
77EC
0180
7FFE
0180
0180
ENDCHAR
STARTCHAR 5099
ENCODING 20633
SWIDTH 960 0
DWIDTH 16 0
BBX 16 15 0 -2
BITMAP
00D8
1898
13FE
1098
3098
37FF
7600
F7FE
37B6
37FE
37B6
35FE
35B6
35B6
3DBC
ENDCHAR
STARTCHAR 50AC
ENCODING 20652
SWIDTH 960 0
DWIDTH 16 0
BBX 15 15 0 -2
BITMAP
0820
1B22
1B22
13FE
3000
31B0
7130
D3FE
1730
17FE
1730
13FE
13FE
1330
13FE
ENDCHAR
STARTCHAR 50AD
ENCODING 20653
SWIDTH 960 0
DWIDTH 16 0
BBX 16 15 0 -2
BITMAP
0030
0830
1BFF
1230
32FE
33FF
7236
F2FE
3230
37FE
37FE
35B6
35FE
35B6
3DBE
ENDCHAR
STARTCHAR 50B2
ENCODING 20658
SWIDTH 960 0
DWIDTH 16 0
BBX 16 15 0 -2
BITMAP
1208
1B08
17C8
371F
331F
7FD6
7336
F13E
3FCC
320C
33CC
32CC
36DE
34D2
3DB3
ENDCHAR
STARTCHAR 50B3
ENCODING 20659
SWIDTH 960 0
DWIDTH 16 0
BBX 16 15 0 -2
BITMAP
0060
1860
1FFE
13FC
3264
33FC
7264
D3FC
106C
17FF
1008
17FF
1108
1188
1018
ENDCHAR
STARTCHAR 50B5
ENCODING 20661
SWIDTH 960 0
DWIDTH 16 0
BBX 15 15 0 -2
BITMAP
0060
087E
1BFE
1BFC
3060
37FE
7000
F3FC
3304
33FC
33FC
3304
33FC
338C
3606
ENDCHAR
STARTCHAR 50B7
ENCODING 20663
SWIDTH 960 0
DWIDTH 16 0
BBX 16 15 0 -2
BITMAP
1000
1B00
13FE
17FC
3104
71FC
7104
F1FC
37FF
3100
33FE
3E96
31B6
3366
30CC
ENDCHAR
STARTCHAR 50BE
ENCODING 20670
SWIDTH 960 0
DWIDTH 16 0
BBX 16 15 0 -2
BITMAP
1000
18FF
10FF
3C18
3C7E
7C46
7D7E
FE46
3C46
3C7E
3DC6
3F7E
3244
30E6
3183
ENDCHAR
STARTCHAR 50C5
ENCODING 20677
SWIDTH 960 0
DWIDTH 16 0
BBX 16 15 0 -2
BITMAP
0188
0988
1FFE
1988
31F8
3060
73FC
F264
33FC
3060
33FE
3060
33FC
3060
37FF
ENDCHAR
STARTCHAR 50C9
ENCODING 20681
SWIDTH 960 0
DWIDTH 16 0
BBX 14 15 1 -2
BITMAP
0200
0700
0D80
18E0
7FFC
CFCC
0000
7DF0
6590
7DF0
7DF0
1060
30E0
7CB0
4598
ENDCHAR
STARTCHAR 50CA
ENCODING 20682
SWIDTH 960 0
DWIDTH 16 0
BBX 16 15 0 -2
BITMAP
1000
1FFE
10B0
37FC
36B4
76B4
77FC
F080
3FFE
3308
37F6
3D13
3130
3104
31FC
ENDCHAR
STARTCHAR 50CF
ENCODING 20687
SWIDTH 960 0
DWIDTH 16 0
BBX 16 15 0 -2
BITMAP
0080
0880
19F0
1B30
37FC
3264
73FC
F070
33E0
366E
31B8
3670
31BC
3737
30E2
ENDCHAR
STARTCHAR 50D1
ENCODING 20689
SWIDTH 960 0
DWIDTH 16 0
BBX 16 15 0 -2
BITMAP
1000
1BFC
1040
17FE
3090
31FC
779E
F5FB
3000
37FE
3602
36F2
3692
36F6
3606
ENDCHAR
STARTCHAR 50D5
ENCODING 20693
SWIDTH 960 0
DWIDTH 16 0
BBX 15 14 0 -1
BITMAP
0A96
1B9C
17FE
37FE
3198
73FE
F060
33FC
3060
37FE
37E0
30F0
339C
3606
ENDCHAR
STARTCHAR 50D6
ENCODING 20694
SWIDTH 960 0
DWIDTH 16 0
BBX 16 15 0 -2
BITMAP
0060
187E
1FFE
13FE
3000
33FC
7204
F3FC
3188
37FF
3000
33FC
3204
3204
33FC
ENDCHAR
STARTCHAR 50DA
ENCODING 20698
SWIDTH 960 0
DWIDTH 16 0
BBX 16 15 0 -2
BITMAP
1060
1860
17FE
1264
33BC
3118
77FF
F50A
31F8
3108
31F8
3060
336C
3E66
34C2
ENDCHAR
STARTCHAR 50DE
ENCODING 20702
SWIDTH 960 0
DWIDTH 16 0
BBX 16 14 0 -1
BITMAP
1BFC
13CC
1646
37FA
33F8
7308
F3FC
320C
320C
33FF
320A
37EA
3572
3C0E
ENDCHAR
STARTCHAR 50E5
ENCODING 20709
SWIDTH 960 0
DWIDTH 16 0
BBX 16 15 0 -2
BITMAP
0060
1860
13FC
1060
37FE
3108
7108
F7FE
3108
37FF
3000
37FE
3190
3313
361E
ENDCHAR
STARTCHAR 50E7
ENCODING 20711
SWIDTH 960 0
DWIDTH 16 0
BBX 16 14 0 -1
BITMAP
1870
1B18
160E
3FFF
3254
73D4
F244
33FC
3000
33FC
330C
33FC
330C
33FC
ENDCHAR
STARTCHAR 50ED
ENCODING 20717
SWIDTH 960 0
DWIDTH 16 0
BBX 16 14 0 -1
BITMAP
1FFE
1108
1528
37FE
3388
7294
F6F5
34A6
33FC
3204
33FC
3204
3204
33FC
ENDCHAR
STARTCHAR 50F9
ENCODING 20729
SWIDTH 960 0
DWIDTH 16 0
BBX 16 14 0 -1
BITMAP
1FFE
1890
17FE
3692
37FE
7000
D3FC
1304
13FC
1304
13FC
13FC
110C
1707
ENDCHAR
STARTCHAR 50FB
ENCODING 20731
SWIDTH 960 0
DWIDTH 16 0
BBX 15 15 0 -2
BITMAP
1008
1F88
17BE
3696
3694
7794
77BE
F608
3408
37BE
36BE
3688
3E88
3B88
3B88
ENDCHAR
STARTCHAR 50FF
ENCODING 20735
SWIDTH 960 0
DWIDTH 16 0
BBX 15 15 0 -2
BITMAP
1040
1840
17FE
3492
37FA
7090
73FC
F090
37FE
3110
3368
37F6
3DF2
3060
37FC
ENDCHAR
STARTCHAR 5100
ENCODING 20736
SWIDTH 960 0
DWIDTH 16 0
BBX 16 15 0 -2
BITMAP
1108
1998
17FE
1060
33FC
7060
7FFF
F0A0
37AC
3120
3FFE
31DC
3F18
313F
3366
ENDCHAR
STARTCHAR 5101
ENCODING 20737
SWIDTH 960 0
DWIDTH 16 0
BBX 15 15 0 -2
BITMAP
0820
1B30
1BFE
1620
3FFE
3220
73FE
D220
13FE
1000
13DE
12DA
12FA
1202
120E
ENDCHAR
STARTCHAR 5104
ENCODING 20740
SWIDTH 960 0
DWIDTH 16 0
BBX 16 15 0 -2
BITMAP
0060
0860
1BFC
1198
37FE
3000
73FC
F30C
33FC
330C
33FC
3160
37AA
3D8B
31F8
ENDCHAR
STARTCHAR 5106
ENCODING 20742
SWIDTH 960 0
DWIDTH 16 0
BBX 16 15 0 -2
BITMAP
1000
1288
1FF8
329F
329F
7636
77F6
FC76
3F54
3554
354C
354C
375E
3053
31F2
ENDCHAR
STARTCHAR 5109
ENCODING 20745
SWIDTH 960 0
DWIDTH 16 0
BBX 16 15 0 -2
BITMAP
0040
1860
18B0
1198
37FF
35FA
73FC
D3FC
12F4
13FC
1000
1108
1318
17FC
1426
ENDCHAR
STARTCHAR 5112
ENCODING 20754
SWIDTH 960 0
DWIDTH 16 0
BBX 15 14 0 -1
BITMAP
1FFE
1060
17FE
3462
35FA
75FA
F462
37FE
3060
37FE
3692
3692
3692
3696
ENDCHAR
STARTCHAR 511F
ENCODING 20767
SWIDTH 960 0
DWIDTH 16 0
BBX 15 15 0 -2
BITMAP
0060
1B6C
1168
17FE
35FA
350A
71F8
F000
33FC
33FC
330C
33FC
33FC
3308
3606
ENDCHAR
STARTCHAR 5121
ENCODING 20769
SWIDTH 960 0
DWIDTH 16 0
BBX 15 14 0 -1
BITMAP
1BFC
1B6C
136C
33FC
336C
73FC
D000
17FE
17FE
157E
17FE
157E
157E
17FE
ENDCHAR
STARTCHAR 512A
ENCODING 20778
SWIDTH 960 0
DWIDTH 16 0
BBX 16 14 0 -1
BITMAP
1FFE
1860
11FC
31FC
31FC
710C
F7FF
35B7
32FE
32C0
33F8
36F0
30F8
379E
ENDCHAR
STARTCHAR 5132
ENCODING 20786
SWIDTH 960 0
DWIDTH 16 0
BBX 16 15 0 -2
BITMAP
1010
1F13
1012
1FFE
3F94
7014
77FF
F01E
37B4
307E
37E2
37BE
35A2
35A2
37BE
ENDCHAR
STARTCHAR 5137
ENCODING 20791
SWIDTH 960 0
DWIDTH 16 0
BBX 16 15 0 -2
BITMAP
1000
17DF
1000
37DE
3556
7020
77FF
F490
37FE
3492
37FE
3516
35DC
3D51
3B9E
ENDCHAR
STARTCHAR 513A
ENCODING 20794
SWIDTH 960 0
DWIDTH 16 0
BBX 16 15 0 -2
BITMAP
1410
1696
1FD4
34BF
37BF
7374
7FD4
FFDF
3FD4
3FD4
331F
3FD4
3314
3794
3CDF
ENDCHAR
STARTCHAR 513C
ENCODING 20796
SWIDTH 960 0
DWIDTH 16 0
BBX 16 15 0 -2
BITMAP
1000
1BDE
1A52
33DE
3000
77FF
75E8
F488
37FE
3556
35CC
35CC
3D4C
3FDA
3871
ENDCHAR
STARTCHAR 5140
ENCODING 20800
SWIDTH 960 0
DWIDTH 16 0
BBX 14 13 1 -2
BITMAP
FFFC
0CC0
0CC0
0CC0
0CC0
0CC0
08C0
08C0
18C0
10C0
30C4
E0FC
C078
ENDCHAR
STARTCHAR 5141
ENCODING 20801
SWIDTH 960 0
DWIDTH 16 0
BBX 14 15 1 -2
BITMAP
0400
0600
0C40
0860
1830
7FF0
7E18
0CC0
0CC0
0CC0
08C0
18C0
18CC
70FC
E078
ENDCHAR
STARTCHAR 5143
ENCODING 20803
SWIDTH 960 0
DWIDTH 16 0
BBX 14 14 1 -2
BITMAP
3FF0
3FF0
0000
0000
FFFC
FFFC
0CC0
0CC0
08C0
08C0
18C0
30CC
60DC
C078
ENDCHAR
STARTCHAR 5144
ENCODING 20804
SWIDTH 960 0
DWIDTH 16 0
BBX 14 14 1 -2
BITMAP
3FF0
3FF0
3030
3030
3030
3030
3FF0
0C80
0C80
0C80
0880
188C
70CC
E0F8
ENDCHAR
STARTCHAR 5145
ENCODING 20805
SWIDTH 960 0
DWIDTH 16 0
BBX 14 15 1 -2
BITMAP
0300
0300
7FFC
7FFC
0400
0CE0
1830
7FF8
0CC0
0CC0
0CC0
08C0
18C4
30CC
E0F8
ENDCHAR
STARTCHAR 5146
ENCODING 20806
SWIDTH 960 0
DWIDTH 16 0
BBX 14 14 1 -2
BITMAP
0D80
0D80
0D98
6DB0
2DE0
2D80
0D80
1DE0
7DB8
C998
1980
3184
718C
C0F8
ENDCHAR
STARTCHAR 5147
ENCODING 20807
SWIDTH 960 0
DWIDTH 16 0
BBX 14 14 1 -2
BITMAP
48D8
4ED8
4398
4798
5CF8
5058
7FF8
7880
0880
1880
1880
3084
60CC
C0F8
ENDCHAR
STARTCHAR 5148
ENCODING 20808
SWIDTH 960 0
DWIDTH 16 0
BBX 14 15 1 -2
BITMAP
0200
1300
1300
3300
3FF0
6300
4300
7FFC
7FFC
0CC0
08C0
08C0
18C4
70CC
C078
ENDCHAR
STARTCHAR 5149
ENCODING 20809
SWIDTH 960 0
DWIDTH 16 0
BBX 14 15 1 -2
BITMAP
0200
0300
2330
3330
1B60
1300
7FFC
7FFC
0CC0
08C0
08C0
18C0
30CC
E0FC
C078
ENDCHAR
STARTCHAR 514B
ENCODING 20811
SWIDTH 960 0
DWIDTH 16 0
BBX 14 15 1 -2
BITMAP
0300
0300
7FF8
7FF8
0300
3FF0
3FF0
3030
3030
3FF0
0C80
0880
1884
70CC
E0F8
ENDCHAR
STARTCHAR 514C
ENCODING 20812
SWIDTH 960 0
DWIDTH 16 0
BBX 15 14 0 -2
BITMAP
01E0
0C20
1838
301E
EFF6
0830
0830
0830
0FF0
0640
0440
0C46
186C
707C
ENDCHAR
STARTCHAR 514D
ENCODING 20813
SWIDTH 960 0
DWIDTH 16 0
BBX 14 14 1 -1
BITMAP
0C00
1FC0
1080
7180
FFF0
A310
2310
2310
3FF0
0700
0F00
1B04
730C
E1FC
ENDCHAR
STARTCHAR 514E
ENCODING 20814
SWIDTH 960 0
DWIDTH 16 0
BBX 14 14 1 -2
BITMAP
01F0
7F80
0200
0200
7FF0
6230
6630
7FF0
0500
0540
0D60
192C
710C
E1F8
ENDCHAR
STARTCHAR 5152
ENCODING 20818
SWIDTH 960 0
DWIDTH 16 0
BBX 14 14 1 -2
BITMAP
7DF0
6030
6030
7DF0
7DF0
6030
6030
7FF0
0880
0880
0880
188C
708C
E0F8
ENDCHAR
STARTCHAR 515C
ENCODING 20828
SWIDTH 960 0
DWIDTH 16 0
BBX 14 14 1 -1
BITMAP
0300
FFF8
C8C8
C8C8
CFC8
C8C8
EFF8
EFF8
0880
0C80
0C80
1884
70CC
E0F8
ENDCHAR
STARTCHAR 5162
ENCODING 20834
SWIDTH 960 0
DWIDTH 16 0
BBX 16 15 0 -2
BITMAP
1010
0810
7EFE
7EFE
0810
7EFC
62C4
62C4
7EFC
7EFC
3468
2568
2748
64CB
C18E
ENDCHAR
STARTCHAR 5165
ENCODING 20837
SWIDTH 960 0
DWIDTH 16 0
BBX 14 14 1 -2
BITMAP
1F00
1F00
0300
0300
0300
0300
0780
0580
0CC0
08C0
1860
3030
601C
C00C
ENDCHAR
STARTCHAR 5167
ENCODING 20839
SWIDTH 960 0
DWIDTH 16 0
BBX 12 14 2 -2
BITMAP
0600
0600
FFF0
FFF0
8610
8610
8F10
9910
90D0
E0F0
8010
8010
8010
8070
ENDCHAR
STARTCHAR 5168
ENCODING 20840
SWIDTH 960 0
DWIDTH 16 0
BBX 16 15 0 -2
BITMAP
0100
0180
03C0
0640
0C60
1838
700E
EFF7
0180
0180
0FF0
0FF0
0180
0180
3FFE
ENDCHAR
STARTCHAR 5169
ENCODING 20841
SWIDTH 960 0
DWIDTH 16 0
BBX 14 14 1 -2
BITMAP
FFFC
FFFC
0300
FFFC
FFFC
C30C
FBEC
DB6C
DB6C
DF7C
F7DC
C71C
C30C
C318
ENDCHAR
STARTCHAR 516A
ENCODING 20842
SWIDTH 960 0
DWIDTH 16 0
BBX 16 15 0 -2
BITMAP
0100
0180
02C0
0E70
1FF8
F7EF
0002
3F04
3364
3F64
3364
3F64
3364
3304
371C
ENDCHAR
STARTCHAR 516B
ENCODING 20843
SWIDTH 960 0
DWIDTH 16 0
BBX 15 14 1 -2
BITMAP
0FC0
0FC0
00C0
00C0
08C0
18C0
1840
1860
1060
3030
6030
6018
C00E
8004
ENDCHAR
ENDFONT
